<?xml version="1.0" encoding="UTF-8" standalone="no"?><svg xmlns="http://www.w3.org/2000/svg" xmlns:xlink="http://www.w3.org/1999/xlink" clip-rule="evenodd" stroke-miterlimit="10" viewBox="0 0 1280 720"><desc>SVG generated by Keynote</desc><defs></defs><g transform="matrix(1.00, 0.00, -0.00, -1.00, 0.0, 720.0)"><path d="M 0.0 720.0 L 1280.0 720.0 L 1280.0 0.0 L 0.0 0.0 Z M 0.0 720.0 " fill="#FFFFFF"></path><path d="M 0.0 0.5 L 1153.0 0.5 " fill="none" stroke="#9A9A9A" stroke-width="1.00" transform="matrix(1.00, 0.00, 0.00, -1.00, 64.0, 575.0)"></path><text xml:space="preserve" font-family="HelveticaNeue-Light,Helvetica Neue" font-size="38.0" fill="#000000" transform="matrix(1.00, 0.00, -0.00, -1.00, 60.0, 605.2)">P</text><text xml:space="preserve" font-family="HelveticaNeue-Light,Helvetica Neue" font-size="38.0" fill="#000000" transform="matrix(1.00, 0.00, -0.00, -1.00, 83.9, 605.2)">e</text><text xml:space="preserve" font-family="HelveticaNeue-Light,Helvetica Neue" font-size="38.0" fill="#000000" transform="matrix(1.00, 0.00, -0.00, -1.00, 103.7, 605.2)">l</text><text xml:space="preserve" font-family="HelveticaNeue-Light,Helvetica Neue" font-size="38.0" fill="#000000" transform="matrix(1.00, 0.00, -0.00, -1.00, 110.7, 605.2)">o</text><text xml:space="preserve" font-family="HelveticaNeue-Light,Helvetica Neue" font-size="38.0" fill="#000000" transform="matrix(1.00, 0.00, -0.00, -1.00, 131.8, 605.2)">t</text><text xml:space="preserve" font-family="HelveticaNeue-Light,Helvetica Neue" font-size="38.0" fill="#000000" transform="matrix(1.00, 0.00, -0.00, -1.00, 143.1, 605.2)">o</text><text xml:space="preserve" font-family="HelveticaNeue-Light,Helvetica Neue" font-size="38.0" fill="#000000" transform="matrix(1.00, 0.00, -0.00, -1.00, 164.2, 605.2)">n</text><text xml:space="preserve" font-family="HelveticaNeue,Helvetica Neue" font-size="24.0" fill="#747474" transform="matrix(1.00, 0.00, -0.00, -1.00, 60.0, 520.8)">•</text><text xml:space="preserve" font-family="HelveticaNeue,Helvetica Neue" font-size="24.0" fill="#747474" transform="matrix(1.00, 0.00, -0.00, -1.00, 81.0, 520.8)">H</text><text xml:space="preserve" font-family="HelveticaNeue,Helvetica Neue" font-size="24.0" fill="#747474" transform="matrix(1.00, 0.00, -0.00, -1.00, 98.3, 520.8)">a</text><text xml:space="preserve" font-family="HelveticaNeue,Helvetica Neue" font-size="24.0" fill="#747474" transform="matrix(1.00, 0.00, -0.00, -1.00, 111.2, 520.8)">r</text><text xml:space="preserve" font-family="HelveticaNeue,Helvetica Neue" font-size="24.0" fill="#747474" transform="matrix(1.00, 0.00, -0.00, -1.00, 118.8, 520.8)">d</text><text xml:space="preserve" font-family="HelveticaNeue,Helvetica Neue" font-size="24.0" fill="#747474" transform="matrix(1.00, 0.00, -0.00, -1.00, 133.0, 520.8)">c</text><text xml:space="preserve" font-family="HelveticaNeue,Helvetica Neue" font-size="24.0" fill="#747474" transform="matrix(1.00, 0.00, -0.00, -1.00, 145.9, 520.8)">o</text><text xml:space="preserve" font-family="HelveticaNeue,Helvetica Neue" font-size="24.0" fill="#747474" transform="matrix(1.00, 0.00, -0.00, -1.00, 159.7, 520.8)">p</text><text xml:space="preserve" font-family="HelveticaNeue,Helvetica Neue" font-size="24.0" fill="#747474" transform="matrix(1.00, 0.00, -0.00, -1.00, 173.9, 520.8)">y</text><text xml:space="preserve" font-family="HelveticaNeue,Helvetica Neue" font-size="24.0" fill="#747474" transform="matrix(1.00, 0.00, -0.00, -1.00, 185.9, 520.8)">
</text><text xml:space="preserve" font-family="HelveticaNeue,Helvetica Neue" font-size="24.0" fill="#747474" transform="matrix(1.00, 0.00, -0.00, -1.00, 60.0, 446.8)">•</text><text xml:space="preserve" font-family="HelveticaNeue,Helvetica Neue" font-size="24.0" fill="#747474" transform="matrix(1.00, 0.00, -0.00, -1.00, 81.0, 446.8)">i</text><text xml:space="preserve" font-family="HelveticaNeue,Helvetica Neue" font-size="24.0" fill="#747474" transform="matrix(1.00, 0.00, -0.00, -1.00, 86.3, 446.8)">P</text><text xml:space="preserve" font-family="HelveticaNeue,Helvetica Neue" font-size="24.0" fill="#747474" transform="matrix(1.00, 0.00, -0.00, -1.00, 101.9, 446.8)">a</text><text xml:space="preserve" font-family="HelveticaNeue,Helvetica Neue" font-size="24.0" fill="#747474" transform="matrix(1.00, 0.00, -0.00, -1.00, 114.8, 446.8)">d</text><text xml:space="preserve" font-family="HelveticaNeue,Helvetica Neue" font-size="24.0" fill="#747474" transform="matrix(1.00, 0.00, -0.00, -1.00, 129.0, 446.8)">
</text><text xml:space="preserve" font-family="HelveticaNeue,Helvetica Neue" font-size="24.0" fill="#747474" transform="matrix(1.00, 0.00, -0.00, -1.00, 60.0, 372.8)">•</text><text xml:space="preserve" font-family="HelveticaNeue,Helvetica Neue" font-size="24.0" fill="#747474" transform="matrix(1.00, 0.00, -0.00, -1.00, 81.0, 372.8)">W</text><text xml:space="preserve" font-family="HelveticaNeue,Helvetica Neue" font-size="24.0" fill="#747474" transform="matrix(1.00, 0.00, -0.00, -1.00, 101.9, 372.8)">e</text><text xml:space="preserve" font-family="HelveticaNeue,Helvetica Neue" font-size="24.0" fill="#747474" transform="matrix(1.00, 0.00, -0.00, -1.00, 114.7, 372.8)">b</text><text xml:space="preserve" font-family="HelveticaNeue,Helvetica Neue" font-size="24.0" fill="#747474" transform="matrix(1.00, 0.00, -0.00, -1.00, 129.0, 372.8)">s</text><text xml:space="preserve" font-family="HelveticaNeue,Helvetica Neue" font-size="24.0" fill="#747474" transform="matrix(1.00, 0.00, -0.00, -1.00, 141.0, 372.8)">i</text><text xml:space="preserve" font-family="HelveticaNeue,Helvetica Neue" font-size="24.0" fill="#747474" transform="matrix(1.00, 0.00, -0.00, -1.00, 146.3, 372.8)">t</text><text xml:space="preserve" font-family="HelveticaNeue,Helvetica Neue" font-size="24.0" fill="#747474" transform="matrix(1.00, 0.00, -0.00, -1.00, 153.9, 372.8)">e</text></g></svg>