<?xml version="1.0" encoding="UTF-8" standalone="no"?><svg xmlns="http://www.w3.org/2000/svg" xmlns:xlink="http://www.w3.org/1999/xlink" clip-rule="evenodd" stroke-miterlimit="10" viewBox="0 0 1280 720"><desc>SVG generated by Keynote</desc><defs></defs><g transform="matrix(1.00, 0.00, -0.00, -1.00, 0.0, 720.0)"><path d="M 0.0 720.0 L 1280.0 720.0 L 1280.0 0.0 L 0.0 0.0 Z M 0.0 720.0 " fill="#FFFFFF"></path><path d="M 0.0 0.5 L 1153.0 0.5 " fill="none" stroke="#9A9A9A" stroke-width="1.00" transform="matrix(1.00, 0.00, 0.00, -1.00, 64.0, 369.0)"></path><text xml:space="preserve" font-family="HelveticaNeue-Light,Helvetica Neue" font-size="38.0" fill="#000000" transform="matrix(1.00, 0.00, -0.00, -1.00, 60.0, 400.2)">O</text><text xml:space="preserve" font-family="HelveticaNeue-Light,Helvetica Neue" font-size="38.0" fill="#000000" transform="matrix(1.00, 0.00, -0.00, -1.00, 88.2, 400.2)">n</text><text xml:space="preserve" font-family="HelveticaNeue-Light,Helvetica Neue" font-size="38.0" fill="#000000" transform="matrix(1.00, 0.00, -0.00, -1.00, 108.6, 400.2)">-</text><text xml:space="preserve" font-family="HelveticaNeue-Light,Helvetica Neue" font-size="38.0" fill="#000000" transform="matrix(1.00, 0.00, -0.00, -1.00, 122.6, 400.2)">l</text><text xml:space="preserve" font-family="HelveticaNeue-Light,Helvetica Neue" font-size="38.0" fill="#000000" transform="matrix(1.00, 0.00, -0.00, -1.00, 129.7, 400.2)">i</text><text xml:space="preserve" font-family="HelveticaNeue-Light,Helvetica Neue" font-size="38.0" fill="#000000" transform="matrix(1.00, 0.00, -0.00, -1.00, 136.7, 400.2)">n</text><text xml:space="preserve" font-family="HelveticaNeue-Light,Helvetica Neue" font-size="38.0" fill="#000000" transform="matrix(1.00, 0.00, -0.00, -1.00, 157.1, 400.2)">e</text><text xml:space="preserve" font-family="HelveticaNeue-Light,Helvetica Neue" font-size="38.0" fill="#000000" transform="matrix(1.00, 0.00, -0.00, -1.00, 176.8, 400.2)"> </text><text xml:space="preserve" font-family="HelveticaNeue-Light,Helvetica Neue" font-size="38.0" fill="#000000" transform="matrix(1.00, 0.00, -0.00, -1.00, 187.4, 400.2)">M</text><text xml:space="preserve" font-family="HelveticaNeue-Light,Helvetica Neue" font-size="38.0" fill="#000000" transform="matrix(1.00, 0.00, -0.00, -1.00, 218.6, 400.2)">e</text><text xml:space="preserve" font-family="HelveticaNeue-Light,Helvetica Neue" font-size="38.0" fill="#000000" transform="matrix(1.00, 0.00, -0.00, -1.00, 238.3, 400.2)">r</text><text xml:space="preserve" font-family="HelveticaNeue-Light,Helvetica Neue" font-size="38.0" fill="#000000" transform="matrix(1.00, 0.00, -0.00, -1.00, 249.6, 400.2)">c</text><text xml:space="preserve" font-family="HelveticaNeue-Light,Helvetica Neue" font-size="38.0" fill="#000000" transform="matrix(1.00, 0.00, -0.00, -1.00, 269.3, 400.2)">h</text><text xml:space="preserve" font-family="HelveticaNeue-Light,Helvetica Neue" font-size="38.0" fill="#000000" transform="matrix(1.00, 0.00, -0.00, -1.00, 289.7, 400.2)">a</text><text xml:space="preserve" font-family="HelveticaNeue-Light,Helvetica Neue" font-size="38.0" fill="#000000" transform="matrix(1.00, 0.00, -0.00, -1.00, 309.4, 400.2)">n</text><text xml:space="preserve" font-family="HelveticaNeue-Light,Helvetica Neue" font-size="38.0" fill="#000000" transform="matrix(1.00, 0.00, -0.00, -1.00, 329.8, 400.2)">d</text><text xml:space="preserve" font-family="HelveticaNeue-Light,Helvetica Neue" font-size="38.0" fill="#000000" transform="matrix(1.00, 0.00, -0.00, -1.00, 351.7, 400.2)">i</text><text xml:space="preserve" font-family="HelveticaNeue-Light,Helvetica Neue" font-size="38.0" fill="#000000" transform="matrix(1.00, 0.00, -0.00, -1.00, 358.7, 400.2)">s</text><text xml:space="preserve" font-family="HelveticaNeue-Light,Helvetica Neue" font-size="38.0" fill="#000000" transform="matrix(1.00, 0.00, -0.00, -1.00, 377.0, 400.2)">i</text><text xml:space="preserve" font-family="HelveticaNeue-Light,Helvetica Neue" font-size="38.0" fill="#000000" transform="matrix(1.00, 0.00, -0.00, -1.00, 384.0, 400.2)">n</text><text xml:space="preserve" font-family="HelveticaNeue-Light,Helvetica Neue" font-size="38.0" fill="#000000" transform="matrix(1.00, 0.00, -0.00, -1.00, 404.4, 400.2)">g</text><text xml:space="preserve" font-family="HelveticaNeue-Light,Helvetica Neue" font-size="38.0" fill="#000000" transform="matrix(1.00, 0.00, -0.00, -1.00, 425.5, 400.2)"> </text><text xml:space="preserve" font-family="HelveticaNeue-Light,Helvetica Neue" font-size="38.0" fill="#000000" transform="matrix(1.00, 0.00, -0.00, -1.00, 436.1, 400.2)">O</text><text xml:space="preserve" font-family="HelveticaNeue-Light,Helvetica Neue" font-size="38.0" fill="#000000" transform="matrix(1.00, 0.00, -0.00, -1.00, 464.2, 400.2)">p</text><text xml:space="preserve" font-family="HelveticaNeue-Light,Helvetica Neue" font-size="38.0" fill="#000000" transform="matrix(1.00, 0.00, -0.00, -1.00, 486.1, 400.2)">t</text><text xml:space="preserve" font-family="HelveticaNeue-Light,Helvetica Neue" font-size="38.0" fill="#000000" transform="matrix(1.00, 0.00, -0.00, -1.00, 497.3, 400.2)">i</text><text xml:space="preserve" font-family="HelveticaNeue-Light,Helvetica Neue" font-size="38.0" fill="#000000" transform="matrix(1.00, 0.00, -0.00, -1.00, 504.3, 400.2)">o</text><text xml:space="preserve" font-family="HelveticaNeue-Light,Helvetica Neue" font-size="38.0" fill="#000000" transform="matrix(1.00, 0.00, -0.00, -1.00, 525.5, 400.2)">n</text><text xml:space="preserve" font-family="HelveticaNeue-Light,Helvetica Neue" font-size="38.0" fill="#000000" transform="matrix(1.00, 0.00, -0.00, -1.00, 545.9, 400.2)">s</text><text xml:space="preserve" font-family="HelveticaNeue,Helvetica Neue" font-size="24.0" fill="#747474" transform="matrix(1.00, 0.00, -0.00, -1.00, 60.0, 322.8)">a</text><text xml:space="preserve" font-family="HelveticaNeue,Helvetica Neue" font-size="24.0" fill="#747474" transform="matrix(1.00, 0.00, -0.00, -1.00, 72.9, 322.8)">k</text><text xml:space="preserve" font-family="HelveticaNeue,Helvetica Neue" font-size="24.0" fill="#747474" transform="matrix(1.00, 0.00, -0.00, -1.00, 85.3, 322.8)">a</text><text xml:space="preserve" font-family="HelveticaNeue,Helvetica Neue" font-size="24.0" fill="#747474" transform="matrix(1.00, 0.00, -0.00, -1.00, 98.2, 322.8)"> </text><text xml:space="preserve" font-family="HelveticaNeue,Helvetica Neue" font-size="24.0" fill="#747474" transform="matrix(1.00, 0.00, -0.00, -1.00, 104.9, 322.8)">-</text><text xml:space="preserve" font-family="HelveticaNeue,Helvetica Neue" font-size="24.0" fill="#747474" transform="matrix(1.00, 0.00, -0.00, -1.00, 114.2, 322.8)"> </text><text xml:space="preserve" font-family="HelveticaNeue,Helvetica Neue" font-size="24.0" fill="#747474" transform="matrix(1.00, 0.00, -0.00, -1.00, 120.9, 322.8)">H</text><text xml:space="preserve" font-family="HelveticaNeue,Helvetica Neue" font-size="24.0" fill="#747474" transform="matrix(1.00, 0.00, -0.00, -1.00, 138.2, 322.8)">o</text><text xml:space="preserve" font-family="HelveticaNeue,Helvetica Neue" font-size="24.0" fill="#747474" transform="matrix(1.00, 0.00, -0.00, -1.00, 152.0, 322.8)">w</text><text xml:space="preserve" font-family="HelveticaNeue,Helvetica Neue" font-size="24.0" fill="#747474" transform="matrix(1.00, 0.00, -0.00, -1.00, 170.2, 322.8)"> </text><text xml:space="preserve" font-family="HelveticaNeue,Helvetica Neue" font-size="24.0" fill="#747474" transform="matrix(1.00, 0.00, -0.00, -1.00, 176.9, 322.8)">t</text><text xml:space="preserve" font-family="HelveticaNeue,Helvetica Neue" font-size="24.0" fill="#747474" transform="matrix(1.00, 0.00, -0.00, -1.00, 184.4, 322.8)">o</text><text xml:space="preserve" font-family="HelveticaNeue,Helvetica Neue" font-size="24.0" fill="#747474" transform="matrix(1.00, 0.00, -0.00, -1.00, 198.2, 322.8)"> </text><text xml:space="preserve" font-family="HelveticaNeue,Helvetica Neue" font-size="24.0" fill="#747474" transform="matrix(1.00, 0.00, -0.00, -1.00, 204.9, 322.8)">S</text><text xml:space="preserve" font-family="HelveticaNeue,Helvetica Neue" font-size="24.0" fill="#747474" transform="matrix(1.00, 0.00, -0.00, -1.00, 220.4, 322.8)">e</text><text xml:space="preserve" font-family="HelveticaNeue,Helvetica Neue" font-size="24.0" fill="#747474" transform="matrix(1.00, 0.00, -0.00, -1.00, 233.3, 322.8)">l</text><text xml:space="preserve" font-family="HelveticaNeue,Helvetica Neue" font-size="24.0" fill="#747474" transform="matrix(1.00, 0.00, -0.00, -1.00, 238.7, 322.8)">l</text><text xml:space="preserve" font-family="HelveticaNeue,Helvetica Neue" font-size="24.0" fill="#747474" transform="matrix(1.00, 0.00, -0.00, -1.00, 244.0, 322.8)"> </text><text xml:space="preserve" font-family="HelveticaNeue,Helvetica Neue" font-size="24.0" fill="#747474" transform="matrix(1.00, 0.00, -0.00, -1.00, 250.7, 322.8)">S</text><text xml:space="preserve" font-family="HelveticaNeue,Helvetica Neue" font-size="24.0" fill="#747474" transform="matrix(1.00, 0.00, -0.00, -1.00, 266.2, 322.8)">t</text><text xml:space="preserve" font-family="HelveticaNeue,Helvetica Neue" font-size="24.0" fill="#747474" transform="matrix(1.00, 0.00, -0.00, -1.00, 273.8, 322.8)">u</text><text xml:space="preserve" font-family="HelveticaNeue,Helvetica Neue" font-size="24.0" fill="#747474" transform="matrix(1.00, 0.00, -0.00, -1.00, 287.1, 322.8)">ﬀ</text><text xml:space="preserve" font-family="HelveticaNeue,Helvetica Neue" font-size="24.0" fill="#747474" transform="matrix(1.00, 0.00, -0.00, -1.00, 301.0, 322.8)"> </text><text xml:space="preserve" font-family="HelveticaNeue,Helvetica Neue" font-size="24.0" fill="#747474" transform="matrix(1.00, 0.00, -0.00, -1.00, 307.6, 322.8)">o</text><text xml:space="preserve" font-family="HelveticaNeue,Helvetica Neue" font-size="24.0" fill="#747474" transform="matrix(1.00, 0.00, -0.00, -1.00, 321.4, 322.8)">n</text><text xml:space="preserve" font-family="HelveticaNeue,Helvetica Neue" font-size="24.0" fill="#747474" transform="matrix(1.00, 0.00, -0.00, -1.00, 334.8, 322.8)"> </text><text xml:space="preserve" font-family="HelveticaNeue,Helvetica Neue" font-size="24.0" fill="#747474" transform="matrix(1.00, 0.00, -0.00, -1.00, 341.4, 322.8)">t</text><text xml:space="preserve" font-family="HelveticaNeue,Helvetica Neue" font-size="24.0" fill="#747474" transform="matrix(1.00, 0.00, -0.00, -1.00, 349.0, 322.8)">h</text><text xml:space="preserve" font-family="HelveticaNeue,Helvetica Neue" font-size="24.0" fill="#747474" transform="matrix(1.00, 0.00, -0.00, -1.00, 362.3, 322.8)">e</text><text xml:space="preserve" font-family="HelveticaNeue,Helvetica Neue" font-size="24.0" fill="#747474" transform="matrix(1.00, 0.00, -0.00, -1.00, 375.2, 322.8)"> </text><text xml:space="preserve" font-family="HelveticaNeue,Helvetica Neue" font-size="24.0" fill="#747474" transform="matrix(1.00, 0.00, -0.00, -1.00, 381.9, 322.8)">W</text><text xml:space="preserve" font-family="HelveticaNeue,Helvetica Neue" font-size="24.0" fill="#747474" transform="matrix(1.00, 0.00, -0.00, -1.00, 402.7, 322.8)">e</text><text xml:space="preserve" font-family="HelveticaNeue,Helvetica Neue" font-size="24.0" fill="#747474" transform="matrix(1.00, 0.00, -0.00, -1.00, 415.6, 322.8)">b</text></g></svg>