<?xml version="1.0" encoding="UTF-8" standalone="no"?><svg xmlns="http://www.w3.org/2000/svg" xmlns:xlink="http://www.w3.org/1999/xlink" clip-rule="evenodd" stroke-miterlimit="10" viewBox="0 0 1280 720"><desc>SVG generated by Keynote</desc><defs></defs><g transform="matrix(1.00, 0.00, -0.00, -1.00, 0.0, 720.0)"><path d="M 0.0 720.0 L 1280.0 720.0 L 1280.0 0.0 L 0.0 0.0 Z M 0.0 720.0 " fill="#FFFFFF"></path><path d="M 0.0 0.5 L 1114.0 0.5 " fill="none" stroke="#9A9A9A" stroke-width="1.00" transform="matrix(1.00, 0.00, 0.00, -1.00, 83.0, 575.0)"></path><text xml:space="preserve" font-family="HelveticaNeue-Light,Helvetica Neue" font-size="72.0" fill="#000000" transform="matrix(1.00, 0.00, -0.00, -1.00, 84.0, 611.4)">P</text><text xml:space="preserve" font-family="HelveticaNeue-Light,Helvetica Neue" font-size="72.0" fill="#000000" transform="matrix(1.00, 0.00, -0.00, -1.00, 129.4, 611.4)">r</text><text xml:space="preserve" font-family="HelveticaNeue-Light,Helvetica Neue" font-size="72.0" fill="#000000" transform="matrix(1.00, 0.00, -0.00, -1.00, 152.0, 611.4)">i</text><text xml:space="preserve" font-family="HelveticaNeue-Light,Helvetica Neue" font-size="72.0" fill="#000000" transform="matrix(1.00, 0.00, -0.00, -1.00, 165.4, 611.4)">v</text><text xml:space="preserve" font-family="HelveticaNeue-Light,Helvetica Neue" font-size="72.0" fill="#000000" transform="matrix(1.00, 0.00, -0.00, -1.00, 198.7, 611.4)">a</text><text xml:space="preserve" font-family="HelveticaNeue-Light,Helvetica Neue" font-size="72.0" fill="#000000" transform="matrix(1.00, 0.00, -0.00, -1.00, 236.1, 611.4)">c</text><text xml:space="preserve" font-family="HelveticaNeue-Light,Helvetica Neue" font-size="72.0" fill="#000000" transform="matrix(1.00, 0.00, -0.00, -1.00, 273.4, 611.4)">y</text><text xml:space="preserve" font-family="HelveticaNeue-Light,Helvetica Neue" font-size="72.0" fill="#000000" transform="matrix(1.00, 0.00, -0.00, -1.00, 306.8, 611.4)"> </text><text xml:space="preserve" font-family="HelveticaNeue-Light,Helvetica Neue" font-size="72.0" fill="#000000" transform="matrix(1.00, 0.00, -0.00, -1.00, 326.8, 611.4)">A</text><text xml:space="preserve" font-family="HelveticaNeue-Light,Helvetica Neue" font-size="72.0" fill="#000000" transform="matrix(1.00, 0.00, -0.00, -1.00, 372.1, 611.4)">c</text><text xml:space="preserve" font-family="HelveticaNeue-Light,Helvetica Neue" font-size="72.0" fill="#000000" transform="matrix(1.00, 0.00, -0.00, -1.00, 409.5, 611.4)">t</text><text xml:space="preserve" font-family="HelveticaNeue-Light,Helvetica Neue" font-size="72.0" fill="#000000" transform="matrix(1.00, 0.00, -0.00, -1.00, 430.8, 611.4)"> </text><text xml:space="preserve" font-family="HelveticaNeue-Light,Helvetica Neue" font-size="72.0" fill="#000000" transform="matrix(1.00, 0.00, -0.00, -1.00, 450.8, 611.4)">(</text><text xml:space="preserve" font-family="HelveticaNeue-Light,Helvetica Neue" font-size="72.0" fill="#000000" transform="matrix(1.00, 0.00, -0.00, -1.00, 468.2, 611.4)">C</text><text xml:space="preserve" font-family="HelveticaNeue-Light,Helvetica Neue" font-size="72.0" fill="#000000" transform="matrix(1.00, 0.00, -0.00, -1.00, 518.9, 611.4)">a</text><text xml:space="preserve" font-family="HelveticaNeue-Light,Helvetica Neue" font-size="72.0" fill="#000000" transform="matrix(1.00, 0.00, -0.00, -1.00, 556.2, 611.4)">n</text><text xml:space="preserve" font-family="HelveticaNeue-Light,Helvetica Neue" font-size="72.0" fill="#000000" transform="matrix(1.00, 0.00, -0.00, -1.00, 594.9, 611.4)">a</text><text xml:space="preserve" font-family="HelveticaNeue-Light,Helvetica Neue" font-size="72.0" fill="#000000" transform="matrix(1.00, 0.00, -0.00, -1.00, 632.3, 611.4)">d</text><text xml:space="preserve" font-family="HelveticaNeue-Light,Helvetica Neue" font-size="72.0" fill="#000000" transform="matrix(1.00, 0.00, -0.00, -1.00, 673.6, 611.4)">a</text><text xml:space="preserve" font-family="HelveticaNeue-Light,Helvetica Neue" font-size="72.0" fill="#000000" transform="matrix(1.00, 0.00, -0.00, -1.00, 711.0, 611.4)">)</text><g><clipPath id="clip0x7f9747e1d230"><path d="M 83.0 601.4 L 728.3 601.4 L 728.3 607.0 L 83.0 607.0 Z M 83.0 601.4 "></path></clipPath><g clip-path="url(#clip0x7f9747e1d230)"><path d="M 4.0 90.8 L 648.3 90.8 " fill="none" stroke="#000000" stroke-width="3.60" transform="matrix(1.00, 0.00, 0.00, -1.00, 80.0, 695.0)"></path></g></g><text xml:space="preserve" font-family="HelveticaNeue,Helvetica Neue" font-size="48.0" fill="#747474" transform="matrix(1.00, 0.00, -0.00, -1.00, 84.0, 499.6)">I</text><text xml:space="preserve" font-family="HelveticaNeue,Helvetica Neue" font-size="48.0" fill="#747474" transform="matrix(1.00, 0.00, -0.00, -1.00, 96.4, 499.6)">f</text><text xml:space="preserve" font-family="HelveticaNeue,Helvetica Neue" font-size="48.0" fill="#747474" transform="matrix(1.00, 0.00, -0.00, -1.00, 110.6, 499.6)"> </text><text xml:space="preserve" font-family="HelveticaNeue,Helvetica Neue" font-size="48.0" fill="#747474" transform="matrix(1.00, 0.00, -0.00, -1.00, 124.0, 499.6)">t</text><text xml:space="preserve" font-family="HelveticaNeue,Helvetica Neue" font-size="48.0" fill="#747474" transform="matrix(1.00, 0.00, -0.00, -1.00, 139.1, 499.6)">h</text><text xml:space="preserve" font-family="HelveticaNeue,Helvetica Neue" font-size="48.0" fill="#747474" transform="matrix(1.00, 0.00, -0.00, -1.00, 165.8, 499.6)">e</text><text xml:space="preserve" font-family="HelveticaNeue,Helvetica Neue" font-size="48.0" fill="#747474" transform="matrix(1.00, 0.00, -0.00, -1.00, 191.6, 499.6)">s</text><text xml:space="preserve" font-family="HelveticaNeue,Helvetica Neue" font-size="48.0" fill="#747474" transform="matrix(1.00, 0.00, -0.00, -1.00, 215.6, 499.6)">e</text><text xml:space="preserve" font-family="HelveticaNeue,Helvetica Neue" font-size="48.0" fill="#747474" transform="matrix(1.00, 0.00, -0.00, -1.00, 241.3, 499.6)"> </text><text xml:space="preserve" font-family="HelveticaNeue,Helvetica Neue" font-size="48.0" fill="#747474" transform="matrix(1.00, 0.00, -0.00, -1.00, 254.7, 499.6)">i</text><text xml:space="preserve" font-family="HelveticaNeue,Helvetica Neue" font-size="48.0" fill="#747474" transform="matrix(1.00, 0.00, -0.00, -1.00, 265.3, 499.6)">n</text><text xml:space="preserve" font-family="HelveticaNeue,Helvetica Neue" font-size="48.0" fill="#747474" transform="matrix(1.00, 0.00, -0.00, -1.00, 292.0, 499.6)">s</text><text xml:space="preserve" font-family="HelveticaNeue,Helvetica Neue" font-size="48.0" fill="#747474" transform="matrix(1.00, 0.00, -0.00, -1.00, 316.0, 499.6)">t</text><text xml:space="preserve" font-family="HelveticaNeue,Helvetica Neue" font-size="48.0" fill="#747474" transform="matrix(1.00, 0.00, -0.00, -1.00, 331.2, 499.6)">i</text><text xml:space="preserve" font-family="HelveticaNeue,Helvetica Neue" font-size="48.0" fill="#747474" transform="matrix(1.00, 0.00, -0.00, -1.00, 341.8, 499.6)">t</text><text xml:space="preserve" font-family="HelveticaNeue,Helvetica Neue" font-size="48.0" fill="#747474" transform="matrix(1.00, 0.00, -0.00, -1.00, 356.9, 499.6)">u</text><text xml:space="preserve" font-family="HelveticaNeue,Helvetica Neue" font-size="48.0" fill="#747474" transform="matrix(1.00, 0.00, -0.00, -1.00, 383.6, 499.6)">t</text><text xml:space="preserve" font-family="HelveticaNeue,Helvetica Neue" font-size="48.0" fill="#747474" transform="matrix(1.00, 0.00, -0.00, -1.00, 398.7, 499.6)">i</text><text xml:space="preserve" font-family="HelveticaNeue,Helvetica Neue" font-size="48.0" fill="#747474" transform="matrix(1.00, 0.00, -0.00, -1.00, 409.4, 499.6)">o</text><text xml:space="preserve" font-family="HelveticaNeue,Helvetica Neue" font-size="48.0" fill="#747474" transform="matrix(1.00, 0.00, -0.00, -1.00, 436.9, 499.6)">n</text><text xml:space="preserve" font-family="HelveticaNeue,Helvetica Neue" font-size="48.0" fill="#747474" transform="matrix(1.00, 0.00, -0.00, -1.00, 463.6, 499.6)">s</text><text xml:space="preserve" font-family="HelveticaNeue,Helvetica Neue" font-size="48.0" fill="#747474" transform="matrix(1.00, 0.00, -0.00, -1.00, 487.6, 499.6)"> </text><text xml:space="preserve" font-family="HelveticaNeue,Helvetica Neue" font-size="48.0" fill="#747474" transform="matrix(1.00, 0.00, -0.00, -1.00, 501.0, 499.6)">a</text><text xml:space="preserve" font-family="HelveticaNeue,Helvetica Neue" font-size="48.0" fill="#747474" transform="matrix(1.00, 0.00, -0.00, -1.00, 526.8, 499.6)">s</text><text xml:space="preserve" font-family="HelveticaNeue,Helvetica Neue" font-size="48.0" fill="#747474" transform="matrix(1.00, 0.00, -0.00, -1.00, 550.8, 499.6)">k</text><text xml:space="preserve" font-family="HelveticaNeue,Helvetica Neue" font-size="48.0" fill="#747474" transform="matrix(1.00, 0.00, -0.00, -1.00, 575.7, 499.6)"> </text><text xml:space="preserve" font-family="HelveticaNeue,Helvetica Neue" font-size="48.0" fill="#747474" transform="matrix(1.00, 0.00, -0.00, -1.00, 589.0, 499.6)">f</text><text xml:space="preserve" font-family="HelveticaNeue,Helvetica Neue" font-size="48.0" fill="#747474" transform="matrix(1.00, 0.00, -0.00, -1.00, 603.2, 499.6)">o</text><text xml:space="preserve" font-family="HelveticaNeue,Helvetica Neue" font-size="48.0" fill="#747474" transform="matrix(1.00, 0.00, -0.00, -1.00, 630.8, 499.6)">r</text><text xml:space="preserve" font-family="HelveticaNeue,Helvetica Neue" font-size="48.0" fill="#747474" transform="matrix(1.00, 0.00, -0.00, -1.00, 646.8, 499.6)"> </text><text xml:space="preserve" font-family="HelveticaNeue,Helvetica Neue" font-size="48.0" fill="#747474" transform="matrix(1.00, 0.00, -0.00, -1.00, 660.1, 499.6)">y</text><text xml:space="preserve" font-family="HelveticaNeue,Helvetica Neue" font-size="48.0" fill="#747474" transform="matrix(1.00, 0.00, -0.00, -1.00, 684.1, 499.6)">o</text><text xml:space="preserve" font-family="HelveticaNeue,Helvetica Neue" font-size="48.0" fill="#747474" transform="matrix(1.00, 0.00, -0.00, -1.00, 711.6, 499.6)">u</text><text xml:space="preserve" font-family="HelveticaNeue,Helvetica Neue" font-size="48.0" fill="#747474" transform="matrix(1.00, 0.00, -0.00, -1.00, 738.3, 499.6)">r</text><text xml:space="preserve" font-family="HelveticaNeue,Helvetica Neue" font-size="48.0" fill="#747474" transform="matrix(1.00, 0.00, -0.00, -1.00, 754.3, 499.6)"> </text><text xml:space="preserve" font-family="HelveticaNeue,Helvetica Neue" font-size="48.0" fill="#747474" transform="matrix(1.00, 0.00, -0.00, -1.00, 767.7, 499.6)">i</text><text xml:space="preserve" font-family="HelveticaNeue,Helvetica Neue" font-size="48.0" fill="#747474" transform="matrix(1.00, 0.00, -0.00, -1.00, 778.3, 499.6)">n</text><text xml:space="preserve" font-family="HelveticaNeue,Helvetica Neue" font-size="48.0" fill="#747474" transform="matrix(1.00, 0.00, -0.00, -1.00, 805.0, 499.6)">f</text><text xml:space="preserve" font-family="HelveticaNeue,Helvetica Neue" font-size="48.0" fill="#747474" transform="matrix(1.00, 0.00, -0.00, -1.00, 819.2, 499.6)">o</text><text xml:space="preserve" font-family="HelveticaNeue,Helvetica Neue" font-size="48.0" fill="#747474" transform="matrix(1.00, 0.00, -0.00, -1.00, 846.8, 499.6)">r</text><text xml:space="preserve" font-family="HelveticaNeue,Helvetica Neue" font-size="48.0" fill="#747474" transform="matrix(1.00, 0.00, -0.00, -1.00, 862.8, 499.6)">m</text><text xml:space="preserve" font-family="HelveticaNeue,Helvetica Neue" font-size="48.0" fill="#747474" transform="matrix(1.00, 0.00, -0.00, -1.00, 903.7, 499.6)">a</text><text xml:space="preserve" font-family="HelveticaNeue,Helvetica Neue" font-size="48.0" fill="#747474" transform="matrix(1.00, 0.00, -0.00, -1.00, 929.5, 499.6)">t</text><text xml:space="preserve" font-family="HelveticaNeue,Helvetica Neue" font-size="48.0" fill="#747474" transform="matrix(1.00, 0.00, -0.00, -1.00, 944.6, 499.6)">i</text><text xml:space="preserve" font-family="HelveticaNeue,Helvetica Neue" font-size="48.0" fill="#747474" transform="matrix(1.00, 0.00, -0.00, -1.00, 955.2, 499.6)">o</text><text xml:space="preserve" font-family="HelveticaNeue,Helvetica Neue" font-size="48.0" fill="#747474" transform="matrix(1.00, 0.00, -0.00, -1.00, 982.8, 499.6)">n</text><text xml:space="preserve" font-family="HelveticaNeue,Helvetica Neue" font-size="48.0" fill="#747474" transform="matrix(1.00, 0.00, -0.00, -1.00, 1009.5, 499.6)">,</text><text xml:space="preserve" font-family="HelveticaNeue,Helvetica Neue" font-size="48.0" fill="#747474" transform="matrix(1.00, 0.00, -0.00, -1.00, 1022.8, 499.6)"> </text><text xml:space="preserve" font-family="HelveticaNeue,Helvetica Neue" font-size="48.0" fill="#747474" transform="matrix(1.00, 0.00, -0.00, -1.00, 1036.2, 499.6)">t</text><text xml:space="preserve" font-family="HelveticaNeue,Helvetica Neue" font-size="48.0" fill="#747474" transform="matrix(1.00, 0.00, -0.00, -1.00, 1051.3, 499.6)">h</text><text xml:space="preserve" font-family="HelveticaNeue,Helvetica Neue" font-size="48.0" fill="#747474" transform="matrix(1.00, 0.00, -0.00, -1.00, 1078.0, 499.6)">e</text><text xml:space="preserve" font-family="HelveticaNeue,Helvetica Neue" font-size="48.0" fill="#747474" transform="matrix(1.00, 0.00, -0.00, -1.00, 1103.8, 499.6)">y</text><text xml:space="preserve" font-family="HelveticaNeue,Helvetica Neue" font-size="48.0" fill="#747474" transform="matrix(1.00, 0.00, -0.00, -1.00, 1127.8, 499.6)"> </text><text xml:space="preserve" font-family="HelveticaNeue,Helvetica Neue" font-size="48.0" fill="#747474" transform="matrix(1.00, 0.00, -0.00, -1.00, 84.0, 442.6)">h</text><text xml:space="preserve" font-family="HelveticaNeue,Helvetica Neue" font-size="48.0" fill="#747474" transform="matrix(1.00, 0.00, -0.00, -1.00, 110.7, 442.6)">a</text><text xml:space="preserve" font-family="HelveticaNeue,Helvetica Neue" font-size="48.0" fill="#747474" transform="matrix(1.00, 0.00, -0.00, -1.00, 136.5, 442.6)">v</text><text xml:space="preserve" font-family="HelveticaNeue,Helvetica Neue" font-size="48.0" fill="#747474" transform="matrix(1.00, 0.00, -0.00, -1.00, 160.5, 442.6)">e</text><text xml:space="preserve" font-family="HelveticaNeue,Helvetica Neue" font-size="48.0" fill="#747474" transform="matrix(1.00, 0.00, -0.00, -1.00, 186.2, 442.6)"> </text><text xml:space="preserve" font-family="HelveticaNeue,Helvetica Neue" font-size="48.0" fill="#747474" transform="matrix(1.00, 0.00, -0.00, -1.00, 199.6, 442.6)">t</text><text xml:space="preserve" font-family="HelveticaNeue,Helvetica Neue" font-size="48.0" fill="#747474" transform="matrix(1.00, 0.00, -0.00, -1.00, 214.7, 442.6)">o</text><text xml:space="preserve" font-family="HelveticaNeue,Helvetica Neue" font-size="48.0" fill="#747474" transform="matrix(1.00, 0.00, -0.00, -1.00, 242.3, 442.6)"> </text><text xml:space="preserve" font-family="HelveticaNeue,Helvetica Neue" font-size="48.0" fill="#747474" transform="matrix(1.00, 0.00, -0.00, -1.00, 255.6, 442.6)">t</text><text xml:space="preserve" font-family="HelveticaNeue,Helvetica Neue" font-size="48.0" fill="#747474" transform="matrix(1.00, 0.00, -0.00, -1.00, 270.7, 442.6)">e</text><text xml:space="preserve" font-family="HelveticaNeue,Helvetica Neue" font-size="48.0" fill="#747474" transform="matrix(1.00, 0.00, -0.00, -1.00, 296.5, 442.6)">l</text><text xml:space="preserve" font-family="HelveticaNeue,Helvetica Neue" font-size="48.0" fill="#747474" transform="matrix(1.00, 0.00, -0.00, -1.00, 307.2, 442.6)">l</text><text xml:space="preserve" font-family="HelveticaNeue,Helvetica Neue" font-size="48.0" fill="#747474" transform="matrix(1.00, 0.00, -0.00, -1.00, 317.8, 442.6)"> </text><text xml:space="preserve" font-family="HelveticaNeue,Helvetica Neue" font-size="48.0" fill="#747474" transform="matrix(1.00, 0.00, -0.00, -1.00, 331.2, 442.6)">y</text><text xml:space="preserve" font-family="HelveticaNeue,Helvetica Neue" font-size="48.0" fill="#747474" transform="matrix(1.00, 0.00, -0.00, -1.00, 355.2, 442.6)">o</text><text xml:space="preserve" font-family="HelveticaNeue,Helvetica Neue" font-size="48.0" fill="#747474" transform="matrix(1.00, 0.00, -0.00, -1.00, 382.7, 442.6)">u</text><text xml:space="preserve" font-family="HelveticaNeue,Helvetica Neue" font-size="48.0" fill="#747474" transform="matrix(1.00, 0.00, -0.00, -1.00, 409.4, 442.6)"> </text><text xml:space="preserve" font-family="HelveticaNeue,Helvetica Neue" font-size="48.0" fill="#747474" transform="matrix(1.00, 0.00, -0.00, -1.00, 422.7, 442.6)">w</text><text xml:space="preserve" font-family="HelveticaNeue,Helvetica Neue" font-size="48.0" fill="#747474" transform="matrix(1.00, 0.00, -0.00, -1.00, 459.1, 442.6)">h</text><text xml:space="preserve" font-family="HelveticaNeue,Helvetica Neue" font-size="48.0" fill="#747474" transform="matrix(1.00, 0.00, -0.00, -1.00, 485.8, 442.6)">a</text><text xml:space="preserve" font-family="HelveticaNeue,Helvetica Neue" font-size="48.0" fill="#747474" transform="matrix(1.00, 0.00, -0.00, -1.00, 511.6, 442.6)">t</text><text xml:space="preserve" font-family="HelveticaNeue,Helvetica Neue" font-size="48.0" fill="#747474" transform="matrix(1.00, 0.00, -0.00, -1.00, 526.7, 442.6)"> </text><text xml:space="preserve" font-family="HelveticaNeue,Helvetica Neue" font-size="48.0" fill="#747474" transform="matrix(1.00, 0.00, -0.00, -1.00, 540.0, 442.6)">i</text><text xml:space="preserve" font-family="HelveticaNeue,Helvetica Neue" font-size="48.0" fill="#747474" transform="matrix(1.00, 0.00, -0.00, -1.00, 550.7, 442.6)">t</text><text xml:space="preserve" font-family="HelveticaNeue,Helvetica Neue" font-size="48.0" fill="#747474" transform="matrix(1.00, 0.00, -0.00, -1.00, 565.8, 442.6)">’</text><text xml:space="preserve" font-family="HelveticaNeue,Helvetica Neue" font-size="48.0" fill="#747474" transform="matrix(1.00, 0.00, -0.00, -1.00, 575.6, 442.6)">s</text><text xml:space="preserve" font-family="HelveticaNeue,Helvetica Neue" font-size="48.0" fill="#747474" transform="matrix(1.00, 0.00, -0.00, -1.00, 599.6, 442.6)"> </text><text xml:space="preserve" font-family="HelveticaNeue,Helvetica Neue" font-size="48.0" fill="#747474" transform="matrix(1.00, 0.00, -0.00, -1.00, 613.0, 442.6)">g</text><text xml:space="preserve" font-family="HelveticaNeue,Helvetica Neue" font-size="48.0" fill="#747474" transform="matrix(1.00, 0.00, -0.00, -1.00, 640.5, 442.6)">o</text><text xml:space="preserve" font-family="HelveticaNeue,Helvetica Neue" font-size="48.0" fill="#747474" transform="matrix(1.00, 0.00, -0.00, -1.00, 668.1, 442.6)">i</text><text xml:space="preserve" font-family="HelveticaNeue,Helvetica Neue" font-size="48.0" fill="#747474" transform="matrix(1.00, 0.00, -0.00, -1.00, 678.7, 442.6)">n</text><text xml:space="preserve" font-family="HelveticaNeue,Helvetica Neue" font-size="48.0" fill="#747474" transform="matrix(1.00, 0.00, -0.00, -1.00, 705.4, 442.6)">g</text><text xml:space="preserve" font-family="HelveticaNeue,Helvetica Neue" font-size="48.0" fill="#747474" transform="matrix(1.00, 0.00, -0.00, -1.00, 733.0, 442.6)"> </text><text xml:space="preserve" font-family="HelveticaNeue,Helvetica Neue" font-size="48.0" fill="#747474" transform="matrix(1.00, 0.00, -0.00, -1.00, 746.3, 442.6)">t</text><text xml:space="preserve" font-family="HelveticaNeue,Helvetica Neue" font-size="48.0" fill="#747474" transform="matrix(1.00, 0.00, -0.00, -1.00, 761.4, 442.6)">o</text><text xml:space="preserve" font-family="HelveticaNeue,Helvetica Neue" font-size="48.0" fill="#747474" transform="matrix(1.00, 0.00, -0.00, -1.00, 789.0, 442.6)"> </text><text xml:space="preserve" font-family="HelveticaNeue,Helvetica Neue" font-size="48.0" fill="#747474" transform="matrix(1.00, 0.00, -0.00, -1.00, 802.3, 442.6)">b</text><text xml:space="preserve" font-family="HelveticaNeue,Helvetica Neue" font-size="48.0" fill="#747474" transform="matrix(1.00, 0.00, -0.00, -1.00, 830.8, 442.6)">e</text><text xml:space="preserve" font-family="HelveticaNeue,Helvetica Neue" font-size="48.0" fill="#747474" transform="matrix(1.00, 0.00, -0.00, -1.00, 856.6, 442.6)"> </text><text xml:space="preserve" font-family="HelveticaNeue,Helvetica Neue" font-size="48.0" fill="#747474" transform="matrix(1.00, 0.00, -0.00, -1.00, 869.9, 442.6)">u</text><text xml:space="preserve" font-family="HelveticaNeue,Helvetica Neue" font-size="48.0" fill="#747474" transform="matrix(1.00, 0.00, -0.00, -1.00, 896.6, 442.6)">s</text><text xml:space="preserve" font-family="HelveticaNeue,Helvetica Neue" font-size="48.0" fill="#747474" transform="matrix(1.00, 0.00, -0.00, -1.00, 920.6, 442.6)">e</text><text xml:space="preserve" font-family="HelveticaNeue,Helvetica Neue" font-size="48.0" fill="#747474" transform="matrix(1.00, 0.00, -0.00, -1.00, 946.4, 442.6)">d</text><text xml:space="preserve" font-family="HelveticaNeue,Helvetica Neue" font-size="48.0" fill="#747474" transform="matrix(1.00, 0.00, -0.00, -1.00, 974.8, 442.6)"> </text><text xml:space="preserve" font-family="HelveticaNeue,Helvetica Neue" font-size="48.0" fill="#747474" transform="matrix(1.00, 0.00, -0.00, -1.00, 988.2, 442.6)">f</text><text xml:space="preserve" font-family="HelveticaNeue,Helvetica Neue" font-size="48.0" fill="#747474" transform="matrix(1.00, 0.00, -0.00, -1.00, 1002.4, 442.6)">o</text><text xml:space="preserve" font-family="HelveticaNeue,Helvetica Neue" font-size="48.0" fill="#747474" transform="matrix(1.00, 0.00, -0.00, -1.00, 1029.9, 442.6)">r</text><text xml:space="preserve" font-family="HelveticaNeue,Helvetica Neue" font-size="48.0" fill="#747474" transform="matrix(1.00, 0.00, -0.00, -1.00, 1041.5, 442.6)">.</text><path d="M 165.0 357.0 C 154.0 357.0 145.0 348.0 145.0 337.0 L 145.0 317.0 L 95.0 307.0 L 145.0 297.0 L 145.0 196.0 C 145.0 185.0 154.0 176.0 165.0 176.0 L 547.0 176.0 C 558.0 176.0 567.0 185.0 567.0 196.0 L 567.0 337.0 C 567.0 348.0 558.0 357.0 547.0 357.0 L 165.0 357.0 Z M 165.0 357.0 " fill="#CACACA"></path><path d="M 20.0 0.0 C 9.0 0.0 0.0 9.0 0.0 20.0 L 0.0 40.0 L -50.0 50.0 L 0.0 60.0 L 0.0 161.0 C 0.0 172.0 9.0 181.0 20.0 181.0 L 402.0 181.0 C 413.0 181.0 422.0 172.0 422.0 161.0 L 422.0 20.0 C 422.0 9.0 413.0 0.0 402.0 0.0 L 20.0 0.0 Z M 20.0 0.0 " fill="none" stroke="#000000" stroke-width="2.00" transform="matrix(1.00, 0.00, 0.00, -1.00, 145.0, 357.0)"></path><g><clipPath id="clip0x7f9747ea2750"><path d="M 140.6 176.0 L 571.4 176.0 L 571.4 357.0 L 140.6 357.0 Z M 140.6 176.0 "></path></clipPath><g clip-path="url(#clip0x7f9747ea2750)"><text xml:space="preserve" font-family="HelveticaNeue-Light,Helvetica Neue" font-size="32.0" fill="#000000" transform="matrix(1.00, 0.00, -0.00, -1.00, 185.0, 274.4)">G</text><text xml:space="preserve" font-family="HelveticaNeue-Light,Helvetica Neue" font-size="32.0" fill="#000000" transform="matrix(1.00, 0.00, -0.00, -1.00, 208.7, 274.4)">i</text><text xml:space="preserve" font-family="HelveticaNeue-Light,Helvetica Neue" font-size="32.0" fill="#000000" transform="matrix(1.00, 0.00, -0.00, -1.00, 214.6, 274.4)">v</text><text xml:space="preserve" font-family="HelveticaNeue-Light,Helvetica Neue" font-size="32.0" fill="#000000" transform="matrix(1.00, 0.00, -0.00, -1.00, 229.5, 274.4)">e</text><text xml:space="preserve" font-family="HelveticaNeue-Light,Helvetica Neue" font-size="32.0" fill="#000000" transform="matrix(1.00, 0.00, -0.00, -1.00, 246.1, 274.4)"> </text><text xml:space="preserve" font-family="HelveticaNeue-Light,Helvetica Neue" font-size="32.0" fill="#000000" transform="matrix(1.00, 0.00, -0.00, -1.00, 255.0, 274.4)">u</text><text xml:space="preserve" font-family="HelveticaNeue-Light,Helvetica Neue" font-size="32.0" fill="#000000" transform="matrix(1.00, 0.00, -0.00, -1.00, 272.1, 274.4)">s</text><text xml:space="preserve" font-family="HelveticaNeue-Light,Helvetica Neue" font-size="32.0" fill="#000000" transform="matrix(1.00, 0.00, -0.00, -1.00, 287.5, 274.4)"> </text><text xml:space="preserve" font-family="HelveticaNeue-Light,Helvetica Neue" font-size="32.0" fill="#000000" transform="matrix(1.00, 0.00, -0.00, -1.00, 296.4, 274.4)">y</text><text xml:space="preserve" font-family="HelveticaNeue-Light,Helvetica Neue" font-size="32.0" fill="#000000" transform="matrix(1.00, 0.00, -0.00, -1.00, 311.2, 274.4)">o</text><text xml:space="preserve" font-family="HelveticaNeue-Light,Helvetica Neue" font-size="32.0" fill="#000000" transform="matrix(1.00, 0.00, -0.00, -1.00, 329.0, 274.4)">u</text><text xml:space="preserve" font-family="HelveticaNeue-Light,Helvetica Neue" font-size="32.0" fill="#000000" transform="matrix(1.00, 0.00, -0.00, -1.00, 346.2, 274.4)">r</text><text xml:space="preserve" font-family="HelveticaNeue-Light,Helvetica Neue" font-size="32.0" fill="#000000" transform="matrix(1.00, 0.00, -0.00, -1.00, 356.3, 274.4)"> </text><text xml:space="preserve" font-family="HelveticaNeue-Light,Helvetica Neue" font-size="32.0" fill="#000000" transform="matrix(1.00, 0.00, -0.00, -1.00, 365.2, 274.4)">i</text><text xml:space="preserve" font-family="HelveticaNeue-Light,Helvetica Neue" font-size="32.0" fill="#000000" transform="matrix(1.00, 0.00, -0.00, -1.00, 371.1, 274.4)">n</text><text xml:space="preserve" font-family="HelveticaNeue-Light,Helvetica Neue" font-size="32.0" fill="#000000" transform="matrix(1.00, 0.00, -0.00, -1.00, 388.3, 274.4)">f</text><text xml:space="preserve" font-family="HelveticaNeue-Light,Helvetica Neue" font-size="32.0" fill="#000000" transform="matrix(1.00, 0.00, -0.00, -1.00, 396.6, 274.4)">o</text><text xml:space="preserve" font-family="HelveticaNeue-Light,Helvetica Neue" font-size="32.0" fill="#000000" transform="matrix(1.00, 0.00, -0.00, -1.00, 414.4, 274.4)">r</text><text xml:space="preserve" font-family="HelveticaNeue-Light,Helvetica Neue" font-size="32.0" fill="#000000" transform="matrix(1.00, 0.00, -0.00, -1.00, 424.5, 274.4)">m</text><text xml:space="preserve" font-family="HelveticaNeue-Light,Helvetica Neue" font-size="32.0" fill="#000000" transform="matrix(1.00, 0.00, -0.00, -1.00, 451.1, 274.4)">a</text><text xml:space="preserve" font-family="HelveticaNeue-Light,Helvetica Neue" font-size="32.0" fill="#000000" transform="matrix(1.00, 0.00, -0.00, -1.00, 467.7, 274.4)">t</text><text xml:space="preserve" font-family="HelveticaNeue-Light,Helvetica Neue" font-size="32.0" fill="#000000" transform="matrix(1.00, 0.00, -0.00, -1.00, 477.2, 274.4)">i</text><text xml:space="preserve" font-family="HelveticaNeue-Light,Helvetica Neue" font-size="32.0" fill="#000000" transform="matrix(1.00, 0.00, -0.00, -1.00, 483.1, 274.4)">o</text><text xml:space="preserve" font-family="HelveticaNeue-Light,Helvetica Neue" font-size="32.0" fill="#000000" transform="matrix(1.00, 0.00, -0.00, -1.00, 500.9, 274.4)">n</text><text xml:space="preserve" font-family="HelveticaNeue-Light,Helvetica Neue" font-size="32.0" fill="#000000" transform="matrix(1.00, 0.00, -0.00, -1.00, 518.1, 274.4)">,</text><text xml:space="preserve" font-family="HelveticaNeue-Light,Helvetica Neue" font-size="32.0" fill="#000000" transform="matrix(1.00, 0.00, -0.00, -1.00, 527.0, 274.4)"> </text><text xml:space="preserve" font-family="HelveticaNeue-Light,Helvetica Neue" font-size="32.0" fill="#000000" transform="matrix(1.00, 0.00, -0.00, -1.00, 263.2, 235.4)">p</text><text xml:space="preserve" font-family="HelveticaNeue-Light,Helvetica Neue" font-size="32.0" fill="#000000" transform="matrix(1.00, 0.00, -0.00, -1.00, 281.6, 235.4)">r</text><text xml:space="preserve" font-family="HelveticaNeue-Light,Helvetica Neue" font-size="32.0" fill="#000000" transform="matrix(1.00, 0.00, -0.00, -1.00, 291.1, 235.4)">e</text><text xml:space="preserve" font-family="HelveticaNeue-Light,Helvetica Neue" font-size="32.0" fill="#000000" transform="matrix(1.00, 0.00, -0.00, -1.00, 307.7, 235.4)">t</text><text xml:space="preserve" font-family="HelveticaNeue-Light,Helvetica Neue" font-size="32.0" fill="#000000" transform="matrix(1.00, 0.00, -0.00, -1.00, 317.2, 235.4)">t</text><text xml:space="preserve" font-family="HelveticaNeue-Light,Helvetica Neue" font-size="32.0" fill="#000000" transform="matrix(1.00, 0.00, -0.00, -1.00, 326.7, 235.4)">y</text><text xml:space="preserve" font-family="HelveticaNeue-Light,Helvetica Neue" font-size="32.0" fill="#000000" transform="matrix(1.00, 0.00, -0.00, -1.00, 341.5, 235.4)"> </text><text xml:space="preserve" font-family="HelveticaNeue-Light,Helvetica Neue" font-size="32.0" fill="#000000" transform="matrix(1.00, 0.00, -0.00, -1.00, 350.4, 235.4)">p</text><text xml:space="preserve" font-family="HelveticaNeue-Light,Helvetica Neue" font-size="32.0" fill="#000000" transform="matrix(1.00, 0.00, -0.00, -1.00, 368.7, 235.4)">l</text><text xml:space="preserve" font-family="HelveticaNeue-Light,Helvetica Neue" font-size="32.0" fill="#000000" transform="matrix(1.00, 0.00, -0.00, -1.00, 374.7, 235.4)">e</text><text xml:space="preserve" font-family="HelveticaNeue-Light,Helvetica Neue" font-size="32.0" fill="#000000" transform="matrix(1.00, 0.00, -0.00, -1.00, 391.3, 235.4)">a</text><text xml:space="preserve" font-family="HelveticaNeue-Light,Helvetica Neue" font-size="32.0" fill="#000000" transform="matrix(1.00, 0.00, -0.00, -1.00, 407.9, 235.4)">s</text><text xml:space="preserve" font-family="HelveticaNeue-Light,Helvetica Neue" font-size="32.0" fill="#000000" transform="matrix(1.00, 0.00, -0.00, -1.00, 423.3, 235.4)">e</text><text xml:space="preserve" font-family="HelveticaNeue-Light,Helvetica Neue" font-size="32.0" fill="#000000" transform="matrix(1.00, 0.00, -0.00, -1.00, 439.9, 235.4)">.</text></g></g><path d="M 791.0 290.0 C 780.0 290.0 771.0 281.0 771.0 270.0 L 771.0 129.0 C 771.0 118.0 780.0 109.0 791.0 109.0 L 1095.0 109.0 C 1106.0 109.0 1115.0 118.0 1115.0 129.0 L 1115.0 238.7 L 1168.9 248.7 L 1115.0 258.7 L 1115.0 270.0 C 1115.0 281.0 1106.0 290.0 1095.0 290.0 L 791.0 290.0 Z M 791.0 290.0 " fill="#CACACA"></path><path d="M 20.0 0.0 C 9.0 0.0 0.0 9.0 0.0 20.0 L 0.0 161.0 C 0.0 172.0 9.0 181.0 20.0 181.0 L 324.0 181.0 C 335.0 181.0 344.0 172.0 344.0 161.0 L 344.0 51.3 L 397.9 41.3 L 344.0 31.3 L 344.0 20.0 C 344.0 9.0 335.0 0.0 324.0 0.0 L 20.0 0.0 Z M 20.0 0.0 " fill="none" stroke="#000000" stroke-width="2.00" transform="matrix(1.00, 0.00, 0.00, -1.00, 771.0, 290.0)"></path><g><clipPath id="clip0x7f9747d7fa80"><path d="M 766.6 109.0 L 1119.4 109.0 L 1119.4 290.0 L 766.6 290.0 Z M 766.6 109.0 "></path></clipPath><g clip-path="url(#clip0x7f9747d7fa80)"><text xml:space="preserve" font-family="HelveticaNeue-Light,Helvetica Neue" font-size="32.0" fill="#000000" transform="matrix(1.00, 0.00, -0.00, -1.00, 810.8, 207.4)">T</text><text xml:space="preserve" font-family="HelveticaNeue-Light,Helvetica Neue" font-size="32.0" fill="#000000" transform="matrix(1.00, 0.00, -0.00, -1.00, 825.0, 207.4)">e</text><text xml:space="preserve" font-family="HelveticaNeue-Light,Helvetica Neue" font-size="32.0" fill="#000000" transform="matrix(1.00, 0.00, -0.00, -1.00, 841.6, 207.4)">l</text><text xml:space="preserve" font-family="HelveticaNeue-Light,Helvetica Neue" font-size="32.0" fill="#000000" transform="matrix(1.00, 0.00, -0.00, -1.00, 847.6, 207.4)">l</text><text xml:space="preserve" font-family="HelveticaNeue-Light,Helvetica Neue" font-size="32.0" fill="#000000" transform="matrix(1.00, 0.00, -0.00, -1.00, 853.5, 207.4)"> </text><text xml:space="preserve" font-family="HelveticaNeue-Light,Helvetica Neue" font-size="32.0" fill="#000000" transform="matrix(1.00, 0.00, -0.00, -1.00, 862.4, 207.4)">m</text><text xml:space="preserve" font-family="HelveticaNeue-Light,Helvetica Neue" font-size="32.0" fill="#000000" transform="matrix(1.00, 0.00, -0.00, -1.00, 889.0, 207.4)">e</text><text xml:space="preserve" font-family="HelveticaNeue-Light,Helvetica Neue" font-size="32.0" fill="#000000" transform="matrix(1.00, 0.00, -0.00, -1.00, 905.6, 207.4)"> </text><text xml:space="preserve" font-family="HelveticaNeue-Light,Helvetica Neue" font-size="32.0" fill="#000000" transform="matrix(1.00, 0.00, -0.00, -1.00, 914.5, 207.4)">w</text><text xml:space="preserve" font-family="HelveticaNeue-Light,Helvetica Neue" font-size="32.0" fill="#000000" transform="matrix(1.00, 0.00, -0.00, -1.00, 938.2, 207.4)">h</text><text xml:space="preserve" font-family="HelveticaNeue-Light,Helvetica Neue" font-size="32.0" fill="#000000" transform="matrix(1.00, 0.00, -0.00, -1.00, 955.4, 207.4)">a</text><text xml:space="preserve" font-family="HelveticaNeue-Light,Helvetica Neue" font-size="32.0" fill="#000000" transform="matrix(1.00, 0.00, -0.00, -1.00, 972.0, 207.4)">t</text><text xml:space="preserve" font-family="HelveticaNeue-Light,Helvetica Neue" font-size="32.0" fill="#000000" transform="matrix(1.00, 0.00, -0.00, -1.00, 981.5, 207.4)"> </text><text xml:space="preserve" font-family="HelveticaNeue-Light,Helvetica Neue" font-size="32.0" fill="#000000" transform="matrix(1.00, 0.00, -0.00, -1.00, 990.4, 207.4)">y</text><text xml:space="preserve" font-family="HelveticaNeue-Light,Helvetica Neue" font-size="32.0" fill="#000000" transform="matrix(1.00, 0.00, -0.00, -1.00, 1005.2, 207.4)">o</text><text xml:space="preserve" font-family="HelveticaNeue-Light,Helvetica Neue" font-size="32.0" fill="#000000" transform="matrix(1.00, 0.00, -0.00, -1.00, 1023.0, 207.4)">u</text><text xml:space="preserve" font-family="HelveticaNeue-Light,Helvetica Neue" font-size="32.0" fill="#000000" transform="matrix(1.00, 0.00, -0.00, -1.00, 1040.2, 207.4)">’</text><text xml:space="preserve" font-family="HelveticaNeue-Light,Helvetica Neue" font-size="32.0" fill="#000000" transform="matrix(1.00, 0.00, -0.00, -1.00, 1049.1, 207.4)">r</text><text xml:space="preserve" font-family="HelveticaNeue-Light,Helvetica Neue" font-size="32.0" fill="#000000" transform="matrix(1.00, 0.00, -0.00, -1.00, 1058.6, 207.4)">e</text><text xml:space="preserve" font-family="HelveticaNeue-Light,Helvetica Neue" font-size="32.0" fill="#000000" transform="matrix(1.00, 0.00, -0.00, -1.00, 1075.2, 207.4)"> </text><text xml:space="preserve" font-family="HelveticaNeue-Light,Helvetica Neue" font-size="32.0" fill="#000000" transform="matrix(1.00, 0.00, -0.00, -1.00, 826.3, 168.4)">d</text><text xml:space="preserve" font-family="HelveticaNeue-Light,Helvetica Neue" font-size="32.0" fill="#000000" transform="matrix(1.00, 0.00, -0.00, -1.00, 844.6, 168.4)">o</text><text xml:space="preserve" font-family="HelveticaNeue-Light,Helvetica Neue" font-size="32.0" fill="#000000" transform="matrix(1.00, 0.00, -0.00, -1.00, 862.4, 168.4)">i</text><text xml:space="preserve" font-family="HelveticaNeue-Light,Helvetica Neue" font-size="32.0" fill="#000000" transform="matrix(1.00, 0.00, -0.00, -1.00, 868.3, 168.4)">n</text><text xml:space="preserve" font-family="HelveticaNeue-Light,Helvetica Neue" font-size="32.0" fill="#000000" transform="matrix(1.00, 0.00, -0.00, -1.00, 885.5, 168.4)">g</text><text xml:space="preserve" font-family="HelveticaNeue-Light,Helvetica Neue" font-size="32.0" fill="#000000" transform="matrix(1.00, 0.00, -0.00, -1.00, 903.3, 168.4)"> </text><text xml:space="preserve" font-family="HelveticaNeue-Light,Helvetica Neue" font-size="32.0" fill="#000000" transform="matrix(1.00, 0.00, -0.00, -1.00, 912.2, 168.4)">w</text><text xml:space="preserve" font-family="HelveticaNeue-Light,Helvetica Neue" font-size="32.0" fill="#000000" transform="matrix(1.00, 0.00, -0.00, -1.00, 935.9, 168.4)">i</text><text xml:space="preserve" font-family="HelveticaNeue-Light,Helvetica Neue" font-size="32.0" fill="#000000" transform="matrix(1.00, 0.00, -0.00, -1.00, 941.8, 168.4)">t</text><text xml:space="preserve" font-family="HelveticaNeue-Light,Helvetica Neue" font-size="32.0" fill="#000000" transform="matrix(1.00, 0.00, -0.00, -1.00, 951.3, 168.4)">h</text><text xml:space="preserve" font-family="HelveticaNeue-Light,Helvetica Neue" font-size="32.0" fill="#000000" transform="matrix(1.00, 0.00, -0.00, -1.00, 968.5, 168.4)"> </text><text xml:space="preserve" font-family="HelveticaNeue-Light,Helvetica Neue" font-size="32.0" fill="#000000" transform="matrix(1.00, 0.00, -0.00, -1.00, 977.4, 168.4)">i</text><text xml:space="preserve" font-family="HelveticaNeue-Light,Helvetica Neue" font-size="32.0" fill="#000000" transform="matrix(1.00, 0.00, -0.00, -1.00, 983.3, 168.4)">t</text><text xml:space="preserve" font-family="HelveticaNeue-Light,Helvetica Neue" font-size="32.0" fill="#000000" transform="matrix(1.00, 0.00, -0.00, -1.00, 992.8, 168.4)"> </text><text xml:space="preserve" font-family="HelveticaNeue-Light,Helvetica Neue" font-size="32.0" fill="#000000" transform="matrix(1.00, 0.00, -0.00, -1.00, 1001.7, 168.4)">ﬁ</text><text xml:space="preserve" font-family="HelveticaNeue-Light,Helvetica Neue" font-size="32.0" fill="#000000" transform="matrix(1.00, 0.00, -0.00, -1.00, 1015.9, 168.4)">r</text><text xml:space="preserve" font-family="HelveticaNeue-Light,Helvetica Neue" font-size="32.0" fill="#000000" transform="matrix(1.00, 0.00, -0.00, -1.00, 1026.0, 168.4)">s</text><text xml:space="preserve" font-family="HelveticaNeue-Light,Helvetica Neue" font-size="32.0" fill="#000000" transform="matrix(1.00, 0.00, -0.00, -1.00, 1041.4, 168.4)">t</text><text xml:space="preserve" font-family="HelveticaNeue-Light,Helvetica Neue" font-size="32.0" fill="#000000" transform="matrix(1.00, 0.00, -0.00, -1.00, 1050.8, 168.4)">.</text></g></g></g></svg>