<?xml version="1.0" encoding="UTF-8" standalone="no"?><svg xmlns="http://www.w3.org/2000/svg" xmlns:xlink="http://www.w3.org/1999/xlink" clip-rule="evenodd" stroke-miterlimit="10" viewBox="0 0 1280 720"><desc>SVG generated by Keynote</desc><defs></defs><g transform="matrix(1.00, 0.00, -0.00, -1.00, 0.0, 720.0)"><path d="M 0.0 720.0 L 1280.0 720.0 L 1280.0 0.0 L 0.0 0.0 Z M 0.0 720.0 " fill="#FFFFFF"></path><path d="M 0.0 0.5 L 1153.0 0.5 " fill="none" stroke="#9A9A9A" stroke-width="1.00" transform="matrix(1.00, 0.00, 0.00, -1.00, 64.0, 575.0)"></path><text xml:space="preserve" font-family="HelveticaNeue-Light,Helvetica Neue" font-size="38.0" fill="#000000" transform="matrix(1.00, 0.00, -0.00, -1.00, 60.0, 605.2)">A</text><text xml:space="preserve" font-family="HelveticaNeue-Light,Helvetica Neue" font-size="38.0" fill="#000000" transform="matrix(1.00, 0.00, -0.00, -1.00, 83.9, 605.2)">p</text><text xml:space="preserve" font-family="HelveticaNeue-Light,Helvetica Neue" font-size="38.0" fill="#000000" transform="matrix(1.00, 0.00, -0.00, -1.00, 105.8, 605.2)">p</text><text xml:space="preserve" font-family="HelveticaNeue-Light,Helvetica Neue" font-size="38.0" fill="#000000" transform="matrix(1.00, 0.00, -0.00, -1.00, 127.6, 605.2)">l</text><text xml:space="preserve" font-family="HelveticaNeue-Light,Helvetica Neue" font-size="38.0" fill="#000000" transform="matrix(1.00, 0.00, -0.00, -1.00, 134.6, 605.2)">e</text><text xml:space="preserve" font-family="HelveticaNeue-Light,Helvetica Neue" font-size="38.0" fill="#000000" transform="matrix(1.00, 0.00, -0.00, -1.00, 154.3, 605.2)"> </text><text xml:space="preserve" font-family="HelveticaNeue-Light,Helvetica Neue" font-size="38.0" fill="#000000" transform="matrix(1.00, 0.00, -0.00, -1.00, 164.9, 605.2)">S</text><text xml:space="preserve" font-family="HelveticaNeue-Light,Helvetica Neue" font-size="38.0" fill="#000000" transform="matrix(1.00, 0.00, -0.00, -1.00, 188.8, 605.2)">t</text><text xml:space="preserve" font-family="HelveticaNeue-Light,Helvetica Neue" font-size="38.0" fill="#000000" transform="matrix(1.00, 0.00, -0.00, -1.00, 200.1, 605.2)">o</text><text xml:space="preserve" font-family="HelveticaNeue-Light,Helvetica Neue" font-size="38.0" fill="#000000" transform="matrix(1.00, 0.00, -0.00, -1.00, 221.2, 605.2)">r</text><text xml:space="preserve" font-family="HelveticaNeue-Light,Helvetica Neue" font-size="38.0" fill="#000000" transform="matrix(1.00, 0.00, -0.00, -1.00, 232.5, 605.2)">e</text><text xml:space="preserve" font-family="HelveticaNeue,Helvetica Neue" font-size="24.0" fill="#747474" transform="matrix(1.00, 0.00, -0.00, -1.00, 60.0, 520.8)">•</text><text xml:space="preserve" font-family="HelveticaNeue,Helvetica Neue" font-size="24.0" fill="#747474" transform="matrix(1.00, 0.00, -0.00, -1.00, 81.0, 520.8)">C</text><text xml:space="preserve" font-family="HelveticaNeue,Helvetica Neue" font-size="24.0" fill="#747474" transform="matrix(1.00, 0.00, -0.00, -1.00, 98.3, 520.8)">l</text><text xml:space="preserve" font-family="HelveticaNeue,Helvetica Neue" font-size="24.0" fill="#747474" transform="matrix(1.00, 0.00, -0.00, -1.00, 103.7, 520.8)">e</text><text xml:space="preserve" font-family="HelveticaNeue,Helvetica Neue" font-size="24.0" fill="#747474" transform="matrix(1.00, 0.00, -0.00, -1.00, 116.5, 520.8)">a</text><text xml:space="preserve" font-family="HelveticaNeue,Helvetica Neue" font-size="24.0" fill="#747474" transform="matrix(1.00, 0.00, -0.00, -1.00, 129.4, 520.8)">r</text><text xml:space="preserve" font-family="HelveticaNeue,Helvetica Neue" font-size="24.0" fill="#747474" transform="matrix(1.00, 0.00, -0.00, -1.00, 137.4, 520.8)"> </text><text xml:space="preserve" font-family="HelveticaNeue,Helvetica Neue" font-size="24.0" fill="#747474" transform="matrix(1.00, 0.00, -0.00, -1.00, 144.1, 520.8)">u</text><text xml:space="preserve" font-family="HelveticaNeue,Helvetica Neue" font-size="24.0" fill="#747474" transform="matrix(1.00, 0.00, -0.00, -1.00, 157.4, 520.8)">p</text><text xml:space="preserve" font-family="HelveticaNeue,Helvetica Neue" font-size="24.0" fill="#747474" transform="matrix(1.00, 0.00, -0.00, -1.00, 171.7, 520.8)">g</text><text xml:space="preserve" font-family="HelveticaNeue,Helvetica Neue" font-size="24.0" fill="#747474" transform="matrix(1.00, 0.00, -0.00, -1.00, 185.4, 520.8)">r</text><text xml:space="preserve" font-family="HelveticaNeue,Helvetica Neue" font-size="24.0" fill="#747474" transform="matrix(1.00, 0.00, -0.00, -1.00, 193.4, 520.8)">a</text><text xml:space="preserve" font-family="HelveticaNeue,Helvetica Neue" font-size="24.0" fill="#747474" transform="matrix(1.00, 0.00, -0.00, -1.00, 206.3, 520.8)">d</text><text xml:space="preserve" font-family="HelveticaNeue,Helvetica Neue" font-size="24.0" fill="#747474" transform="matrix(1.00, 0.00, -0.00, -1.00, 220.6, 520.8)">e</text><text xml:space="preserve" font-family="HelveticaNeue,Helvetica Neue" font-size="24.0" fill="#747474" transform="matrix(1.00, 0.00, -0.00, -1.00, 233.4, 520.8)">s</text><text xml:space="preserve" font-family="HelveticaNeue,Helvetica Neue" font-size="24.0" fill="#747474" transform="matrix(1.00, 0.00, -0.00, -1.00, 245.4, 520.8)"> </text><text xml:space="preserve" font-family="HelveticaNeue,Helvetica Neue" font-size="24.0" fill="#747474" transform="matrix(1.00, 0.00, -0.00, -1.00, 252.1, 520.8)">a</text><text xml:space="preserve" font-family="HelveticaNeue,Helvetica Neue" font-size="24.0" fill="#747474" transform="matrix(1.00, 0.00, -0.00, -1.00, 265.0, 520.8)">f</text><text xml:space="preserve" font-family="HelveticaNeue,Helvetica Neue" font-size="24.0" fill="#747474" transform="matrix(1.00, 0.00, -0.00, -1.00, 272.1, 520.8)">t</text><text xml:space="preserve" font-family="HelveticaNeue,Helvetica Neue" font-size="24.0" fill="#747474" transform="matrix(1.00, 0.00, -0.00, -1.00, 279.7, 520.8)">e</text><text xml:space="preserve" font-family="HelveticaNeue,Helvetica Neue" font-size="24.0" fill="#747474" transform="matrix(1.00, 0.00, -0.00, -1.00, 292.6, 520.8)">r</text><text xml:space="preserve" font-family="HelveticaNeue,Helvetica Neue" font-size="24.0" fill="#747474" transform="matrix(1.00, 0.00, -0.00, -1.00, 300.6, 520.8)"> </text><text xml:space="preserve" font-family="HelveticaNeue,Helvetica Neue" font-size="24.0" fill="#747474" transform="matrix(1.00, 0.00, -0.00, -1.00, 307.2, 520.8)">a</text><text xml:space="preserve" font-family="HelveticaNeue,Helvetica Neue" font-size="24.0" fill="#747474" transform="matrix(1.00, 0.00, -0.00, -1.00, 320.1, 520.8)">d</text><text xml:space="preserve" font-family="HelveticaNeue,Helvetica Neue" font-size="24.0" fill="#747474" transform="matrix(1.00, 0.00, -0.00, -1.00, 334.3, 520.8)">d</text><text xml:space="preserve" font-family="HelveticaNeue,Helvetica Neue" font-size="24.0" fill="#747474" transform="matrix(1.00, 0.00, -0.00, -1.00, 348.6, 520.8)">i</text><text xml:space="preserve" font-family="HelveticaNeue,Helvetica Neue" font-size="24.0" fill="#747474" transform="matrix(1.00, 0.00, -0.00, -1.00, 353.9, 520.8)">n</text><text xml:space="preserve" font-family="HelveticaNeue,Helvetica Neue" font-size="24.0" fill="#747474" transform="matrix(1.00, 0.00, -0.00, -1.00, 367.2, 520.8)">g</text><text xml:space="preserve" font-family="HelveticaNeue,Helvetica Neue" font-size="24.0" fill="#747474" transform="matrix(1.00, 0.00, -0.00, -1.00, 381.0, 520.8)"> </text><text xml:space="preserve" font-family="HelveticaNeue,Helvetica Neue" font-size="24.0" fill="#747474" transform="matrix(1.00, 0.00, -0.00, -1.00, 387.7, 520.8)">a</text><text xml:space="preserve" font-family="HelveticaNeue,Helvetica Neue" font-size="24.0" fill="#747474" transform="matrix(1.00, 0.00, -0.00, -1.00, 400.6, 520.8)"> </text><text xml:space="preserve" font-family="HelveticaNeue,Helvetica Neue" font-size="24.0" fill="#747474" transform="matrix(1.00, 0.00, -0.00, -1.00, 407.3, 520.8)">c</text><text xml:space="preserve" font-family="HelveticaNeue,Helvetica Neue" font-size="24.0" fill="#747474" transform="matrix(1.00, 0.00, -0.00, -1.00, 420.1, 520.8)">o</text><text xml:space="preserve" font-family="HelveticaNeue,Helvetica Neue" font-size="24.0" fill="#747474" transform="matrix(1.00, 0.00, -0.00, -1.00, 433.9, 520.8)">m</text><text xml:space="preserve" font-family="HelveticaNeue,Helvetica Neue" font-size="24.0" fill="#747474" transform="matrix(1.00, 0.00, -0.00, -1.00, 454.4, 520.8)">p</text><text xml:space="preserve" font-family="HelveticaNeue,Helvetica Neue" font-size="24.0" fill="#747474" transform="matrix(1.00, 0.00, -0.00, -1.00, 468.6, 520.8)">u</text><text xml:space="preserve" font-family="HelveticaNeue,Helvetica Neue" font-size="24.0" fill="#747474" transform="matrix(1.00, 0.00, -0.00, -1.00, 482.0, 520.8)">t</text><text xml:space="preserve" font-family="HelveticaNeue,Helvetica Neue" font-size="24.0" fill="#747474" transform="matrix(1.00, 0.00, -0.00, -1.00, 489.5, 520.8)">e</text><text xml:space="preserve" font-family="HelveticaNeue,Helvetica Neue" font-size="24.0" fill="#747474" transform="matrix(1.00, 0.00, -0.00, -1.00, 502.4, 520.8)">r</text><text xml:space="preserve" font-family="HelveticaNeue,Helvetica Neue" font-size="24.0" fill="#747474" transform="matrix(1.00, 0.00, -0.00, -1.00, 510.4, 520.8)"> </text><text xml:space="preserve" font-family="HelveticaNeue,Helvetica Neue" font-size="24.0" fill="#747474" transform="matrix(1.00, 0.00, -0.00, -1.00, 517.1, 520.8)">t</text><text xml:space="preserve" font-family="HelveticaNeue,Helvetica Neue" font-size="24.0" fill="#747474" transform="matrix(1.00, 0.00, -0.00, -1.00, 524.6, 520.8)">o</text><text xml:space="preserve" font-family="HelveticaNeue,Helvetica Neue" font-size="24.0" fill="#747474" transform="matrix(1.00, 0.00, -0.00, -1.00, 538.4, 520.8)"> </text><text xml:space="preserve" font-family="HelveticaNeue,Helvetica Neue" font-size="24.0" fill="#747474" transform="matrix(1.00, 0.00, -0.00, -1.00, 545.1, 520.8)">t</text><text xml:space="preserve" font-family="HelveticaNeue,Helvetica Neue" font-size="24.0" fill="#747474" transform="matrix(1.00, 0.00, -0.00, -1.00, 552.6, 520.8)">h</text><text xml:space="preserve" font-family="HelveticaNeue,Helvetica Neue" font-size="24.0" fill="#747474" transform="matrix(1.00, 0.00, -0.00, -1.00, 566.0, 520.8)">e</text><text xml:space="preserve" font-family="HelveticaNeue,Helvetica Neue" font-size="24.0" fill="#747474" transform="matrix(1.00, 0.00, -0.00, -1.00, 578.9, 520.8)"> </text><text xml:space="preserve" font-family="HelveticaNeue,Helvetica Neue" font-size="24.0" fill="#747474" transform="matrix(1.00, 0.00, -0.00, -1.00, 585.6, 520.8)">s</text><text xml:space="preserve" font-family="HelveticaNeue,Helvetica Neue" font-size="24.0" fill="#747474" transform="matrix(1.00, 0.00, -0.00, -1.00, 597.6, 520.8)">h</text><text xml:space="preserve" font-family="HelveticaNeue,Helvetica Neue" font-size="24.0" fill="#747474" transform="matrix(1.00, 0.00, -0.00, -1.00, 610.9, 520.8)">o</text><text xml:space="preserve" font-family="HelveticaNeue,Helvetica Neue" font-size="24.0" fill="#747474" transform="matrix(1.00, 0.00, -0.00, -1.00, 624.7, 520.8)">p</text><text xml:space="preserve" font-family="HelveticaNeue,Helvetica Neue" font-size="24.0" fill="#747474" transform="matrix(1.00, 0.00, -0.00, -1.00, 638.9, 520.8)">p</text><text xml:space="preserve" font-family="HelveticaNeue,Helvetica Neue" font-size="24.0" fill="#747474" transform="matrix(1.00, 0.00, -0.00, -1.00, 653.1, 520.8)">i</text><text xml:space="preserve" font-family="HelveticaNeue,Helvetica Neue" font-size="24.0" fill="#747474" transform="matrix(1.00, 0.00, -0.00, -1.00, 658.5, 520.8)">n</text><text xml:space="preserve" font-family="HelveticaNeue,Helvetica Neue" font-size="24.0" fill="#747474" transform="matrix(1.00, 0.00, -0.00, -1.00, 671.8, 520.8)">g</text><text xml:space="preserve" font-family="HelveticaNeue,Helvetica Neue" font-size="24.0" fill="#747474" transform="matrix(1.00, 0.00, -0.00, -1.00, 685.6, 520.8)"> </text><text xml:space="preserve" font-family="HelveticaNeue,Helvetica Neue" font-size="24.0" fill="#747474" transform="matrix(1.00, 0.00, -0.00, -1.00, 692.3, 520.8)">c</text><text xml:space="preserve" font-family="HelveticaNeue,Helvetica Neue" font-size="24.0" fill="#747474" transform="matrix(1.00, 0.00, -0.00, -1.00, 705.1, 520.8)">a</text><text xml:space="preserve" font-family="HelveticaNeue,Helvetica Neue" font-size="24.0" fill="#747474" transform="matrix(1.00, 0.00, -0.00, -1.00, 718.0, 520.8)">r</text><text xml:space="preserve" font-family="HelveticaNeue,Helvetica Neue" font-size="24.0" fill="#747474" transform="matrix(1.00, 0.00, -0.00, -1.00, 726.0, 520.8)">t</text></g></svg>