<?xml version="1.0" encoding="UTF-8" standalone="no"?><svg xmlns="http://www.w3.org/2000/svg" xmlns:xlink="http://www.w3.org/1999/xlink" clip-rule="evenodd" stroke-miterlimit="10" viewBox="0 0 1280 720"><desc>SVG generated by Keynote</desc><defs></defs><g transform="matrix(1.00, 0.00, -0.00, -1.00, 0.0, 720.0)"><path d="M 0.0 720.0 L 1280.0 720.0 L 1280.0 0.0 L 0.0 0.0 Z M 0.0 720.0 " fill="#FFFFFF"></path><path d="M 0.0 0.5 L 1114.0 0.5 " fill="none" stroke="#9A9A9A" stroke-width="1.00" transform="matrix(1.00, 0.00, 0.00, -1.00, 83.0, 575.0)"></path><text xml:space="preserve" font-family="HelveticaNeue-Light,Helvetica Neue" font-size="36.0" fill="#000000" transform="matrix(1.00, 0.00, -0.00, -1.00, 84.0, 603.7)">T</text><text xml:space="preserve" font-family="HelveticaNeue-Light,Helvetica Neue" font-size="36.0" fill="#000000" transform="matrix(1.00, 0.00, -0.00, -1.00, 104.0, 603.7)">h</text><text xml:space="preserve" font-family="HelveticaNeue-Light,Helvetica Neue" font-size="36.0" fill="#000000" transform="matrix(1.00, 0.00, -0.00, -1.00, 123.3, 603.7)">e</text><text xml:space="preserve" font-family="HelveticaNeue-Light,Helvetica Neue" font-size="36.0" fill="#000000" transform="matrix(1.00, 0.00, -0.00, -1.00, 142.0, 603.7)"> </text><text xml:space="preserve" font-family="HelveticaNeue-Light,Helvetica Neue" font-size="36.0" fill="#000000" transform="matrix(1.00, 0.00, -0.00, -1.00, 152.0, 603.7)">p</text><text xml:space="preserve" font-family="HelveticaNeue-Light,Helvetica Neue" font-size="36.0" fill="#000000" transform="matrix(1.00, 0.00, -0.00, -1.00, 172.7, 603.7)">r</text><text xml:space="preserve" font-family="HelveticaNeue-Light,Helvetica Neue" font-size="36.0" fill="#000000" transform="matrix(1.00, 0.00, -0.00, -1.00, 183.4, 603.7)">o</text><text xml:space="preserve" font-family="HelveticaNeue-Light,Helvetica Neue" font-size="36.0" fill="#000000" transform="matrix(1.00, 0.00, -0.00, -1.00, 203.4, 603.7)">b</text><text xml:space="preserve" font-family="HelveticaNeue-Light,Helvetica Neue" font-size="36.0" fill="#000000" transform="matrix(1.00, 0.00, -0.00, -1.00, 224.1, 603.7)">l</text><text xml:space="preserve" font-family="HelveticaNeue-Light,Helvetica Neue" font-size="36.0" fill="#000000" transform="matrix(1.00, 0.00, -0.00, -1.00, 230.7, 603.7)">e</text><text xml:space="preserve" font-family="HelveticaNeue-Light,Helvetica Neue" font-size="36.0" fill="#000000" transform="matrix(1.00, 0.00, -0.00, -1.00, 249.4, 603.7)">m</text><text xml:space="preserve" font-family="HelveticaNeue-Light,Helvetica Neue" font-size="36.0" fill="#000000" transform="matrix(1.00, 0.00, -0.00, -1.00, 279.4, 603.7)"> </text><text xml:space="preserve" font-family="HelveticaNeue-Light,Helvetica Neue" font-size="36.0" fill="#000000" transform="matrix(1.00, 0.00, -0.00, -1.00, 289.4, 603.7)">w</text><text xml:space="preserve" font-family="HelveticaNeue-Light,Helvetica Neue" font-size="36.0" fill="#000000" transform="matrix(1.00, 0.00, -0.00, -1.00, 316.1, 603.7)">i</text><text xml:space="preserve" font-family="HelveticaNeue-Light,Helvetica Neue" font-size="36.0" fill="#000000" transform="matrix(1.00, 0.00, -0.00, -1.00, 322.8, 603.7)">t</text><text xml:space="preserve" font-family="HelveticaNeue-Light,Helvetica Neue" font-size="36.0" fill="#000000" transform="matrix(1.00, 0.00, -0.00, -1.00, 333.4, 603.7)">h</text><text xml:space="preserve" font-family="HelveticaNeue-Light,Helvetica Neue" font-size="36.0" fill="#000000" transform="matrix(1.00, 0.00, -0.00, -1.00, 352.7, 603.7)"> </text><text xml:space="preserve" font-family="HelveticaNeue-Light,Helvetica Neue" font-size="36.0" fill="#000000" transform="matrix(1.00, 0.00, -0.00, -1.00, 362.7, 603.7)">s</text><text xml:space="preserve" font-family="HelveticaNeue-Light,Helvetica Neue" font-size="36.0" fill="#000000" transform="matrix(1.00, 0.00, -0.00, -1.00, 380.1, 603.7)">p</text><text xml:space="preserve" font-family="HelveticaNeue-Light,Helvetica Neue" font-size="36.0" fill="#000000" transform="matrix(1.00, 0.00, -0.00, -1.00, 400.7, 603.7)">e</text><text xml:space="preserve" font-family="HelveticaNeue-Light,Helvetica Neue" font-size="36.0" fill="#000000" transform="matrix(1.00, 0.00, -0.00, -1.00, 419.4, 603.7)">c</text><text xml:space="preserve" font-family="HelveticaNeue-Light,Helvetica Neue" font-size="36.0" fill="#000000" transform="matrix(1.00, 0.00, -0.00, -1.00, 438.1, 603.7)"> </text><text xml:space="preserve" font-family="HelveticaNeue-Light,Helvetica Neue" font-size="36.0" fill="#000000" transform="matrix(1.00, 0.00, -0.00, -1.00, 448.1, 603.7)">w</text><text xml:space="preserve" font-family="HelveticaNeue-Light,Helvetica Neue" font-size="36.0" fill="#000000" transform="matrix(1.00, 0.00, -0.00, -1.00, 474.8, 603.7)">o</text><text xml:space="preserve" font-family="HelveticaNeue-Light,Helvetica Neue" font-size="36.0" fill="#000000" transform="matrix(1.00, 0.00, -0.00, -1.00, 494.8, 603.7)">r</text><text xml:space="preserve" font-family="HelveticaNeue-Light,Helvetica Neue" font-size="36.0" fill="#000000" transform="matrix(1.00, 0.00, -0.00, -1.00, 506.1, 603.7)">k</text><text xml:space="preserve" font-family="HelveticaNeue,Helvetica Neue" font-size="36.0" fill="#747474" transform="matrix(1.00, 0.00, -0.00, -1.00, 84.0, 510.7)">S</text><text xml:space="preserve" font-family="HelveticaNeue,Helvetica Neue" font-size="36.0" fill="#747474" transform="matrix(1.00, 0.00, -0.00, -1.00, 107.3, 510.7)">p</text><text xml:space="preserve" font-family="HelveticaNeue,Helvetica Neue" font-size="36.0" fill="#747474" transform="matrix(1.00, 0.00, -0.00, -1.00, 128.7, 510.7)">e</text><text xml:space="preserve" font-family="HelveticaNeue,Helvetica Neue" font-size="36.0" fill="#747474" transform="matrix(1.00, 0.00, -0.00, -1.00, 148.0, 510.7)">c</text><text xml:space="preserve" font-family="HelveticaNeue,Helvetica Neue" font-size="36.0" fill="#747474" transform="matrix(1.00, 0.00, -0.00, -1.00, 167.3, 510.7)"> </text><text xml:space="preserve" font-family="HelveticaNeue,Helvetica Neue" font-size="36.0" fill="#747474" transform="matrix(1.00, 0.00, -0.00, -1.00, 177.3, 510.7)">i</text><text xml:space="preserve" font-family="HelveticaNeue,Helvetica Neue" font-size="36.0" fill="#747474" transform="matrix(1.00, 0.00, -0.00, -1.00, 185.3, 510.7)">s</text><text xml:space="preserve" font-family="HelveticaNeue,Helvetica Neue" font-size="36.0" fill="#747474" transform="matrix(1.00, 0.00, -0.00, -1.00, 203.3, 510.7)"> </text><text xml:space="preserve" font-family="HelveticaNeue,Helvetica Neue" font-size="36.0" fill="#747474" transform="matrix(1.00, 0.00, -0.00, -1.00, 213.3, 510.7)">f</text><text xml:space="preserve" font-family="HelveticaNeue,Helvetica Neue" font-size="36.0" fill="#747474" transform="matrix(1.00, 0.00, -0.00, -1.00, 224.0, 510.7)">o</text><text xml:space="preserve" font-family="HelveticaNeue,Helvetica Neue" font-size="36.0" fill="#747474" transform="matrix(1.00, 0.00, -0.00, -1.00, 244.7, 510.7)">r</text><text xml:space="preserve" font-family="HelveticaNeue,Helvetica Neue" font-size="36.0" fill="#747474" transform="matrix(1.00, 0.00, -0.00, -1.00, 256.7, 510.7)"> </text><text xml:space="preserve" font-family="HelveticaNeue,Helvetica Neue" font-size="36.0" fill="#747474" transform="matrix(1.00, 0.00, -0.00, -1.00, 266.7, 510.7)">s</text><text xml:space="preserve" font-family="HelveticaNeue,Helvetica Neue" font-size="36.0" fill="#747474" transform="matrix(1.00, 0.00, -0.00, -1.00, 284.7, 510.7)">p</text><text xml:space="preserve" font-family="HelveticaNeue,Helvetica Neue" font-size="36.0" fill="#747474" transform="matrix(1.00, 0.00, -0.00, -1.00, 306.0, 510.7)">e</text><text xml:space="preserve" font-family="HelveticaNeue,Helvetica Neue" font-size="36.0" fill="#747474" transform="matrix(1.00, 0.00, -0.00, -1.00, 325.3, 510.7)">c</text><text xml:space="preserve" font-family="HelveticaNeue,Helvetica Neue" font-size="36.0" fill="#747474" transform="matrix(1.00, 0.00, -0.00, -1.00, 344.7, 510.7)">u</text><text xml:space="preserve" font-family="HelveticaNeue,Helvetica Neue" font-size="36.0" fill="#747474" transform="matrix(1.00, 0.00, -0.00, -1.00, 364.7, 510.7)">l</text><text xml:space="preserve" font-family="HelveticaNeue,Helvetica Neue" font-size="36.0" fill="#747474" transform="matrix(1.00, 0.00, -0.00, -1.00, 372.7, 510.7)">a</text><text xml:space="preserve" font-family="HelveticaNeue,Helvetica Neue" font-size="36.0" fill="#747474" transform="matrix(1.00, 0.00, -0.00, -1.00, 392.0, 510.7)">t</text><text xml:space="preserve" font-family="HelveticaNeue,Helvetica Neue" font-size="36.0" fill="#747474" transform="matrix(1.00, 0.00, -0.00, -1.00, 403.4, 510.7)">i</text><text xml:space="preserve" font-family="HelveticaNeue,Helvetica Neue" font-size="36.0" fill="#747474" transform="matrix(1.00, 0.00, -0.00, -1.00, 411.3, 510.7)">o</text><text xml:space="preserve" font-family="HelveticaNeue,Helvetica Neue" font-size="36.0" fill="#747474" transform="matrix(1.00, 0.00, -0.00, -1.00, 432.0, 510.7)">n</text><text xml:space="preserve" font-family="HelveticaNeue,Helvetica Neue" font-size="36.0" fill="#747474" transform="matrix(1.00, 0.00, -0.00, -1.00, 452.0, 510.7)">
</text><text xml:space="preserve" font-family="HelveticaNeue,Helvetica Neue" font-size="36.0" fill="#747474" transform="matrix(1.00, 0.00, -0.00, -1.00, 84.0, 426.7)">W</text><text xml:space="preserve" font-family="HelveticaNeue,Helvetica Neue" font-size="36.0" fill="#747474" transform="matrix(1.00, 0.00, -0.00, -1.00, 117.3, 426.7)">h</text><text xml:space="preserve" font-family="HelveticaNeue,Helvetica Neue" font-size="36.0" fill="#747474" transform="matrix(1.00, 0.00, -0.00, -1.00, 137.4, 426.7)">a</text><text xml:space="preserve" font-family="HelveticaNeue,Helvetica Neue" font-size="36.0" fill="#747474" transform="matrix(1.00, 0.00, -0.00, -1.00, 156.7, 426.7)">t</text><text xml:space="preserve" font-family="HelveticaNeue,Helvetica Neue" font-size="36.0" fill="#747474" transform="matrix(1.00, 0.00, -0.00, -1.00, 168.0, 426.7)"> </text><text xml:space="preserve" font-family="HelveticaNeue,Helvetica Neue" font-size="36.0" fill="#747474" transform="matrix(1.00, 0.00, -0.00, -1.00, 178.0, 426.7)">h</text><text xml:space="preserve" font-family="HelveticaNeue,Helvetica Neue" font-size="36.0" fill="#747474" transform="matrix(1.00, 0.00, -0.00, -1.00, 198.0, 426.7)">a</text><text xml:space="preserve" font-family="HelveticaNeue,Helvetica Neue" font-size="36.0" fill="#747474" transform="matrix(1.00, 0.00, -0.00, -1.00, 217.4, 426.7)">p</text><text xml:space="preserve" font-family="HelveticaNeue,Helvetica Neue" font-size="36.0" fill="#747474" transform="matrix(1.00, 0.00, -0.00, -1.00, 238.7, 426.7)">p</text><text xml:space="preserve" font-family="HelveticaNeue,Helvetica Neue" font-size="36.0" fill="#747474" transform="matrix(1.00, 0.00, -0.00, -1.00, 260.1, 426.7)">e</text><text xml:space="preserve" font-family="HelveticaNeue,Helvetica Neue" font-size="36.0" fill="#747474" transform="matrix(1.00, 0.00, -0.00, -1.00, 279.4, 426.7)">n</text><text xml:space="preserve" font-family="HelveticaNeue,Helvetica Neue" font-size="36.0" fill="#747474" transform="matrix(1.00, 0.00, -0.00, -1.00, 299.4, 426.7)">s</text><text xml:space="preserve" font-family="HelveticaNeue,Helvetica Neue" font-size="36.0" fill="#747474" transform="matrix(1.00, 0.00, -0.00, -1.00, 317.4, 426.7)"> </text><text xml:space="preserve" font-family="HelveticaNeue,Helvetica Neue" font-size="36.0" fill="#747474" transform="matrix(1.00, 0.00, -0.00, -1.00, 327.4, 426.7)">w</text><text xml:space="preserve" font-family="HelveticaNeue,Helvetica Neue" font-size="36.0" fill="#747474" transform="matrix(1.00, 0.00, -0.00, -1.00, 354.7, 426.7)">h</text><text xml:space="preserve" font-family="HelveticaNeue,Helvetica Neue" font-size="36.0" fill="#747474" transform="matrix(1.00, 0.00, -0.00, -1.00, 374.7, 426.7)">e</text><text xml:space="preserve" font-family="HelveticaNeue,Helvetica Neue" font-size="36.0" fill="#747474" transform="matrix(1.00, 0.00, -0.00, -1.00, 394.1, 426.7)">n</text><text xml:space="preserve" font-family="HelveticaNeue,Helvetica Neue" font-size="36.0" fill="#747474" transform="matrix(1.00, 0.00, -0.00, -1.00, 414.1, 426.7)"> </text><text xml:space="preserve" font-family="HelveticaNeue,Helvetica Neue" font-size="36.0" fill="#747474" transform="matrix(1.00, 0.00, -0.00, -1.00, 424.1, 426.7)">t</text><text xml:space="preserve" font-family="HelveticaNeue,Helvetica Neue" font-size="36.0" fill="#747474" transform="matrix(1.00, 0.00, -0.00, -1.00, 435.4, 426.7)">h</text><text xml:space="preserve" font-family="HelveticaNeue,Helvetica Neue" font-size="36.0" fill="#747474" transform="matrix(1.00, 0.00, -0.00, -1.00, 455.4, 426.7)">e</text><text xml:space="preserve" font-family="HelveticaNeue,Helvetica Neue" font-size="36.0" fill="#747474" transform="matrix(1.00, 0.00, -0.00, -1.00, 474.8, 426.7)"> </text><text xml:space="preserve" font-family="HelveticaNeue,Helvetica Neue" font-size="36.0" fill="#747474" transform="matrix(1.00, 0.00, -0.00, -1.00, 484.8, 426.7)">c</text><text xml:space="preserve" font-family="HelveticaNeue,Helvetica Neue" font-size="36.0" fill="#747474" transform="matrix(1.00, 0.00, -0.00, -1.00, 504.1, 426.7)">l</text><text xml:space="preserve" font-family="HelveticaNeue,Helvetica Neue" font-size="36.0" fill="#747474" transform="matrix(1.00, 0.00, -0.00, -1.00, 512.1, 426.7)">i</text><text xml:space="preserve" font-family="HelveticaNeue,Helvetica Neue" font-size="36.0" fill="#747474" transform="matrix(1.00, 0.00, -0.00, -1.00, 520.1, 426.7)">e</text><text xml:space="preserve" font-family="HelveticaNeue,Helvetica Neue" font-size="36.0" fill="#747474" transform="matrix(1.00, 0.00, -0.00, -1.00, 539.4, 426.7)">n</text><text xml:space="preserve" font-family="HelveticaNeue,Helvetica Neue" font-size="36.0" fill="#747474" transform="matrix(1.00, 0.00, -0.00, -1.00, 559.5, 426.7)">t</text><text xml:space="preserve" font-family="HelveticaNeue,Helvetica Neue" font-size="36.0" fill="#747474" transform="matrix(1.00, 0.00, -0.00, -1.00, 570.8, 426.7)"> </text><text xml:space="preserve" font-family="HelveticaNeue,Helvetica Neue" font-size="36.0" fill="#747474" transform="matrix(1.00, 0.00, -0.00, -1.00, 580.8, 426.7)">t</text><text xml:space="preserve" font-family="HelveticaNeue,Helvetica Neue" font-size="36.0" fill="#747474" transform="matrix(1.00, 0.00, -0.00, -1.00, 592.1, 426.7)">a</text><text xml:space="preserve" font-family="HelveticaNeue,Helvetica Neue" font-size="36.0" fill="#747474" transform="matrix(1.00, 0.00, -0.00, -1.00, 611.5, 426.7)">k</text><text xml:space="preserve" font-family="HelveticaNeue,Helvetica Neue" font-size="36.0" fill="#747474" transform="matrix(1.00, 0.00, -0.00, -1.00, 630.2, 426.7)">e</text><text xml:space="preserve" font-family="HelveticaNeue,Helvetica Neue" font-size="36.0" fill="#747474" transform="matrix(1.00, 0.00, -0.00, -1.00, 649.5, 426.7)">s</text><text xml:space="preserve" font-family="HelveticaNeue,Helvetica Neue" font-size="36.0" fill="#747474" transform="matrix(1.00, 0.00, -0.00, -1.00, 667.5, 426.7)"> </text><text xml:space="preserve" font-family="HelveticaNeue,Helvetica Neue" font-size="36.0" fill="#747474" transform="matrix(1.00, 0.00, -0.00, -1.00, 677.5, 426.7)">i</text><text xml:space="preserve" font-family="HelveticaNeue,Helvetica Neue" font-size="36.0" fill="#747474" transform="matrix(1.00, 0.00, -0.00, -1.00, 685.5, 426.7)">n</text><text xml:space="preserve" font-family="HelveticaNeue,Helvetica Neue" font-size="36.0" fill="#747474" transform="matrix(1.00, 0.00, -0.00, -1.00, 705.5, 426.7)"> </text><text xml:space="preserve" font-family="HelveticaNeue,Helvetica Neue" font-size="36.0" fill="#747474" transform="matrix(1.00, 0.00, -0.00, -1.00, 715.5, 426.7)">b</text><text xml:space="preserve" font-family="HelveticaNeue,Helvetica Neue" font-size="36.0" fill="#747474" transform="matrix(1.00, 0.00, -0.00, -1.00, 736.9, 426.7)">i</text><text xml:space="preserve" font-family="HelveticaNeue,Helvetica Neue" font-size="36.0" fill="#747474" transform="matrix(1.00, 0.00, -0.00, -1.00, 744.9, 426.7)">d</text><text xml:space="preserve" font-family="HelveticaNeue,Helvetica Neue" font-size="36.0" fill="#747474" transform="matrix(1.00, 0.00, -0.00, -1.00, 766.2, 426.7)">s</text><text xml:space="preserve" font-family="HelveticaNeue,Helvetica Neue" font-size="36.0" fill="#747474" transform="matrix(1.00, 0.00, -0.00, -1.00, 784.2, 426.7)"> </text><text xml:space="preserve" font-family="HelveticaNeue,Helvetica Neue" font-size="36.0" fill="#747474" transform="matrix(1.00, 0.00, -0.00, -1.00, 794.2, 426.7)">a</text><text xml:space="preserve" font-family="HelveticaNeue,Helvetica Neue" font-size="36.0" fill="#747474" transform="matrix(1.00, 0.00, -0.00, -1.00, 813.5, 426.7)">n</text><text xml:space="preserve" font-family="HelveticaNeue,Helvetica Neue" font-size="36.0" fill="#747474" transform="matrix(1.00, 0.00, -0.00, -1.00, 833.6, 426.7)">d</text><text xml:space="preserve" font-family="HelveticaNeue,Helvetica Neue" font-size="36.0" fill="#747474" transform="matrix(1.00, 0.00, -0.00, -1.00, 854.9, 426.7)"> </text><text xml:space="preserve" font-family="HelveticaNeue,Helvetica Neue" font-size="36.0" fill="#747474" transform="matrix(1.00, 0.00, -0.00, -1.00, 864.9, 426.7)">t</text><text xml:space="preserve" font-family="HelveticaNeue,Helvetica Neue" font-size="36.0" fill="#747474" transform="matrix(1.00, 0.00, -0.00, -1.00, 876.3, 426.7)">h</text><text xml:space="preserve" font-family="HelveticaNeue,Helvetica Neue" font-size="36.0" fill="#747474" transform="matrix(1.00, 0.00, -0.00, -1.00, 896.3, 426.7)">e</text><text xml:space="preserve" font-family="HelveticaNeue,Helvetica Neue" font-size="36.0" fill="#747474" transform="matrix(1.00, 0.00, -0.00, -1.00, 915.6, 426.7)"> </text><text xml:space="preserve" font-family="HelveticaNeue,Helvetica Neue" font-size="36.0" fill="#747474" transform="matrix(1.00, 0.00, -0.00, -1.00, 925.6, 426.7)">a</text><text xml:space="preserve" font-family="HelveticaNeue,Helvetica Neue" font-size="36.0" fill="#747474" transform="matrix(1.00, 0.00, -0.00, -1.00, 944.9, 426.7)">s</text><text xml:space="preserve" font-family="HelveticaNeue,Helvetica Neue" font-size="36.0" fill="#747474" transform="matrix(1.00, 0.00, -0.00, -1.00, 962.9, 426.7)">s</text><text xml:space="preserve" font-family="HelveticaNeue,Helvetica Neue" font-size="36.0" fill="#747474" transform="matrix(1.00, 0.00, -0.00, -1.00, 980.9, 426.7)">o</text><text xml:space="preserve" font-family="HelveticaNeue,Helvetica Neue" font-size="36.0" fill="#747474" transform="matrix(1.00, 0.00, -0.00, -1.00, 1001.6, 426.7)">c</text><text xml:space="preserve" font-family="HelveticaNeue,Helvetica Neue" font-size="36.0" fill="#747474" transform="matrix(1.00, 0.00, -0.00, -1.00, 1020.9, 426.7)">i</text><text xml:space="preserve" font-family="HelveticaNeue,Helvetica Neue" font-size="36.0" fill="#747474" transform="matrix(1.00, 0.00, -0.00, -1.00, 1028.9, 426.7)">a</text><text xml:space="preserve" font-family="HelveticaNeue,Helvetica Neue" font-size="36.0" fill="#747474" transform="matrix(1.00, 0.00, -0.00, -1.00, 1048.3, 426.7)">t</text><text xml:space="preserve" font-family="HelveticaNeue,Helvetica Neue" font-size="36.0" fill="#747474" transform="matrix(1.00, 0.00, -0.00, -1.00, 1059.6, 426.7)">e</text><text xml:space="preserve" font-family="HelveticaNeue,Helvetica Neue" font-size="36.0" fill="#747474" transform="matrix(1.00, 0.00, -0.00, -1.00, 1078.9, 426.7)">d</text><text xml:space="preserve" font-family="HelveticaNeue,Helvetica Neue" font-size="36.0" fill="#747474" transform="matrix(1.00, 0.00, -0.00, -1.00, 1100.3, 426.7)"> </text><text xml:space="preserve" font-family="HelveticaNeue,Helvetica Neue" font-size="36.0" fill="#747474" transform="matrix(1.00, 0.00, -0.00, -1.00, 1110.3, 426.7)">s</text><text xml:space="preserve" font-family="HelveticaNeue,Helvetica Neue" font-size="36.0" fill="#747474" transform="matrix(1.00, 0.00, -0.00, -1.00, 1128.3, 426.7)">p</text><text xml:space="preserve" font-family="HelveticaNeue,Helvetica Neue" font-size="36.0" fill="#747474" transform="matrix(1.00, 0.00, -0.00, -1.00, 1149.6, 426.7)">e</text><text xml:space="preserve" font-family="HelveticaNeue,Helvetica Neue" font-size="36.0" fill="#747474" transform="matrix(1.00, 0.00, -0.00, -1.00, 1169.0, 426.7)">c</text><text xml:space="preserve" font-family="HelveticaNeue,Helvetica Neue" font-size="36.0" fill="#747474" transform="matrix(1.00, 0.00, -0.00, -1.00, 1188.3, 426.7)"> </text><text xml:space="preserve" font-family="HelveticaNeue,Helvetica Neue" font-size="36.0" fill="#747474" transform="matrix(1.00, 0.00, -0.00, -1.00, 84.0, 383.7)">w</text><text xml:space="preserve" font-family="HelveticaNeue,Helvetica Neue" font-size="36.0" fill="#747474" transform="matrix(1.00, 0.00, -0.00, -1.00, 111.3, 383.7)">o</text><text xml:space="preserve" font-family="HelveticaNeue,Helvetica Neue" font-size="36.0" fill="#747474" transform="matrix(1.00, 0.00, -0.00, -1.00, 132.0, 383.7)">r</text><text xml:space="preserve" font-family="HelveticaNeue,Helvetica Neue" font-size="36.0" fill="#747474" transform="matrix(1.00, 0.00, -0.00, -1.00, 143.9, 383.7)">k</text><text xml:space="preserve" font-family="HelveticaNeue,Helvetica Neue" font-size="36.0" fill="#747474" transform="matrix(1.00, 0.00, -0.00, -1.00, 162.6, 383.7)">?</text><text xml:space="preserve" font-family="HelveticaNeue,Helvetica Neue" font-size="36.0" fill="#747474" transform="matrix(1.00, 0.00, -0.00, -1.00, 182.6, 383.7)"> </text><text xml:space="preserve" font-family="HelveticaNeue,Helvetica Neue" font-size="36.0" fill="#747474" transform="matrix(1.00, 0.00, -0.00, -1.00, 192.6, 383.7)">T</text><text xml:space="preserve" font-family="HelveticaNeue,Helvetica Neue" font-size="36.0" fill="#747474" transform="matrix(1.00, 0.00, -0.00, -1.00, 213.3, 383.7)">h</text><text xml:space="preserve" font-family="HelveticaNeue,Helvetica Neue" font-size="36.0" fill="#747474" transform="matrix(1.00, 0.00, -0.00, -1.00, 233.3, 383.7)">e</text><text xml:space="preserve" font-family="HelveticaNeue,Helvetica Neue" font-size="36.0" fill="#747474" transform="matrix(1.00, 0.00, -0.00, -1.00, 252.7, 383.7)">n</text><text xml:space="preserve" font-family="HelveticaNeue,Helvetica Neue" font-size="36.0" fill="#747474" transform="matrix(1.00, 0.00, -0.00, -1.00, 272.7, 383.7)"> </text><text xml:space="preserve" font-family="HelveticaNeue,Helvetica Neue" font-size="36.0" fill="#747474" transform="matrix(1.00, 0.00, -0.00, -1.00, 282.7, 383.7)">‘</text><text xml:space="preserve" font-family="HelveticaNeue,Helvetica Neue" font-size="36.0" fill="#747474" transform="matrix(1.00, 0.00, -0.00, -1.00, 292.7, 383.7)">s</text><text xml:space="preserve" font-family="HelveticaNeue,Helvetica Neue" font-size="36.0" fill="#747474" transform="matrix(1.00, 0.00, -0.00, -1.00, 310.7, 383.7)">t</text><text xml:space="preserve" font-family="HelveticaNeue,Helvetica Neue" font-size="36.0" fill="#747474" transform="matrix(1.00, 0.00, -0.00, -1.00, 322.0, 383.7)">e</text><text xml:space="preserve" font-family="HelveticaNeue,Helvetica Neue" font-size="36.0" fill="#747474" transform="matrix(1.00, 0.00, -0.00, -1.00, 341.4, 383.7)">a</text><text xml:space="preserve" font-family="HelveticaNeue,Helvetica Neue" font-size="36.0" fill="#747474" transform="matrix(1.00, 0.00, -0.00, -1.00, 360.7, 383.7)">l</text><text xml:space="preserve" font-family="HelveticaNeue,Helvetica Neue" font-size="36.0" fill="#747474" transform="matrix(1.00, 0.00, -0.00, -1.00, 368.7, 383.7)">s</text><text xml:space="preserve" font-family="HelveticaNeue,Helvetica Neue" font-size="36.0" fill="#747474" transform="matrix(1.00, 0.00, -0.00, -1.00, 386.7, 383.7)">’</text><text xml:space="preserve" font-family="HelveticaNeue,Helvetica Neue" font-size="36.0" fill="#747474" transform="matrix(1.00, 0.00, -0.00, -1.00, 396.7, 383.7)"> </text><text xml:space="preserve" font-family="HelveticaNeue,Helvetica Neue" font-size="36.0" fill="#747474" transform="matrix(1.00, 0.00, -0.00, -1.00, 406.7, 383.7)">t</text><text xml:space="preserve" font-family="HelveticaNeue,Helvetica Neue" font-size="36.0" fill="#747474" transform="matrix(1.00, 0.00, -0.00, -1.00, 418.0, 383.7)">h</text><text xml:space="preserve" font-family="HelveticaNeue,Helvetica Neue" font-size="36.0" fill="#747474" transform="matrix(1.00, 0.00, -0.00, -1.00, 438.1, 383.7)">e</text><text xml:space="preserve" font-family="HelveticaNeue,Helvetica Neue" font-size="36.0" fill="#747474" transform="matrix(1.00, 0.00, -0.00, -1.00, 457.4, 383.7)"> </text><text xml:space="preserve" font-family="HelveticaNeue,Helvetica Neue" font-size="36.0" fill="#747474" transform="matrix(1.00, 0.00, -0.00, -1.00, 467.4, 383.7)">w</text><text xml:space="preserve" font-family="HelveticaNeue,Helvetica Neue" font-size="36.0" fill="#747474" transform="matrix(1.00, 0.00, -0.00, -1.00, 494.7, 383.7)">o</text><text xml:space="preserve" font-family="HelveticaNeue,Helvetica Neue" font-size="36.0" fill="#747474" transform="matrix(1.00, 0.00, -0.00, -1.00, 515.4, 383.7)">r</text><text xml:space="preserve" font-family="HelveticaNeue,Helvetica Neue" font-size="36.0" fill="#747474" transform="matrix(1.00, 0.00, -0.00, -1.00, 527.3, 383.7)">k</text><text xml:space="preserve" font-family="HelveticaNeue,Helvetica Neue" font-size="36.0" fill="#747474" transform="matrix(1.00, 0.00, -0.00, -1.00, 546.0, 383.7)"> </text><text xml:space="preserve" font-family="HelveticaNeue,Helvetica Neue" font-size="36.0" fill="#747474" transform="matrix(1.00, 0.00, -0.00, -1.00, 556.0, 383.7)">a</text><text xml:space="preserve" font-family="HelveticaNeue,Helvetica Neue" font-size="36.0" fill="#747474" transform="matrix(1.00, 0.00, -0.00, -1.00, 575.4, 383.7)">n</text><text xml:space="preserve" font-family="HelveticaNeue,Helvetica Neue" font-size="36.0" fill="#747474" transform="matrix(1.00, 0.00, -0.00, -1.00, 595.4, 383.7)">d</text><text xml:space="preserve" font-family="HelveticaNeue,Helvetica Neue" font-size="36.0" fill="#747474" transform="matrix(1.00, 0.00, -0.00, -1.00, 616.7, 383.7)"> </text><text xml:space="preserve" font-family="HelveticaNeue,Helvetica Neue" font-size="36.0" fill="#747474" transform="matrix(1.00, 0.00, -0.00, -1.00, 626.7, 383.7)">d</text><text xml:space="preserve" font-family="HelveticaNeue,Helvetica Neue" font-size="36.0" fill="#747474" transform="matrix(1.00, 0.00, -0.00, -1.00, 648.1, 383.7)">o</text><text xml:space="preserve" font-family="HelveticaNeue,Helvetica Neue" font-size="36.0" fill="#747474" transform="matrix(1.00, 0.00, -0.00, -1.00, 668.7, 383.7)">e</text><text xml:space="preserve" font-family="HelveticaNeue,Helvetica Neue" font-size="36.0" fill="#747474" transform="matrix(1.00, 0.00, -0.00, -1.00, 688.1, 383.7)">s</text><text xml:space="preserve" font-family="HelveticaNeue,Helvetica Neue" font-size="36.0" fill="#747474" transform="matrix(1.00, 0.00, -0.00, -1.00, 706.1, 383.7)"> </text><text xml:space="preserve" font-family="HelveticaNeue,Helvetica Neue" font-size="36.0" fill="#747474" transform="matrix(1.00, 0.00, -0.00, -1.00, 716.1, 383.7)">t</text><text xml:space="preserve" font-family="HelveticaNeue,Helvetica Neue" font-size="36.0" fill="#747474" transform="matrix(1.00, 0.00, -0.00, -1.00, 727.4, 383.7)">h</text><text xml:space="preserve" font-family="HelveticaNeue,Helvetica Neue" font-size="36.0" fill="#747474" transform="matrix(1.00, 0.00, -0.00, -1.00, 747.4, 383.7)">e</text><text xml:space="preserve" font-family="HelveticaNeue,Helvetica Neue" font-size="36.0" fill="#747474" transform="matrix(1.00, 0.00, -0.00, -1.00, 766.8, 383.7)"> </text><text xml:space="preserve" font-family="HelveticaNeue,Helvetica Neue" font-size="36.0" fill="#747474" transform="matrix(1.00, 0.00, -0.00, -1.00, 776.8, 383.7)">w</text><text xml:space="preserve" font-family="HelveticaNeue,Helvetica Neue" font-size="36.0" fill="#747474" transform="matrix(1.00, 0.00, -0.00, -1.00, 804.1, 383.7)">o</text><text xml:space="preserve" font-family="HelveticaNeue,Helvetica Neue" font-size="36.0" fill="#747474" transform="matrix(1.00, 0.00, -0.00, -1.00, 824.7, 383.7)">r</text><text xml:space="preserve" font-family="HelveticaNeue,Helvetica Neue" font-size="36.0" fill="#747474" transform="matrix(1.00, 0.00, -0.00, -1.00, 836.7, 383.7)">k</text><text xml:space="preserve" font-family="HelveticaNeue,Helvetica Neue" font-size="36.0" fill="#747474" transform="matrix(1.00, 0.00, -0.00, -1.00, 855.4, 383.7)"> </text><text xml:space="preserve" font-family="HelveticaNeue,Helvetica Neue" font-size="36.0" fill="#747474" transform="matrix(1.00, 0.00, -0.00, -1.00, 865.4, 383.7)">i</text><text xml:space="preserve" font-family="HelveticaNeue,Helvetica Neue" font-size="36.0" fill="#747474" transform="matrix(1.00, 0.00, -0.00, -1.00, 873.4, 383.7)">n</text><text xml:space="preserve" font-family="HelveticaNeue,Helvetica Neue" font-size="36.0" fill="#747474" transform="matrix(1.00, 0.00, -0.00, -1.00, 893.4, 383.7)"> </text><text xml:space="preserve" font-family="HelveticaNeue,Helvetica Neue" font-size="36.0" fill="#747474" transform="matrix(1.00, 0.00, -0.00, -1.00, 903.4, 383.7)">h</text><text xml:space="preserve" font-family="HelveticaNeue,Helvetica Neue" font-size="36.0" fill="#747474" transform="matrix(1.00, 0.00, -0.00, -1.00, 923.4, 383.7)">o</text><text xml:space="preserve" font-family="HelveticaNeue,Helvetica Neue" font-size="36.0" fill="#747474" transform="matrix(1.00, 0.00, -0.00, -1.00, 944.1, 383.7)">u</text><text xml:space="preserve" font-family="HelveticaNeue,Helvetica Neue" font-size="36.0" fill="#747474" transform="matrix(1.00, 0.00, -0.00, -1.00, 964.1, 383.7)">s</text><text xml:space="preserve" font-family="HelveticaNeue,Helvetica Neue" font-size="36.0" fill="#747474" transform="matrix(1.00, 0.00, -0.00, -1.00, 982.1, 383.7)">e</text><text xml:space="preserve" font-family="HelveticaNeue,Helvetica Neue" font-size="36.0" fill="#747474" transform="matrix(1.00, 0.00, -0.00, -1.00, 1001.5, 383.7)">?</text><text xml:space="preserve" font-family="HelveticaNeue,Helvetica Neue" font-size="36.0" fill="#747474" transform="matrix(1.00, 0.00, -0.00, -1.00, 1021.5, 383.7)">
</text><text xml:space="preserve" font-family="HelveticaNeue,Helvetica Neue" font-size="36.0" fill="#747474" transform="matrix(1.00, 0.00, -0.00, -1.00, 84.0, 299.7)">M</text><text xml:space="preserve" font-family="HelveticaNeue,Helvetica Neue" font-size="36.0" fill="#747474" transform="matrix(1.00, 0.00, -0.00, -1.00, 115.4, 299.7)">a</text><text xml:space="preserve" font-family="HelveticaNeue,Helvetica Neue" font-size="36.0" fill="#747474" transform="matrix(1.00, 0.00, -0.00, -1.00, 134.7, 299.7)">n</text><text xml:space="preserve" font-family="HelveticaNeue,Helvetica Neue" font-size="36.0" fill="#747474" transform="matrix(1.00, 0.00, -0.00, -1.00, 154.7, 299.7)">y</text><text xml:space="preserve" font-family="HelveticaNeue,Helvetica Neue" font-size="36.0" fill="#747474" transform="matrix(1.00, 0.00, -0.00, -1.00, 172.7, 299.7)"> </text><text xml:space="preserve" font-family="HelveticaNeue,Helvetica Neue" font-size="36.0" fill="#747474" transform="matrix(1.00, 0.00, -0.00, -1.00, 182.7, 299.7)">o</text><text xml:space="preserve" font-family="HelveticaNeue,Helvetica Neue" font-size="36.0" fill="#747474" transform="matrix(1.00, 0.00, -0.00, -1.00, 203.4, 299.7)">r</text><text xml:space="preserve" font-family="HelveticaNeue,Helvetica Neue" font-size="36.0" fill="#747474" transform="matrix(1.00, 0.00, -0.00, -1.00, 214.4, 299.7)">g</text><text xml:space="preserve" font-family="HelveticaNeue,Helvetica Neue" font-size="36.0" fill="#747474" transform="matrix(1.00, 0.00, -0.00, -1.00, 235.0, 299.7)">a</text><text xml:space="preserve" font-family="HelveticaNeue,Helvetica Neue" font-size="36.0" fill="#747474" transform="matrix(1.00, 0.00, -0.00, -1.00, 254.4, 299.7)">n</text><text xml:space="preserve" font-family="HelveticaNeue,Helvetica Neue" font-size="36.0" fill="#747474" transform="matrix(1.00, 0.00, -0.00, -1.00, 274.4, 299.7)">i</text><text xml:space="preserve" font-family="HelveticaNeue,Helvetica Neue" font-size="36.0" fill="#747474" transform="matrix(1.00, 0.00, -0.00, -1.00, 282.4, 299.7)">z</text><text xml:space="preserve" font-family="HelveticaNeue,Helvetica Neue" font-size="36.0" fill="#747474" transform="matrix(1.00, 0.00, -0.00, -1.00, 299.6, 299.7)">a</text><text xml:space="preserve" font-family="HelveticaNeue,Helvetica Neue" font-size="36.0" fill="#747474" transform="matrix(1.00, 0.00, -0.00, -1.00, 319.0, 299.7)">t</text><text xml:space="preserve" font-family="HelveticaNeue,Helvetica Neue" font-size="36.0" fill="#747474" transform="matrix(1.00, 0.00, -0.00, -1.00, 330.3, 299.7)">i</text><text xml:space="preserve" font-family="HelveticaNeue,Helvetica Neue" font-size="36.0" fill="#747474" transform="matrix(1.00, 0.00, -0.00, -1.00, 338.3, 299.7)">o</text><text xml:space="preserve" font-family="HelveticaNeue,Helvetica Neue" font-size="36.0" fill="#747474" transform="matrix(1.00, 0.00, -0.00, -1.00, 359.0, 299.7)">n</text><text xml:space="preserve" font-family="HelveticaNeue,Helvetica Neue" font-size="36.0" fill="#747474" transform="matrix(1.00, 0.00, -0.00, -1.00, 379.0, 299.7)">s</text><text xml:space="preserve" font-family="HelveticaNeue,Helvetica Neue" font-size="36.0" fill="#747474" transform="matrix(1.00, 0.00, -0.00, -1.00, 397.0, 299.7)"> </text><text xml:space="preserve" font-family="HelveticaNeue,Helvetica Neue" font-size="36.0" fill="#747474" transform="matrix(1.00, 0.00, -0.00, -1.00, 407.0, 299.7)">p</text><text xml:space="preserve" font-family="HelveticaNeue,Helvetica Neue" font-size="36.0" fill="#747474" transform="matrix(1.00, 0.00, -0.00, -1.00, 428.3, 299.7)">r</text><text xml:space="preserve" font-family="HelveticaNeue,Helvetica Neue" font-size="36.0" fill="#747474" transform="matrix(1.00, 0.00, -0.00, -1.00, 439.7, 299.7)">o</text><text xml:space="preserve" font-family="HelveticaNeue,Helvetica Neue" font-size="36.0" fill="#747474" transform="matrix(1.00, 0.00, -0.00, -1.00, 460.3, 299.7)">h</text><text xml:space="preserve" font-family="HelveticaNeue,Helvetica Neue" font-size="36.0" fill="#747474" transform="matrix(1.00, 0.00, -0.00, -1.00, 480.4, 299.7)">i</text><text xml:space="preserve" font-family="HelveticaNeue,Helvetica Neue" font-size="36.0" fill="#747474" transform="matrix(1.00, 0.00, -0.00, -1.00, 488.4, 299.7)">b</text><text xml:space="preserve" font-family="HelveticaNeue,Helvetica Neue" font-size="36.0" fill="#747474" transform="matrix(1.00, 0.00, -0.00, -1.00, 509.7, 299.7)">i</text><text xml:space="preserve" font-family="HelveticaNeue,Helvetica Neue" font-size="36.0" fill="#747474" transform="matrix(1.00, 0.00, -0.00, -1.00, 517.7, 299.7)">t</text><text xml:space="preserve" font-family="HelveticaNeue,Helvetica Neue" font-size="36.0" fill="#747474" transform="matrix(1.00, 0.00, -0.00, -1.00, 529.0, 299.7)"> </text><text xml:space="preserve" font-family="HelveticaNeue,Helvetica Neue" font-size="36.0" fill="#747474" transform="matrix(1.00, 0.00, -0.00, -1.00, 539.0, 299.7)">t</text><text xml:space="preserve" font-family="HelveticaNeue,Helvetica Neue" font-size="36.0" fill="#747474" transform="matrix(1.00, 0.00, -0.00, -1.00, 550.4, 299.7)">h</text><text xml:space="preserve" font-family="HelveticaNeue,Helvetica Neue" font-size="36.0" fill="#747474" transform="matrix(1.00, 0.00, -0.00, -1.00, 570.4, 299.7)">e</text><text xml:space="preserve" font-family="HelveticaNeue,Helvetica Neue" font-size="36.0" fill="#747474" transform="matrix(1.00, 0.00, -0.00, -1.00, 589.7, 299.7)">i</text><text xml:space="preserve" font-family="HelveticaNeue,Helvetica Neue" font-size="36.0" fill="#747474" transform="matrix(1.00, 0.00, -0.00, -1.00, 597.7, 299.7)">r</text><text xml:space="preserve" font-family="HelveticaNeue,Helvetica Neue" font-size="36.0" fill="#747474" transform="matrix(1.00, 0.00, -0.00, -1.00, 609.7, 299.7)"> </text><text xml:space="preserve" font-family="HelveticaNeue,Helvetica Neue" font-size="36.0" fill="#747474" transform="matrix(1.00, 0.00, -0.00, -1.00, 619.7, 299.7)">m</text><text xml:space="preserve" font-family="HelveticaNeue,Helvetica Neue" font-size="36.0" fill="#747474" transform="matrix(1.00, 0.00, -0.00, -1.00, 650.4, 299.7)">e</text><text xml:space="preserve" font-family="HelveticaNeue,Helvetica Neue" font-size="36.0" fill="#747474" transform="matrix(1.00, 0.00, -0.00, -1.00, 669.8, 299.7)">m</text><text xml:space="preserve" font-family="HelveticaNeue,Helvetica Neue" font-size="36.0" fill="#747474" transform="matrix(1.00, 0.00, -0.00, -1.00, 700.5, 299.7)">b</text><text xml:space="preserve" font-family="HelveticaNeue,Helvetica Neue" font-size="36.0" fill="#747474" transform="matrix(1.00, 0.00, -0.00, -1.00, 721.8, 299.7)">e</text><text xml:space="preserve" font-family="HelveticaNeue,Helvetica Neue" font-size="36.0" fill="#747474" transform="matrix(1.00, 0.00, -0.00, -1.00, 741.1, 299.7)">r</text><text xml:space="preserve" font-family="HelveticaNeue,Helvetica Neue" font-size="36.0" fill="#747474" transform="matrix(1.00, 0.00, -0.00, -1.00, 753.1, 299.7)">s</text><text xml:space="preserve" font-family="HelveticaNeue,Helvetica Neue" font-size="36.0" fill="#747474" transform="matrix(1.00, 0.00, -0.00, -1.00, 771.1, 299.7)"> </text><text xml:space="preserve" font-family="HelveticaNeue,Helvetica Neue" font-size="36.0" fill="#747474" transform="matrix(1.00, 0.00, -0.00, -1.00, 781.1, 299.7)">t</text><text xml:space="preserve" font-family="HelveticaNeue,Helvetica Neue" font-size="36.0" fill="#747474" transform="matrix(1.00, 0.00, -0.00, -1.00, 792.5, 299.7)">o</text><text xml:space="preserve" font-family="HelveticaNeue,Helvetica Neue" font-size="36.0" fill="#747474" transform="matrix(1.00, 0.00, -0.00, -1.00, 813.1, 299.7)"> </text><text xml:space="preserve" font-family="HelveticaNeue,Helvetica Neue" font-size="36.0" fill="#747474" transform="matrix(1.00, 0.00, -0.00, -1.00, 823.2, 299.7)">d</text><text xml:space="preserve" font-family="HelveticaNeue,Helvetica Neue" font-size="36.0" fill="#747474" transform="matrix(1.00, 0.00, -0.00, -1.00, 844.5, 299.7)">o</text><text xml:space="preserve" font-family="HelveticaNeue,Helvetica Neue" font-size="36.0" fill="#747474" transform="matrix(1.00, 0.00, -0.00, -1.00, 865.2, 299.7)"> </text><text xml:space="preserve" font-family="HelveticaNeue,Helvetica Neue" font-size="36.0" fill="#747474" transform="matrix(1.00, 0.00, -0.00, -1.00, 875.2, 299.7)">s</text><text xml:space="preserve" font-family="HelveticaNeue,Helvetica Neue" font-size="36.0" fill="#747474" transform="matrix(1.00, 0.00, -0.00, -1.00, 893.2, 299.7)">p</text><text xml:space="preserve" font-family="HelveticaNeue,Helvetica Neue" font-size="36.0" fill="#747474" transform="matrix(1.00, 0.00, -0.00, -1.00, 914.5, 299.7)">e</text><text xml:space="preserve" font-family="HelveticaNeue,Helvetica Neue" font-size="36.0" fill="#747474" transform="matrix(1.00, 0.00, -0.00, -1.00, 933.9, 299.7)">c</text><text xml:space="preserve" font-family="HelveticaNeue,Helvetica Neue" font-size="36.0" fill="#747474" transform="matrix(1.00, 0.00, -0.00, -1.00, 953.2, 299.7)"> </text><text xml:space="preserve" font-family="HelveticaNeue,Helvetica Neue" font-size="36.0" fill="#747474" transform="matrix(1.00, 0.00, -0.00, -1.00, 963.2, 299.7)">w</text><text xml:space="preserve" font-family="HelveticaNeue,Helvetica Neue" font-size="36.0" fill="#747474" transform="matrix(1.00, 0.00, -0.00, -1.00, 990.5, 299.7)">o</text><text xml:space="preserve" font-family="HelveticaNeue,Helvetica Neue" font-size="36.0" fill="#747474" transform="matrix(1.00, 0.00, -0.00, -1.00, 1011.1, 299.7)">r</text><text xml:space="preserve" font-family="HelveticaNeue,Helvetica Neue" font-size="36.0" fill="#747474" transform="matrix(1.00, 0.00, -0.00, -1.00, 1023.1, 299.7)">k</text><text xml:space="preserve" font-family="HelveticaNeue,Helvetica Neue" font-size="36.0" fill="#747474" transform="matrix(1.00, 0.00, -0.00, -1.00, 1041.8, 299.7)">.</text><g><clipPath id="clip0x7f97494b3810"><path d="M 83.0 294.2 L 1051.8 294.2 L 1051.8 298.0 L 83.0 298.0 Z M 83.0 294.2 "></path></clipPath><g clip-path="url(#clip0x7f97494b3810)"><path d="M 4.0 252.9 L 971.8 252.9 " fill="none" stroke="#747474" stroke-width="1.80" transform="matrix(1.00, 0.00, 0.00, -1.00, 80.0, 549.0)"></path></g></g></g></svg>