<?xml version="1.0" encoding="UTF-8" standalone="no"?><svg xmlns="http://www.w3.org/2000/svg" xmlns:xlink="http://www.w3.org/1999/xlink" clip-rule="evenodd" stroke-miterlimit="10" viewBox="0 0 1280 720"><desc>SVG generated by Keynote</desc><defs></defs><g transform="matrix(1.00, 0.00, -0.00, -1.00, 0.0, 720.0)"><path d="M 0.0 720.0 L 1280.0 720.0 L 1280.0 0.0 L 0.0 0.0 Z M 0.0 720.0 " fill="#FFFFFF"></path><path d="M 0.0 0.5 L 1153.0 0.5 " fill="none" stroke="#9A9A9A" stroke-width="1.00" transform="matrix(1.00, 0.00, 0.00, -1.00, 64.0, 575.0)"></path><text xml:space="preserve" font-family="HelveticaNeue-Light,Helvetica Neue" font-size="38.0" fill="#000000" transform="matrix(1.00, 0.00, -0.00, -1.00, 60.0, 605.2)">A</text><text xml:space="preserve" font-family="HelveticaNeue-Light,Helvetica Neue" font-size="38.0" fill="#000000" transform="matrix(1.00, 0.00, -0.00, -1.00, 83.9, 605.2)">m</text><text xml:space="preserve" font-family="HelveticaNeue-Light,Helvetica Neue" font-size="38.0" fill="#000000" transform="matrix(1.00, 0.00, -0.00, -1.00, 115.6, 605.2)">a</text><text xml:space="preserve" font-family="HelveticaNeue-Light,Helvetica Neue" font-size="38.0" fill="#000000" transform="matrix(1.00, 0.00, -0.00, -1.00, 135.3, 605.2)">z</text><text xml:space="preserve" font-family="HelveticaNeue-Light,Helvetica Neue" font-size="38.0" fill="#000000" transform="matrix(1.00, 0.00, -0.00, -1.00, 152.9, 605.2)">o</text><text xml:space="preserve" font-family="HelveticaNeue-Light,Helvetica Neue" font-size="38.0" fill="#000000" transform="matrix(1.00, 0.00, -0.00, -1.00, 174.0, 605.2)">n</text><text xml:space="preserve" font-family="HelveticaNeue-Light,Helvetica Neue" font-size="38.0" fill="#000000" transform="matrix(1.00, 0.00, -0.00, -1.00, 194.4, 605.2)">.</text><text xml:space="preserve" font-family="HelveticaNeue-Light,Helvetica Neue" font-size="38.0" fill="#000000" transform="matrix(1.00, 0.00, -0.00, -1.00, 205.0, 605.2)">c</text><text xml:space="preserve" font-family="HelveticaNeue-Light,Helvetica Neue" font-size="38.0" fill="#000000" transform="matrix(1.00, 0.00, -0.00, -1.00, 224.7, 605.2)">o</text><text xml:space="preserve" font-family="HelveticaNeue-Light,Helvetica Neue" font-size="38.0" fill="#000000" transform="matrix(1.00, 0.00, -0.00, -1.00, 245.9, 605.2)">m</text><image xlink:href="../../6D76886E-592F-44F3-BD9C-10777A7BB615/assets/263FFE3E839B666430C3C4390030175D.png" width="1024.00" height="785.00" transform="matrix(0.94, 0.00, -0.00, -0.94, 160.0, 567.0)"></image></g></svg>