<?xml version="1.0" encoding="UTF-8" standalone="no"?><svg xmlns="http://www.w3.org/2000/svg" xmlns:xlink="http://www.w3.org/1999/xlink" clip-rule="evenodd" stroke-miterlimit="10" viewBox="0 0 1280 720"><desc>SVG generated by Keynote</desc><defs></defs><g transform="matrix(1.00, 0.00, -0.00, -1.00, 0.0, 720.0)"><path d="M 0.0 720.0 L 1280.0 720.0 L 1280.0 0.0 L 0.0 0.0 Z M 0.0 720.0 " fill="#FFFFFF"></path><path d="M 0.0 0.5 L 1114.0 0.5 " fill="none" stroke="#9A9A9A" stroke-width="1.00" transform="matrix(1.00, 0.00, 0.00, -1.00, 83.0, 575.0)"></path><text xml:space="preserve" font-family="HelveticaNeue-Light,Helvetica Neue" font-size="48.0" fill="#000000" transform="matrix(1.00, 0.00, -0.00, -1.00, 84.0, 606.6)">C</text><text xml:space="preserve" font-family="HelveticaNeue-Light,Helvetica Neue" font-size="48.0" fill="#000000" transform="matrix(1.00, 0.00, -0.00, -1.00, 117.8, 606.6)">r</text><text xml:space="preserve" font-family="HelveticaNeue-Light,Helvetica Neue" font-size="48.0" fill="#000000" transform="matrix(1.00, 0.00, -0.00, -1.00, 132.0, 606.6)">e</text><text xml:space="preserve" font-family="HelveticaNeue-Light,Helvetica Neue" font-size="48.0" fill="#000000" transform="matrix(1.00, 0.00, -0.00, -1.00, 157.0, 606.6)">a</text><text xml:space="preserve" font-family="HelveticaNeue-Light,Helvetica Neue" font-size="48.0" fill="#000000" transform="matrix(1.00, 0.00, -0.00, -1.00, 181.9, 606.6)">t</text><text xml:space="preserve" font-family="HelveticaNeue-Light,Helvetica Neue" font-size="48.0" fill="#000000" transform="matrix(1.00, 0.00, -0.00, -1.00, 196.1, 606.6)">i</text><text xml:space="preserve" font-family="HelveticaNeue-Light,Helvetica Neue" font-size="48.0" fill="#000000" transform="matrix(1.00, 0.00, -0.00, -1.00, 205.0, 606.6)">v</text><text xml:space="preserve" font-family="HelveticaNeue-Light,Helvetica Neue" font-size="48.0" fill="#000000" transform="matrix(1.00, 0.00, -0.00, -1.00, 227.2, 606.6)">e</text><text xml:space="preserve" font-family="HelveticaNeue-Light,Helvetica Neue" font-size="48.0" fill="#000000" transform="matrix(1.00, 0.00, -0.00, -1.00, 252.1, 606.6)"> </text><text xml:space="preserve" font-family="HelveticaNeue-Light,Helvetica Neue" font-size="48.0" fill="#000000" transform="matrix(1.00, 0.00, -0.00, -1.00, 265.4, 606.6)">C</text><text xml:space="preserve" font-family="HelveticaNeue-Light,Helvetica Neue" font-size="48.0" fill="#000000" transform="matrix(1.00, 0.00, -0.00, -1.00, 299.2, 606.6)">o</text><text xml:space="preserve" font-family="HelveticaNeue-Light,Helvetica Neue" font-size="48.0" fill="#000000" transform="matrix(1.00, 0.00, -0.00, -1.00, 325.9, 606.6)">m</text><text xml:space="preserve" font-family="HelveticaNeue-Light,Helvetica Neue" font-size="48.0" fill="#000000" transform="matrix(1.00, 0.00, -0.00, -1.00, 365.9, 606.6)">m</text><text xml:space="preserve" font-family="HelveticaNeue-Light,Helvetica Neue" font-size="48.0" fill="#000000" transform="matrix(1.00, 0.00, -0.00, -1.00, 405.9, 606.6)">o</text><text xml:space="preserve" font-family="HelveticaNeue-Light,Helvetica Neue" font-size="48.0" fill="#000000" transform="matrix(1.00, 0.00, -0.00, -1.00, 432.6, 606.6)">n</text><text xml:space="preserve" font-family="HelveticaNeue-Light,Helvetica Neue" font-size="48.0" fill="#000000" transform="matrix(1.00, 0.00, -0.00, -1.00, 458.4, 606.6)">s</text><text xml:space="preserve" font-family="HelveticaNeue,Helvetica Neue" font-size="36.0" fill="#747474" transform="matrix(1.00, 0.00, -0.00, -1.00, 84.0, 510.7)">C</text><text xml:space="preserve" font-family="HelveticaNeue,Helvetica Neue" font-size="36.0" fill="#747474" transform="matrix(1.00, 0.00, -0.00, -1.00, 110.0, 510.7)">r</text><text xml:space="preserve" font-family="HelveticaNeue,Helvetica Neue" font-size="36.0" fill="#747474" transform="matrix(1.00, 0.00, -0.00, -1.00, 121.3, 510.7)">e</text><text xml:space="preserve" font-family="HelveticaNeue,Helvetica Neue" font-size="36.0" fill="#747474" transform="matrix(1.00, 0.00, -0.00, -1.00, 140.7, 510.7)">a</text><text xml:space="preserve" font-family="HelveticaNeue,Helvetica Neue" font-size="36.0" fill="#747474" transform="matrix(1.00, 0.00, -0.00, -1.00, 160.0, 510.7)">t</text><text xml:space="preserve" font-family="HelveticaNeue,Helvetica Neue" font-size="36.0" fill="#747474" transform="matrix(1.00, 0.00, -0.00, -1.00, 171.3, 510.7)">e</text><text xml:space="preserve" font-family="HelveticaNeue,Helvetica Neue" font-size="36.0" fill="#747474" transform="matrix(1.00, 0.00, -0.00, -1.00, 190.7, 510.7)">d</text><text xml:space="preserve" font-family="HelveticaNeue,Helvetica Neue" font-size="36.0" fill="#747474" transform="matrix(1.00, 0.00, -0.00, -1.00, 212.0, 510.7)"> </text><text xml:space="preserve" font-family="HelveticaNeue,Helvetica Neue" font-size="36.0" fill="#747474" transform="matrix(1.00, 0.00, -0.00, -1.00, 222.0, 510.7)">b</text><text xml:space="preserve" font-family="HelveticaNeue,Helvetica Neue" font-size="36.0" fill="#747474" transform="matrix(1.00, 0.00, -0.00, -1.00, 243.4, 510.7)">y</text><text xml:space="preserve" font-family="HelveticaNeue,Helvetica Neue" font-size="36.0" fill="#747474" transform="matrix(1.00, 0.00, -0.00, -1.00, 261.4, 510.7)"> </text><text xml:space="preserve" font-family="HelveticaNeue,Helvetica Neue" font-size="36.0" fill="#747474" transform="matrix(1.00, 0.00, -0.00, -1.00, 271.4, 510.7)">L</text><text xml:space="preserve" font-family="HelveticaNeue,Helvetica Neue" font-size="36.0" fill="#747474" transform="matrix(1.00, 0.00, -0.00, -1.00, 291.4, 510.7)">a</text><text xml:space="preserve" font-family="HelveticaNeue,Helvetica Neue" font-size="36.0" fill="#747474" transform="matrix(1.00, 0.00, -0.00, -1.00, 310.7, 510.7)">w</text><text xml:space="preserve" font-family="HelveticaNeue,Helvetica Neue" font-size="36.0" fill="#747474" transform="matrix(1.00, 0.00, -0.00, -1.00, 338.0, 510.7)">r</text><text xml:space="preserve" font-family="HelveticaNeue,Helvetica Neue" font-size="36.0" fill="#747474" transform="matrix(1.00, 0.00, -0.00, -1.00, 349.4, 510.7)">e</text><text xml:space="preserve" font-family="HelveticaNeue,Helvetica Neue" font-size="36.0" fill="#747474" transform="matrix(1.00, 0.00, -0.00, -1.00, 368.7, 510.7)">n</text><text xml:space="preserve" font-family="HelveticaNeue,Helvetica Neue" font-size="36.0" fill="#747474" transform="matrix(1.00, 0.00, -0.00, -1.00, 388.7, 510.7)">c</text><text xml:space="preserve" font-family="HelveticaNeue,Helvetica Neue" font-size="36.0" fill="#747474" transform="matrix(1.00, 0.00, -0.00, -1.00, 408.0, 510.7)">e</text><text xml:space="preserve" font-family="HelveticaNeue,Helvetica Neue" font-size="36.0" fill="#747474" transform="matrix(1.00, 0.00, -0.00, -1.00, 427.4, 510.7)"> </text><text xml:space="preserve" font-family="HelveticaNeue,Helvetica Neue" font-size="36.0" fill="#747474" transform="matrix(1.00, 0.00, -0.00, -1.00, 437.4, 510.7)">L</text><text xml:space="preserve" font-family="HelveticaNeue,Helvetica Neue" font-size="36.0" fill="#747474" transform="matrix(1.00, 0.00, -0.00, -1.00, 457.4, 510.7)">e</text><text xml:space="preserve" font-family="HelveticaNeue,Helvetica Neue" font-size="36.0" fill="#747474" transform="matrix(1.00, 0.00, -0.00, -1.00, 476.7, 510.7)">s</text><text xml:space="preserve" font-family="HelveticaNeue,Helvetica Neue" font-size="36.0" fill="#747474" transform="matrix(1.00, 0.00, -0.00, -1.00, 494.7, 510.7)">s</text><text xml:space="preserve" font-family="HelveticaNeue,Helvetica Neue" font-size="36.0" fill="#747474" transform="matrix(1.00, 0.00, -0.00, -1.00, 512.7, 510.7)">i</text><text xml:space="preserve" font-family="HelveticaNeue,Helvetica Neue" font-size="36.0" fill="#747474" transform="matrix(1.00, 0.00, -0.00, -1.00, 520.7, 510.7)">g</text><text xml:space="preserve" font-family="HelveticaNeue,Helvetica Neue" font-size="36.0" fill="#747474" transform="matrix(1.00, 0.00, -0.00, -1.00, 541.4, 510.7)"> </text><text xml:space="preserve" font-family="HelveticaNeue,Helvetica Neue" font-size="36.0" fill="#747474" transform="matrix(1.00, 0.00, -0.00, -1.00, 551.4, 510.7)">i</text><text xml:space="preserve" font-family="HelveticaNeue,Helvetica Neue" font-size="36.0" fill="#747474" transform="matrix(1.00, 0.00, -0.00, -1.00, 559.4, 510.7)">n</text><text xml:space="preserve" font-family="HelveticaNeue,Helvetica Neue" font-size="36.0" fill="#747474" transform="matrix(1.00, 0.00, -0.00, -1.00, 579.4, 510.7)"> </text><text xml:space="preserve" font-family="HelveticaNeue,Helvetica Neue" font-size="36.0" fill="#747474" transform="matrix(1.00, 0.00, -0.00, -1.00, 589.4, 510.7)">2</text><text xml:space="preserve" font-family="HelveticaNeue,Helvetica Neue" font-size="36.0" fill="#747474" transform="matrix(1.00, 0.00, -0.00, -1.00, 609.4, 510.7)">0</text><text xml:space="preserve" font-family="HelveticaNeue,Helvetica Neue" font-size="36.0" fill="#747474" transform="matrix(1.00, 0.00, -0.00, -1.00, 629.4, 510.7)">0</text><text xml:space="preserve" font-family="HelveticaNeue,Helvetica Neue" font-size="36.0" fill="#747474" transform="matrix(1.00, 0.00, -0.00, -1.00, 649.5, 510.7)">1</text><text xml:space="preserve" font-family="HelveticaNeue,Helvetica Neue" font-size="36.0" fill="#747474" transform="matrix(1.00, 0.00, -0.00, -1.00, 669.5, 510.7)"> </text><text xml:space="preserve" font-family="HelveticaNeue,Helvetica Neue" font-size="36.0" fill="#747474" transform="matrix(1.00, 0.00, -0.00, -1.00, 679.5, 510.7)">t</text><text xml:space="preserve" font-family="HelveticaNeue,Helvetica Neue" font-size="36.0" fill="#747474" transform="matrix(1.00, 0.00, -0.00, -1.00, 690.8, 510.7)">o</text><text xml:space="preserve" font-family="HelveticaNeue,Helvetica Neue" font-size="36.0" fill="#747474" transform="matrix(1.00, 0.00, -0.00, -1.00, 711.5, 510.7)"> </text><text xml:space="preserve" font-family="HelveticaNeue,Helvetica Neue" font-size="36.0" fill="#747474" transform="matrix(1.00, 0.00, -0.00, -1.00, 721.5, 510.7)">p</text><text xml:space="preserve" font-family="HelveticaNeue,Helvetica Neue" font-size="36.0" fill="#747474" transform="matrix(1.00, 0.00, -0.00, -1.00, 742.8, 510.7)">r</text><text xml:space="preserve" font-family="HelveticaNeue,Helvetica Neue" font-size="36.0" fill="#747474" transform="matrix(1.00, 0.00, -0.00, -1.00, 754.2, 510.7)">o</text><text xml:space="preserve" font-family="HelveticaNeue,Helvetica Neue" font-size="36.0" fill="#747474" transform="matrix(1.00, 0.00, -0.00, -1.00, 774.8, 510.7)">v</text><text xml:space="preserve" font-family="HelveticaNeue,Helvetica Neue" font-size="36.0" fill="#747474" transform="matrix(1.00, 0.00, -0.00, -1.00, 792.8, 510.7)">i</text><text xml:space="preserve" font-family="HelveticaNeue,Helvetica Neue" font-size="36.0" fill="#747474" transform="matrix(1.00, 0.00, -0.00, -1.00, 800.8, 510.7)">d</text><text xml:space="preserve" font-family="HelveticaNeue,Helvetica Neue" font-size="36.0" fill="#747474" transform="matrix(1.00, 0.00, -0.00, -1.00, 822.2, 510.7)">e</text><text xml:space="preserve" font-family="HelveticaNeue,Helvetica Neue" font-size="36.0" fill="#747474" transform="matrix(1.00, 0.00, -0.00, -1.00, 841.5, 510.7)"> </text><text xml:space="preserve" font-family="HelveticaNeue,Helvetica Neue" font-size="36.0" fill="#747474" transform="matrix(1.00, 0.00, -0.00, -1.00, 851.5, 510.7)">a</text><text xml:space="preserve" font-family="HelveticaNeue,Helvetica Neue" font-size="36.0" fill="#747474" transform="matrix(1.00, 0.00, -0.00, -1.00, 870.9, 510.7)">n</text><text xml:space="preserve" font-family="HelveticaNeue,Helvetica Neue" font-size="36.0" fill="#747474" transform="matrix(1.00, 0.00, -0.00, -1.00, 890.9, 510.7)"> </text><text xml:space="preserve" font-family="HelveticaNeue,Helvetica Neue" font-size="36.0" fill="#747474" transform="matrix(1.00, 0.00, -0.00, -1.00, 900.9, 510.7)">a</text><text xml:space="preserve" font-family="HelveticaNeue,Helvetica Neue" font-size="36.0" fill="#747474" transform="matrix(1.00, 0.00, -0.00, -1.00, 920.2, 510.7)">l</text><text xml:space="preserve" font-family="HelveticaNeue,Helvetica Neue" font-size="36.0" fill="#747474" transform="matrix(1.00, 0.00, -0.00, -1.00, 928.2, 510.7)">t</text><text xml:space="preserve" font-family="HelveticaNeue,Helvetica Neue" font-size="36.0" fill="#747474" transform="matrix(1.00, 0.00, -0.00, -1.00, 939.5, 510.7)">e</text><text xml:space="preserve" font-family="HelveticaNeue,Helvetica Neue" font-size="36.0" fill="#747474" transform="matrix(1.00, 0.00, -0.00, -1.00, 958.9, 510.7)">r</text><text xml:space="preserve" font-family="HelveticaNeue,Helvetica Neue" font-size="36.0" fill="#747474" transform="matrix(1.00, 0.00, -0.00, -1.00, 971.5, 510.7)">n</text><text xml:space="preserve" font-family="HelveticaNeue,Helvetica Neue" font-size="36.0" fill="#747474" transform="matrix(1.00, 0.00, -0.00, -1.00, 991.5, 510.7)">a</text><text xml:space="preserve" font-family="HelveticaNeue,Helvetica Neue" font-size="36.0" fill="#747474" transform="matrix(1.00, 0.00, -0.00, -1.00, 1010.9, 510.7)">t</text><text xml:space="preserve" font-family="HelveticaNeue,Helvetica Neue" font-size="36.0" fill="#747474" transform="matrix(1.00, 0.00, -0.00, -1.00, 1022.2, 510.7)">i</text><text xml:space="preserve" font-family="HelveticaNeue,Helvetica Neue" font-size="36.0" fill="#747474" transform="matrix(1.00, 0.00, -0.00, -1.00, 1030.2, 510.7)">v</text><text xml:space="preserve" font-family="HelveticaNeue,Helvetica Neue" font-size="36.0" fill="#747474" transform="matrix(1.00, 0.00, -0.00, -1.00, 1048.2, 510.7)">e</text><text xml:space="preserve" font-family="HelveticaNeue,Helvetica Neue" font-size="36.0" fill="#747474" transform="matrix(1.00, 0.00, -0.00, -1.00, 1067.5, 510.7)"> </text><text xml:space="preserve" font-family="HelveticaNeue,Helvetica Neue" font-size="36.0" fill="#747474" transform="matrix(1.00, 0.00, -0.00, -1.00, 1077.5, 510.7)">t</text><text xml:space="preserve" font-family="HelveticaNeue,Helvetica Neue" font-size="36.0" fill="#747474" transform="matrix(1.00, 0.00, -0.00, -1.00, 1088.9, 510.7)">o</text><text xml:space="preserve" font-family="HelveticaNeue,Helvetica Neue" font-size="36.0" fill="#747474" transform="matrix(1.00, 0.00, -0.00, -1.00, 1109.5, 510.7)"> </text><text xml:space="preserve" font-family="HelveticaNeue,Helvetica Neue" font-size="36.0" fill="#747474" transform="matrix(1.00, 0.00, -0.00, -1.00, 1119.5, 510.7)">‘</text><text xml:space="preserve" font-family="HelveticaNeue,Helvetica Neue" font-size="36.0" fill="#747474" transform="matrix(1.00, 0.00, -0.00, -1.00, 1129.5, 510.7)">A</text><text xml:space="preserve" font-family="HelveticaNeue,Helvetica Neue" font-size="36.0" fill="#747474" transform="matrix(1.00, 0.00, -0.00, -1.00, 1152.9, 510.7)">l</text><text xml:space="preserve" font-family="HelveticaNeue,Helvetica Neue" font-size="36.0" fill="#747474" transform="matrix(1.00, 0.00, -0.00, -1.00, 1160.9, 510.7)">l</text><text xml:space="preserve" font-family="HelveticaNeue,Helvetica Neue" font-size="36.0" fill="#747474" transform="matrix(1.00, 0.00, -0.00, -1.00, 1168.9, 510.7)"> </text><text xml:space="preserve" font-family="HelveticaNeue,Helvetica Neue" font-size="36.0" fill="#747474" transform="matrix(1.00, 0.00, -0.00, -1.00, 84.0, 467.7)">R</text><text xml:space="preserve" font-family="HelveticaNeue,Helvetica Neue" font-size="36.0" fill="#747474" transform="matrix(1.00, 0.00, -0.00, -1.00, 108.7, 467.7)">i</text><text xml:space="preserve" font-family="HelveticaNeue,Helvetica Neue" font-size="36.0" fill="#747474" transform="matrix(1.00, 0.00, -0.00, -1.00, 116.7, 467.7)">g</text><text xml:space="preserve" font-family="HelveticaNeue,Helvetica Neue" font-size="36.0" fill="#747474" transform="matrix(1.00, 0.00, -0.00, -1.00, 137.3, 467.7)">h</text><text xml:space="preserve" font-family="HelveticaNeue,Helvetica Neue" font-size="36.0" fill="#747474" transform="matrix(1.00, 0.00, -0.00, -1.00, 157.3, 467.7)">t</text><text xml:space="preserve" font-family="HelveticaNeue,Helvetica Neue" font-size="36.0" fill="#747474" transform="matrix(1.00, 0.00, -0.00, -1.00, 168.7, 467.7)"> </text><text xml:space="preserve" font-family="HelveticaNeue,Helvetica Neue" font-size="36.0" fill="#747474" transform="matrix(1.00, 0.00, -0.00, -1.00, 178.7, 467.7)">R</text><text xml:space="preserve" font-family="HelveticaNeue,Helvetica Neue" font-size="36.0" fill="#747474" transform="matrix(1.00, 0.00, -0.00, -1.00, 203.3, 467.7)">e</text><text xml:space="preserve" font-family="HelveticaNeue,Helvetica Neue" font-size="36.0" fill="#747474" transform="matrix(1.00, 0.00, -0.00, -1.00, 222.7, 467.7)">s</text><text xml:space="preserve" font-family="HelveticaNeue,Helvetica Neue" font-size="36.0" fill="#747474" transform="matrix(1.00, 0.00, -0.00, -1.00, 240.7, 467.7)">e</text><text xml:space="preserve" font-family="HelveticaNeue,Helvetica Neue" font-size="36.0" fill="#747474" transform="matrix(1.00, 0.00, -0.00, -1.00, 260.0, 467.7)">r</text><text xml:space="preserve" font-family="HelveticaNeue,Helvetica Neue" font-size="36.0" fill="#747474" transform="matrix(1.00, 0.00, -0.00, -1.00, 272.0, 467.7)">v</text><text xml:space="preserve" font-family="HelveticaNeue,Helvetica Neue" font-size="36.0" fill="#747474" transform="matrix(1.00, 0.00, -0.00, -1.00, 290.0, 467.7)">e</text><text xml:space="preserve" font-family="HelveticaNeue,Helvetica Neue" font-size="36.0" fill="#747474" transform="matrix(1.00, 0.00, -0.00, -1.00, 309.3, 467.7)">d</text><text xml:space="preserve" font-family="HelveticaNeue,Helvetica Neue" font-size="36.0" fill="#747474" transform="matrix(1.00, 0.00, -0.00, -1.00, 330.7, 467.7)">’</text><text xml:space="preserve" font-family="HelveticaNeue,Helvetica Neue" font-size="36.0" fill="#747474" transform="matrix(1.00, 0.00, -0.00, -1.00, 340.7, 467.7)"> </text><text xml:space="preserve" font-family="HelveticaNeue,Helvetica Neue" font-size="36.0" fill="#747474" transform="matrix(1.00, 0.00, -0.00, -1.00, 350.7, 467.7)">c</text><text xml:space="preserve" font-family="HelveticaNeue,Helvetica Neue" font-size="36.0" fill="#747474" transform="matrix(1.00, 0.00, -0.00, -1.00, 370.0, 467.7)">o</text><text xml:space="preserve" font-family="HelveticaNeue,Helvetica Neue" font-size="36.0" fill="#747474" transform="matrix(1.00, 0.00, -0.00, -1.00, 390.7, 467.7)">p</text><text xml:space="preserve" font-family="HelveticaNeue,Helvetica Neue" font-size="36.0" fill="#747474" transform="matrix(1.00, 0.00, -0.00, -1.00, 412.0, 467.7)">y</text><text xml:space="preserve" font-family="HelveticaNeue,Helvetica Neue" font-size="36.0" fill="#747474" transform="matrix(1.00, 0.00, -0.00, -1.00, 430.0, 467.7)">r</text><text xml:space="preserve" font-family="HelveticaNeue,Helvetica Neue" font-size="36.0" fill="#747474" transform="matrix(1.00, 0.00, -0.00, -1.00, 442.0, 467.7)">i</text><text xml:space="preserve" font-family="HelveticaNeue,Helvetica Neue" font-size="36.0" fill="#747474" transform="matrix(1.00, 0.00, -0.00, -1.00, 450.0, 467.7)">g</text><text xml:space="preserve" font-family="HelveticaNeue,Helvetica Neue" font-size="36.0" fill="#747474" transform="matrix(1.00, 0.00, -0.00, -1.00, 470.7, 467.7)">h</text><text xml:space="preserve" font-family="HelveticaNeue,Helvetica Neue" font-size="36.0" fill="#747474" transform="matrix(1.00, 0.00, -0.00, -1.00, 490.7, 467.7)">t</text><text xml:space="preserve" font-family="HelveticaNeue,Helvetica Neue" font-size="36.0" fill="#747474" transform="matrix(1.00, 0.00, -0.00, -1.00, 502.0, 467.7)">
</text><text xml:space="preserve" font-family="HelveticaNeue,Helvetica Neue" font-size="36.0" fill="#747474" transform="matrix(1.00, 0.00, -0.00, -1.00, 84.0, 383.7)">U</text><text xml:space="preserve" font-family="HelveticaNeue,Helvetica Neue" font-size="36.0" fill="#747474" transform="matrix(1.00, 0.00, -0.00, -1.00, 110.0, 383.7)">s</text><text xml:space="preserve" font-family="HelveticaNeue,Helvetica Neue" font-size="36.0" fill="#747474" transform="matrix(1.00, 0.00, -0.00, -1.00, 128.0, 383.7)">e</text><text xml:space="preserve" font-family="HelveticaNeue,Helvetica Neue" font-size="36.0" fill="#747474" transform="matrix(1.00, 0.00, -0.00, -1.00, 147.3, 383.7)">d</text><text xml:space="preserve" font-family="HelveticaNeue,Helvetica Neue" font-size="36.0" fill="#747474" transform="matrix(1.00, 0.00, -0.00, -1.00, 168.7, 383.7)"> </text><text xml:space="preserve" font-family="HelveticaNeue,Helvetica Neue" font-size="36.0" fill="#747474" transform="matrix(1.00, 0.00, -0.00, -1.00, 178.7, 383.7)">w</text><text xml:space="preserve" font-family="HelveticaNeue,Helvetica Neue" font-size="36.0" fill="#747474" transform="matrix(1.00, 0.00, -0.00, -1.00, 206.0, 383.7)">i</text><text xml:space="preserve" font-family="HelveticaNeue,Helvetica Neue" font-size="36.0" fill="#747474" transform="matrix(1.00, 0.00, -0.00, -1.00, 214.0, 383.7)">t</text><text xml:space="preserve" font-family="HelveticaNeue,Helvetica Neue" font-size="36.0" fill="#747474" transform="matrix(1.00, 0.00, -0.00, -1.00, 225.3, 383.7)">h</text><text xml:space="preserve" font-family="HelveticaNeue,Helvetica Neue" font-size="36.0" fill="#747474" transform="matrix(1.00, 0.00, -0.00, -1.00, 245.3, 383.7)">i</text><text xml:space="preserve" font-family="HelveticaNeue,Helvetica Neue" font-size="36.0" fill="#747474" transform="matrix(1.00, 0.00, -0.00, -1.00, 253.3, 383.7)">n</text><text xml:space="preserve" font-family="HelveticaNeue,Helvetica Neue" font-size="36.0" fill="#747474" transform="matrix(1.00, 0.00, -0.00, -1.00, 273.3, 383.7)"> </text><text xml:space="preserve" font-family="HelveticaNeue,Helvetica Neue" font-size="36.0" fill="#747474" transform="matrix(1.00, 0.00, -0.00, -1.00, 283.3, 383.7)">F</text><text xml:space="preserve" font-family="HelveticaNeue,Helvetica Neue" font-size="36.0" fill="#747474" transform="matrix(1.00, 0.00, -0.00, -1.00, 304.0, 383.7)">l</text><text xml:space="preserve" font-family="HelveticaNeue,Helvetica Neue" font-size="36.0" fill="#747474" transform="matrix(1.00, 0.00, -0.00, -1.00, 312.0, 383.7)">i</text><text xml:space="preserve" font-family="HelveticaNeue,Helvetica Neue" font-size="36.0" fill="#747474" transform="matrix(1.00, 0.00, -0.00, -1.00, 320.0, 383.7)">c</text><text xml:space="preserve" font-family="HelveticaNeue,Helvetica Neue" font-size="36.0" fill="#747474" transform="matrix(1.00, 0.00, -0.00, -1.00, 339.3, 383.7)">k</text><text xml:space="preserve" font-family="HelveticaNeue,Helvetica Neue" font-size="36.0" fill="#747474" transform="matrix(1.00, 0.00, -0.00, -1.00, 358.0, 383.7)">r</text><text xml:space="preserve" font-family="HelveticaNeue,Helvetica Neue" font-size="36.0" fill="#747474" transform="matrix(1.00, 0.00, -0.00, -1.00, 370.0, 383.7)">
</text><g><clipPath id="clip0x7f97497125d0"><path d="M 83.0 378.2 L 370.0 378.2 L 370.0 382.0 L 83.0 382.0 Z M 83.0 378.2 "></path></clipPath><g clip-path="url(#clip0x7f97497125d0)"><path d="M 4.0 168.9 L 290.0 168.9 " fill="none" stroke="#747474" stroke-width="1.80" transform="matrix(1.00, 0.00, 0.00, -1.00, 80.0, 549.0)"></path></g></g><text xml:space="preserve" font-family="HelveticaNeue,Helvetica Neue" font-size="36.0" fill="#747474" transform="matrix(1.00, 0.00, -0.00, -1.00, 84.0, 299.7)">H</text><text xml:space="preserve" font-family="HelveticaNeue,Helvetica Neue" font-size="36.0" fill="#747474" transform="matrix(1.00, 0.00, -0.00, -1.00, 110.0, 299.7)">e</text><text xml:space="preserve" font-family="HelveticaNeue,Helvetica Neue" font-size="36.0" fill="#747474" transform="matrix(1.00, 0.00, -0.00, -1.00, 129.3, 299.7)">l</text><text xml:space="preserve" font-family="HelveticaNeue,Helvetica Neue" font-size="36.0" fill="#747474" transform="matrix(1.00, 0.00, -0.00, -1.00, 137.3, 299.7)">p</text><text xml:space="preserve" font-family="HelveticaNeue,Helvetica Neue" font-size="36.0" fill="#747474" transform="matrix(1.00, 0.00, -0.00, -1.00, 158.7, 299.7)">f</text><text xml:space="preserve" font-family="HelveticaNeue,Helvetica Neue" font-size="36.0" fill="#747474" transform="matrix(1.00, 0.00, -0.00, -1.00, 169.3, 299.7)">u</text><text xml:space="preserve" font-family="HelveticaNeue,Helvetica Neue" font-size="36.0" fill="#747474" transform="matrix(1.00, 0.00, -0.00, -1.00, 189.3, 299.7)">l</text><text xml:space="preserve" font-family="HelveticaNeue,Helvetica Neue" font-size="36.0" fill="#747474" transform="matrix(1.00, 0.00, -0.00, -1.00, 197.3, 299.7)"> </text><text xml:space="preserve" font-family="HelveticaNeue,Helvetica Neue" font-size="36.0" fill="#747474" transform="matrix(1.00, 0.00, -0.00, -1.00, 207.3, 299.7)">w</text><text xml:space="preserve" font-family="HelveticaNeue,Helvetica Neue" font-size="36.0" fill="#747474" transform="matrix(1.00, 0.00, -0.00, -1.00, 234.6, 299.7)">h</text><text xml:space="preserve" font-family="HelveticaNeue,Helvetica Neue" font-size="36.0" fill="#747474" transform="matrix(1.00, 0.00, -0.00, -1.00, 254.6, 299.7)">e</text><text xml:space="preserve" font-family="HelveticaNeue,Helvetica Neue" font-size="36.0" fill="#747474" transform="matrix(1.00, 0.00, -0.00, -1.00, 274.0, 299.7)">n</text><text xml:space="preserve" font-family="HelveticaNeue,Helvetica Neue" font-size="36.0" fill="#747474" transform="matrix(1.00, 0.00, -0.00, -1.00, 294.0, 299.7)"> </text><text xml:space="preserve" font-family="HelveticaNeue,Helvetica Neue" font-size="36.0" fill="#747474" transform="matrix(1.00, 0.00, -0.00, -1.00, 304.0, 299.7)">y</text><text xml:space="preserve" font-family="HelveticaNeue,Helvetica Neue" font-size="36.0" fill="#747474" transform="matrix(1.00, 0.00, -0.00, -1.00, 322.0, 299.7)">o</text><text xml:space="preserve" font-family="HelveticaNeue,Helvetica Neue" font-size="36.0" fill="#747474" transform="matrix(1.00, 0.00, -0.00, -1.00, 342.7, 299.7)">u</text><text xml:space="preserve" font-family="HelveticaNeue,Helvetica Neue" font-size="36.0" fill="#747474" transform="matrix(1.00, 0.00, -0.00, -1.00, 362.7, 299.7)"> </text><text xml:space="preserve" font-family="HelveticaNeue,Helvetica Neue" font-size="36.0" fill="#747474" transform="matrix(1.00, 0.00, -0.00, -1.00, 372.7, 299.7)">w</text><text xml:space="preserve" font-family="HelveticaNeue,Helvetica Neue" font-size="36.0" fill="#747474" transform="matrix(1.00, 0.00, -0.00, -1.00, 400.0, 299.7)">a</text><text xml:space="preserve" font-family="HelveticaNeue,Helvetica Neue" font-size="36.0" fill="#747474" transform="matrix(1.00, 0.00, -0.00, -1.00, 419.3, 299.7)">n</text><text xml:space="preserve" font-family="HelveticaNeue,Helvetica Neue" font-size="36.0" fill="#747474" transform="matrix(1.00, 0.00, -0.00, -1.00, 439.3, 299.7)">t</text><text xml:space="preserve" font-family="HelveticaNeue,Helvetica Neue" font-size="36.0" fill="#747474" transform="matrix(1.00, 0.00, -0.00, -1.00, 450.7, 299.7)"> </text><text xml:space="preserve" font-family="HelveticaNeue,Helvetica Neue" font-size="36.0" fill="#747474" transform="matrix(1.00, 0.00, -0.00, -1.00, 460.7, 299.7)">t</text><text xml:space="preserve" font-family="HelveticaNeue,Helvetica Neue" font-size="36.0" fill="#747474" transform="matrix(1.00, 0.00, -0.00, -1.00, 472.0, 299.7)">o</text><text xml:space="preserve" font-family="HelveticaNeue,Helvetica Neue" font-size="36.0" fill="#747474" transform="matrix(1.00, 0.00, -0.00, -1.00, 492.7, 299.7)"> </text><text xml:space="preserve" font-family="HelveticaNeue,Helvetica Neue" font-size="36.0" fill="#747474" transform="matrix(1.00, 0.00, -0.00, -1.00, 502.7, 299.7)">a</text><text xml:space="preserve" font-family="HelveticaNeue,Helvetica Neue" font-size="36.0" fill="#747474" transform="matrix(1.00, 0.00, -0.00, -1.00, 522.0, 299.7)">l</text><text xml:space="preserve" font-family="HelveticaNeue,Helvetica Neue" font-size="36.0" fill="#747474" transform="matrix(1.00, 0.00, -0.00, -1.00, 530.0, 299.7)">l</text><text xml:space="preserve" font-family="HelveticaNeue,Helvetica Neue" font-size="36.0" fill="#747474" transform="matrix(1.00, 0.00, -0.00, -1.00, 538.0, 299.7)">o</text><text xml:space="preserve" font-family="HelveticaNeue,Helvetica Neue" font-size="36.0" fill="#747474" transform="matrix(1.00, 0.00, -0.00, -1.00, 558.7, 299.7)">w</text><text xml:space="preserve" font-family="HelveticaNeue,Helvetica Neue" font-size="36.0" fill="#747474" transform="matrix(1.00, 0.00, -0.00, -1.00, 585.9, 299.7)"> </text><text xml:space="preserve" font-family="HelveticaNeue,Helvetica Neue" font-size="36.0" fill="#747474" transform="matrix(1.00, 0.00, -0.00, -1.00, 596.0, 299.7)">o</text><text xml:space="preserve" font-family="HelveticaNeue,Helvetica Neue" font-size="36.0" fill="#747474" transform="matrix(1.00, 0.00, -0.00, -1.00, 616.6, 299.7)">t</text><text xml:space="preserve" font-family="HelveticaNeue,Helvetica Neue" font-size="36.0" fill="#747474" transform="matrix(1.00, 0.00, -0.00, -1.00, 628.0, 299.7)">h</text><text xml:space="preserve" font-family="HelveticaNeue,Helvetica Neue" font-size="36.0" fill="#747474" transform="matrix(1.00, 0.00, -0.00, -1.00, 648.0, 299.7)">e</text><text xml:space="preserve" font-family="HelveticaNeue,Helvetica Neue" font-size="36.0" fill="#747474" transform="matrix(1.00, 0.00, -0.00, -1.00, 667.3, 299.7)">r</text><text xml:space="preserve" font-family="HelveticaNeue,Helvetica Neue" font-size="36.0" fill="#747474" transform="matrix(1.00, 0.00, -0.00, -1.00, 679.3, 299.7)">s</text><text xml:space="preserve" font-family="HelveticaNeue,Helvetica Neue" font-size="36.0" fill="#747474" transform="matrix(1.00, 0.00, -0.00, -1.00, 697.3, 299.7)"> </text><text xml:space="preserve" font-family="HelveticaNeue,Helvetica Neue" font-size="36.0" fill="#747474" transform="matrix(1.00, 0.00, -0.00, -1.00, 707.3, 299.7)">t</text><text xml:space="preserve" font-family="HelveticaNeue,Helvetica Neue" font-size="36.0" fill="#747474" transform="matrix(1.00, 0.00, -0.00, -1.00, 718.6, 299.7)">o</text><text xml:space="preserve" font-family="HelveticaNeue,Helvetica Neue" font-size="36.0" fill="#747474" transform="matrix(1.00, 0.00, -0.00, -1.00, 739.3, 299.7)"> </text><text xml:space="preserve" font-family="HelveticaNeue,Helvetica Neue" font-size="36.0" fill="#747474" transform="matrix(1.00, 0.00, -0.00, -1.00, 749.3, 299.7)">d</text><text xml:space="preserve" font-family="HelveticaNeue,Helvetica Neue" font-size="36.0" fill="#747474" transform="matrix(1.00, 0.00, -0.00, -1.00, 770.7, 299.7)">o</text><text xml:space="preserve" font-family="HelveticaNeue,Helvetica Neue" font-size="36.0" fill="#747474" transform="matrix(1.00, 0.00, -0.00, -1.00, 791.3, 299.7)"> </text><text xml:space="preserve" font-family="HelveticaNeue,Helvetica Neue" font-size="36.0" fill="#747474" transform="matrix(1.00, 0.00, -0.00, -1.00, 801.3, 299.7)">s</text><text xml:space="preserve" font-family="HelveticaNeue,Helvetica Neue" font-size="36.0" fill="#747474" transform="matrix(1.00, 0.00, -0.00, -1.00, 819.3, 299.7)">t</text><text xml:space="preserve" font-family="HelveticaNeue,Helvetica Neue" font-size="36.0" fill="#747474" transform="matrix(1.00, 0.00, -0.00, -1.00, 830.7, 299.7)">u</text><text xml:space="preserve" font-family="HelveticaNeue,Helvetica Neue" font-size="36.0" fill="#747474" transform="matrix(1.00, 0.00, -0.00, -1.00, 850.7, 299.7)">ﬀ</text><text xml:space="preserve" font-family="HelveticaNeue,Helvetica Neue" font-size="36.0" fill="#747474" transform="matrix(1.00, 0.00, -0.00, -1.00, 871.5, 299.7)"> </text><text xml:space="preserve" font-family="HelveticaNeue,Helvetica Neue" font-size="36.0" fill="#747474" transform="matrix(1.00, 0.00, -0.00, -1.00, 881.5, 299.7)">l</text><text xml:space="preserve" font-family="HelveticaNeue,Helvetica Neue" font-size="36.0" fill="#747474" transform="matrix(1.00, 0.00, -0.00, -1.00, 889.5, 299.7)">i</text><text xml:space="preserve" font-family="HelveticaNeue,Helvetica Neue" font-size="36.0" fill="#747474" transform="matrix(1.00, 0.00, -0.00, -1.00, 897.5, 299.7)">k</text><text xml:space="preserve" font-family="HelveticaNeue,Helvetica Neue" font-size="36.0" fill="#747474" transform="matrix(1.00, 0.00, -0.00, -1.00, 916.1, 299.7)">e</text><text xml:space="preserve" font-family="HelveticaNeue,Helvetica Neue" font-size="36.0" fill="#747474" transform="matrix(1.00, 0.00, -0.00, -1.00, 935.5, 299.7)"> </text><text xml:space="preserve" font-family="HelveticaNeue,Helvetica Neue" font-size="36.0" fill="#747474" transform="matrix(1.00, 0.00, -0.00, -1.00, 945.5, 299.7)">r</text><text xml:space="preserve" font-family="HelveticaNeue,Helvetica Neue" font-size="36.0" fill="#747474" transform="matrix(1.00, 0.00, -0.00, -1.00, 956.8, 299.7)">e</text><text xml:space="preserve" font-family="HelveticaNeue,Helvetica Neue" font-size="36.0" fill="#747474" transform="matrix(1.00, 0.00, -0.00, -1.00, 976.2, 299.7)">m</text><text xml:space="preserve" font-family="HelveticaNeue,Helvetica Neue" font-size="36.0" fill="#747474" transform="matrix(1.00, 0.00, -0.00, -1.00, 1006.9, 299.7)">i</text><text xml:space="preserve" font-family="HelveticaNeue,Helvetica Neue" font-size="36.0" fill="#747474" transform="matrix(1.00, 0.00, -0.00, -1.00, 1014.9, 299.7)">x</text><text xml:space="preserve" font-family="HelveticaNeue,Helvetica Neue" font-size="36.0" fill="#747474" transform="matrix(1.00, 0.00, -0.00, -1.00, 1033.5, 299.7)">/</text><text xml:space="preserve" font-family="HelveticaNeue,Helvetica Neue" font-size="36.0" fill="#747474" transform="matrix(1.00, 0.00, -0.00, -1.00, 1045.5, 299.7)">m</text><text xml:space="preserve" font-family="HelveticaNeue,Helvetica Neue" font-size="36.0" fill="#747474" transform="matrix(1.00, 0.00, -0.00, -1.00, 1076.2, 299.7)">a</text><text xml:space="preserve" font-family="HelveticaNeue,Helvetica Neue" font-size="36.0" fill="#747474" transform="matrix(1.00, 0.00, -0.00, -1.00, 1095.5, 299.7)">s</text><text xml:space="preserve" font-family="HelveticaNeue,Helvetica Neue" font-size="36.0" fill="#747474" transform="matrix(1.00, 0.00, -0.00, -1.00, 1113.5, 299.7)">h</text><text xml:space="preserve" font-family="HelveticaNeue,Helvetica Neue" font-size="36.0" fill="#747474" transform="matrix(1.00, 0.00, -0.00, -1.00, 1133.5, 299.7)">u</text><text xml:space="preserve" font-family="HelveticaNeue,Helvetica Neue" font-size="36.0" fill="#747474" transform="matrix(1.00, 0.00, -0.00, -1.00, 1153.6, 299.7)">p</text><text xml:space="preserve" font-family="HelveticaNeue,Helvetica Neue" font-size="36.0" fill="#747474" transform="matrix(1.00, 0.00, -0.00, -1.00, 1174.9, 299.7)"> </text><text xml:space="preserve" font-family="HelveticaNeue,Helvetica Neue" font-size="36.0" fill="#747474" transform="matrix(1.00, 0.00, -0.00, -1.00, 84.0, 256.7)">y</text><text xml:space="preserve" font-family="HelveticaNeue,Helvetica Neue" font-size="36.0" fill="#747474" transform="matrix(1.00, 0.00, -0.00, -1.00, 102.0, 256.7)">o</text><text xml:space="preserve" font-family="HelveticaNeue,Helvetica Neue" font-size="36.0" fill="#747474" transform="matrix(1.00, 0.00, -0.00, -1.00, 122.7, 256.7)">u</text><text xml:space="preserve" font-family="HelveticaNeue,Helvetica Neue" font-size="36.0" fill="#747474" transform="matrix(1.00, 0.00, -0.00, -1.00, 142.7, 256.7)">r</text><text xml:space="preserve" font-family="HelveticaNeue,Helvetica Neue" font-size="36.0" fill="#747474" transform="matrix(1.00, 0.00, -0.00, -1.00, 154.7, 256.7)"> </text><text xml:space="preserve" font-family="HelveticaNeue,Helvetica Neue" font-size="36.0" fill="#747474" transform="matrix(1.00, 0.00, -0.00, -1.00, 164.7, 256.7)">w</text><text xml:space="preserve" font-family="HelveticaNeue,Helvetica Neue" font-size="36.0" fill="#747474" transform="matrix(1.00, 0.00, -0.00, -1.00, 192.0, 256.7)">o</text><text xml:space="preserve" font-family="HelveticaNeue,Helvetica Neue" font-size="36.0" fill="#747474" transform="matrix(1.00, 0.00, -0.00, -1.00, 212.6, 256.7)">r</text><text xml:space="preserve" font-family="HelveticaNeue,Helvetica Neue" font-size="36.0" fill="#747474" transform="matrix(1.00, 0.00, -0.00, -1.00, 224.6, 256.7)">k</text><text xml:space="preserve" font-family="HelveticaNeue,Helvetica Neue" font-size="36.0" fill="#747474" transform="matrix(1.00, 0.00, -0.00, -1.00, 243.3, 256.7)">.</text><text xml:space="preserve" font-family="HelveticaNeue,Helvetica Neue" font-size="36.0" fill="#747474" transform="matrix(1.00, 0.00, -0.00, -1.00, 253.3, 256.7)">
</text></g></svg>