<?xml version="1.0" encoding="UTF-8" standalone="no"?><svg xmlns="http://www.w3.org/2000/svg" xmlns:xlink="http://www.w3.org/1999/xlink" clip-rule="evenodd" stroke-miterlimit="10" viewBox="0 0 1280 720"><desc>SVG generated by Keynote</desc><defs></defs><g transform="matrix(1.00, 0.00, -0.00, -1.00, 0.0, 720.0)"><path d="M 0.0 720.0 L 1280.0 720.0 L 1280.0 0.0 L 0.0 0.0 Z M 0.0 720.0 " fill="#FFFFFF"></path><path d="M 0.0 0.5 L 1114.0 0.5 " fill="none" stroke="#9A9A9A" stroke-width="1.00" transform="matrix(1.00, 0.00, 0.00, -1.00, 83.0, 575.0)"></path><text xml:space="preserve" font-family="HelveticaNeue-Light,Helvetica Neue" font-size="36.0" fill="#000000" transform="matrix(1.00, 0.00, -0.00, -1.00, 84.0, 603.7)">W</text><text xml:space="preserve" font-family="HelveticaNeue-Light,Helvetica Neue" font-size="36.0" fill="#000000" transform="matrix(1.00, 0.00, -0.00, -1.00, 117.5, 603.7)">i</text><text xml:space="preserve" font-family="HelveticaNeue-Light,Helvetica Neue" font-size="36.0" fill="#000000" transform="matrix(1.00, 0.00, -0.00, -1.00, 124.2, 603.7)">n</text><text xml:space="preserve" font-family="HelveticaNeue-Light,Helvetica Neue" font-size="36.0" fill="#000000" transform="matrix(1.00, 0.00, -0.00, -1.00, 143.5, 603.7)">d</text><text xml:space="preserve" font-family="HelveticaNeue-Light,Helvetica Neue" font-size="36.0" fill="#000000" transform="matrix(1.00, 0.00, -0.00, -1.00, 164.2, 603.7)">o</text><text xml:space="preserve" font-family="HelveticaNeue-Light,Helvetica Neue" font-size="36.0" fill="#000000" transform="matrix(1.00, 0.00, -0.00, -1.00, 184.2, 603.7)">w</text><text xml:space="preserve" font-family="HelveticaNeue-Light,Helvetica Neue" font-size="36.0" fill="#000000" transform="matrix(1.00, 0.00, -0.00, -1.00, 210.9, 603.7)">s</text><text xml:space="preserve" font-family="HelveticaNeue-Light,Helvetica Neue" font-size="36.0" fill="#000000" transform="matrix(1.00, 0.00, -0.00, -1.00, 228.2, 603.7)"> </text><text xml:space="preserve" font-family="HelveticaNeue-Light,Helvetica Neue" font-size="36.0" fill="#000000" transform="matrix(1.00, 0.00, -0.00, -1.00, 238.2, 603.7)">8</text><text xml:space="preserve" font-family="HelveticaNeue-Light,Helvetica Neue" font-size="36.0" fill="#000000" transform="matrix(1.00, 0.00, -0.00, -1.00, 258.2, 603.7)"> </text><text xml:space="preserve" font-family="HelveticaNeue-Light,Helvetica Neue" font-size="36.0" fill="#000000" transform="matrix(1.00, 0.00, -0.00, -1.00, 268.2, 603.7)">(</text><text xml:space="preserve" font-family="HelveticaNeue-Light,Helvetica Neue" font-size="36.0" fill="#000000" transform="matrix(1.00, 0.00, -0.00, -1.00, 276.9, 603.7)">M</text><text xml:space="preserve" font-family="HelveticaNeue-Light,Helvetica Neue" font-size="36.0" fill="#000000" transform="matrix(1.00, 0.00, -0.00, -1.00, 306.4, 603.7)">e</text><text xml:space="preserve" font-family="HelveticaNeue-Light,Helvetica Neue" font-size="36.0" fill="#000000" transform="matrix(1.00, 0.00, -0.00, -1.00, 325.1, 603.7)">t</text><text xml:space="preserve" font-family="HelveticaNeue-Light,Helvetica Neue" font-size="36.0" fill="#000000" transform="matrix(1.00, 0.00, -0.00, -1.00, 335.8, 603.7)">r</text><text xml:space="preserve" font-family="HelveticaNeue-Light,Helvetica Neue" font-size="36.0" fill="#000000" transform="matrix(1.00, 0.00, -0.00, -1.00, 346.5, 603.7)">o</text><text xml:space="preserve" font-family="HelveticaNeue-Light,Helvetica Neue" font-size="36.0" fill="#000000" transform="matrix(1.00, 0.00, -0.00, -1.00, 366.5, 603.7)">)</text><text xml:space="preserve" font-family="HelveticaNeue-Light,Helvetica Neue" font-size="36.0" fill="#000000" transform="matrix(1.00, 0.00, -0.00, -1.00, 375.2, 603.7)"> </text><text xml:space="preserve" font-family="HelveticaNeue,Helvetica Neue" font-size="22.0" fill="#747474" transform="matrix(1.00, 0.00, -0.00, -1.00, 84.0, 523.3)">•</text><text xml:space="preserve" font-family="HelveticaNeue,Helvetica Neue" font-size="22.0" fill="#747474" transform="matrix(1.00, 0.00, -0.00, -1.00, 104.0, 523.3)">W</text><text xml:space="preserve" font-family="HelveticaNeue,Helvetica Neue" font-size="22.0" fill="#747474" transform="matrix(1.00, 0.00, -0.00, -1.00, 124.4, 523.3)">i</text><text xml:space="preserve" font-family="HelveticaNeue,Helvetica Neue" font-size="22.0" fill="#747474" transform="matrix(1.00, 0.00, -0.00, -1.00, 129.3, 523.3)">n</text><text xml:space="preserve" font-family="HelveticaNeue,Helvetica Neue" font-size="22.0" fill="#747474" transform="matrix(1.00, 0.00, -0.00, -1.00, 141.5, 523.3)">d</text><text xml:space="preserve" font-family="HelveticaNeue,Helvetica Neue" font-size="22.0" fill="#747474" transform="matrix(1.00, 0.00, -0.00, -1.00, 154.5, 523.3)">o</text><text xml:space="preserve" font-family="HelveticaNeue,Helvetica Neue" font-size="22.0" fill="#747474" transform="matrix(1.00, 0.00, -0.00, -1.00, 167.2, 523.3)">w</text><text xml:space="preserve" font-family="HelveticaNeue,Helvetica Neue" font-size="22.0" fill="#747474" transform="matrix(1.00, 0.00, -0.00, -1.00, 183.8, 523.3)">s</text><text xml:space="preserve" font-family="HelveticaNeue,Helvetica Neue" font-size="22.0" fill="#747474" transform="matrix(1.00, 0.00, -0.00, -1.00, 194.8, 523.3)"> </text><text xml:space="preserve" font-family="HelveticaNeue,Helvetica Neue" font-size="22.0" fill="#747474" transform="matrix(1.00, 0.00, -0.00, -1.00, 201.0, 523.3)">8</text><text xml:space="preserve" font-family="HelveticaNeue,Helvetica Neue" font-size="22.0" fill="#747474" transform="matrix(1.00, 0.00, -0.00, -1.00, 213.2, 523.3)"> </text><text xml:space="preserve" font-family="HelveticaNeue,Helvetica Neue" font-size="22.0" fill="#747474" transform="matrix(1.00, 0.00, -0.00, -1.00, 219.3, 523.3)">U</text><text xml:space="preserve" font-family="HelveticaNeue,Helvetica Neue" font-size="22.0" fill="#747474" transform="matrix(1.00, 0.00, -0.00, -1.00, 235.2, 523.3)">X</text><text xml:space="preserve" font-family="HelveticaNeue,Helvetica Neue" font-size="22.0" fill="#747474" transform="matrix(1.00, 0.00, -0.00, -1.00, 248.6, 523.3)"> </text><text xml:space="preserve" font-family="HelveticaNeue,Helvetica Neue" font-size="22.0" fill="#747474" transform="matrix(1.00, 0.00, -0.00, -1.00, 254.7, 523.3)">G</text><text xml:space="preserve" font-family="HelveticaNeue,Helvetica Neue" font-size="22.0" fill="#747474" transform="matrix(1.00, 0.00, -0.00, -1.00, 271.4, 523.3)">u</text><text xml:space="preserve" font-family="HelveticaNeue,Helvetica Neue" font-size="22.0" fill="#747474" transform="matrix(1.00, 0.00, -0.00, -1.00, 283.7, 523.3)">i</text><text xml:space="preserve" font-family="HelveticaNeue,Helvetica Neue" font-size="22.0" fill="#747474" transform="matrix(1.00, 0.00, -0.00, -1.00, 288.6, 523.3)">d</text><text xml:space="preserve" font-family="HelveticaNeue,Helvetica Neue" font-size="22.0" fill="#747474" transform="matrix(1.00, 0.00, -0.00, -1.00, 301.6, 523.3)">e</text><text xml:space="preserve" font-family="HelveticaNeue,Helvetica Neue" font-size="22.0" fill="#747474" transform="matrix(1.00, 0.00, -0.00, -1.00, 313.4, 523.3)">l</text><text xml:space="preserve" font-family="HelveticaNeue,Helvetica Neue" font-size="22.0" fill="#747474" transform="matrix(1.00, 0.00, -0.00, -1.00, 318.3, 523.3)">i</text><text xml:space="preserve" font-family="HelveticaNeue,Helvetica Neue" font-size="22.0" fill="#747474" transform="matrix(1.00, 0.00, -0.00, -1.00, 323.2, 523.3)">n</text><text xml:space="preserve" font-family="HelveticaNeue,Helvetica Neue" font-size="22.0" fill="#747474" transform="matrix(1.00, 0.00, -0.00, -1.00, 335.4, 523.3)">e</text><text xml:space="preserve" font-family="HelveticaNeue,Helvetica Neue" font-size="22.0" fill="#747474" transform="matrix(1.00, 0.00, -0.00, -1.00, 347.2, 523.3)">s</text><g><clipPath id="clip0x7f97473e8550"><path d="M 103.0 519.6 L 358.2 519.6 L 358.2 522.7 L 103.0 522.7 Z M 103.0 519.6 "></path></clipPath><g clip-path="url(#clip0x7f97473e8550)"><path d="M 24.0 27.9 L 278.2 27.9 " fill="none" stroke="#747474" stroke-width="1.10" transform="matrix(1.00, 0.00, 0.00, -1.00, 80.0, 549.0)"></path></g></g></g></svg>