<?xml version="1.0" encoding="UTF-8" standalone="no"?><svg xmlns="http://www.w3.org/2000/svg" xmlns:xlink="http://www.w3.org/1999/xlink" clip-rule="evenodd" stroke-miterlimit="10" viewBox="0 0 1280 720"><desc>SVG generated by Keynote</desc><defs></defs><g transform="matrix(1.00, 0.00, -0.00, -1.00, 0.0, 720.0)"><path d="M 0.0 720.0 L 1280.0 720.0 L 1280.0 0.0 L 0.0 0.0 Z M 0.0 720.0 " fill="#FFFFFF"></path><path d="M 0.0 0.5 L 1114.0 0.5 " fill="none" stroke="#9A9A9A" stroke-width="1.00" transform="matrix(1.00, 0.00, 0.00, -1.00, 83.0, 575.0)"></path><text xml:space="preserve" font-family="HelveticaNeue-Light,Helvetica Neue" font-size="36.0" fill="#000000" transform="matrix(1.00, 0.00, -0.00, -1.00, 84.0, 603.7)">A</text><text xml:space="preserve" font-family="HelveticaNeue-Light,Helvetica Neue" font-size="36.0" fill="#000000" transform="matrix(1.00, 0.00, -0.00, -1.00, 106.7, 603.7)">p</text><text xml:space="preserve" font-family="HelveticaNeue-Light,Helvetica Neue" font-size="36.0" fill="#000000" transform="matrix(1.00, 0.00, -0.00, -1.00, 127.3, 603.7)">p</text><text xml:space="preserve" font-family="HelveticaNeue-Light,Helvetica Neue" font-size="36.0" fill="#000000" transform="matrix(1.00, 0.00, -0.00, -1.00, 148.0, 603.7)">l</text><text xml:space="preserve" font-family="HelveticaNeue-Light,Helvetica Neue" font-size="36.0" fill="#000000" transform="matrix(1.00, 0.00, -0.00, -1.00, 154.7, 603.7)">e</text><text xml:space="preserve" font-family="HelveticaNeue-Light,Helvetica Neue" font-size="36.0" fill="#000000" transform="matrix(1.00, 0.00, -0.00, -1.00, 173.4, 603.7)"> </text><text xml:space="preserve" font-family="HelveticaNeue-Light,Helvetica Neue" font-size="36.0" fill="#000000" transform="matrix(1.00, 0.00, -0.00, -1.00, 183.4, 603.7)">U</text><text xml:space="preserve" font-family="HelveticaNeue-Light,Helvetica Neue" font-size="36.0" fill="#000000" transform="matrix(1.00, 0.00, -0.00, -1.00, 208.0, 603.7)">s</text><text xml:space="preserve" font-family="HelveticaNeue-Light,Helvetica Neue" font-size="36.0" fill="#000000" transform="matrix(1.00, 0.00, -0.00, -1.00, 225.3, 603.7)">e</text><text xml:space="preserve" font-family="HelveticaNeue-Light,Helvetica Neue" font-size="36.0" fill="#000000" transform="matrix(1.00, 0.00, -0.00, -1.00, 244.0, 603.7)">r</text><text xml:space="preserve" font-family="HelveticaNeue-Light,Helvetica Neue" font-size="36.0" fill="#000000" transform="matrix(1.00, 0.00, -0.00, -1.00, 255.4, 603.7)"> </text><text xml:space="preserve" font-family="HelveticaNeue-Light,Helvetica Neue" font-size="36.0" fill="#000000" transform="matrix(1.00, 0.00, -0.00, -1.00, 265.4, 603.7)">E</text><text xml:space="preserve" font-family="HelveticaNeue-Light,Helvetica Neue" font-size="36.0" fill="#000000" transform="matrix(1.00, 0.00, -0.00, -1.00, 286.7, 603.7)">x</text><text xml:space="preserve" font-family="HelveticaNeue-Light,Helvetica Neue" font-size="36.0" fill="#000000" transform="matrix(1.00, 0.00, -0.00, -1.00, 304.0, 603.7)">p</text><text xml:space="preserve" font-family="HelveticaNeue-Light,Helvetica Neue" font-size="36.0" fill="#000000" transform="matrix(1.00, 0.00, -0.00, -1.00, 324.7, 603.7)">e</text><text xml:space="preserve" font-family="HelveticaNeue-Light,Helvetica Neue" font-size="36.0" fill="#000000" transform="matrix(1.00, 0.00, -0.00, -1.00, 343.4, 603.7)">r</text><text xml:space="preserve" font-family="HelveticaNeue-Light,Helvetica Neue" font-size="36.0" fill="#000000" transform="matrix(1.00, 0.00, -0.00, -1.00, 354.7, 603.7)">i</text><text xml:space="preserve" font-family="HelveticaNeue-Light,Helvetica Neue" font-size="36.0" fill="#000000" transform="matrix(1.00, 0.00, -0.00, -1.00, 361.4, 603.7)">e</text><text xml:space="preserve" font-family="HelveticaNeue-Light,Helvetica Neue" font-size="36.0" fill="#000000" transform="matrix(1.00, 0.00, -0.00, -1.00, 380.1, 603.7)">n</text><text xml:space="preserve" font-family="HelveticaNeue-Light,Helvetica Neue" font-size="36.0" fill="#000000" transform="matrix(1.00, 0.00, -0.00, -1.00, 399.4, 603.7)">c</text><text xml:space="preserve" font-family="HelveticaNeue-Light,Helvetica Neue" font-size="36.0" fill="#000000" transform="matrix(1.00, 0.00, -0.00, -1.00, 418.1, 603.7)">e</text><text xml:space="preserve" font-family="HelveticaNeue-Light,Helvetica Neue" font-size="36.0" fill="#000000" transform="matrix(1.00, 0.00, -0.00, -1.00, 436.8, 603.7)"> </text><text xml:space="preserve" font-family="HelveticaNeue-Light,Helvetica Neue" font-size="36.0" fill="#000000" transform="matrix(1.00, 0.00, -0.00, -1.00, 446.8, 603.7)">G</text><text xml:space="preserve" font-family="HelveticaNeue-Light,Helvetica Neue" font-size="36.0" fill="#000000" transform="matrix(1.00, 0.00, -0.00, -1.00, 473.4, 603.7)">u</text><text xml:space="preserve" font-family="HelveticaNeue-Light,Helvetica Neue" font-size="36.0" fill="#000000" transform="matrix(1.00, 0.00, -0.00, -1.00, 492.8, 603.7)">i</text><text xml:space="preserve" font-family="HelveticaNeue-Light,Helvetica Neue" font-size="36.0" fill="#000000" transform="matrix(1.00, 0.00, -0.00, -1.00, 499.4, 603.7)">d</text><text xml:space="preserve" font-family="HelveticaNeue-Light,Helvetica Neue" font-size="36.0" fill="#000000" transform="matrix(1.00, 0.00, -0.00, -1.00, 520.1, 603.7)">e</text><text xml:space="preserve" font-family="HelveticaNeue-Light,Helvetica Neue" font-size="36.0" fill="#000000" transform="matrix(1.00, 0.00, -0.00, -1.00, 538.8, 603.7)">l</text><text xml:space="preserve" font-family="HelveticaNeue-Light,Helvetica Neue" font-size="36.0" fill="#000000" transform="matrix(1.00, 0.00, -0.00, -1.00, 545.4, 603.7)">i</text><text xml:space="preserve" font-family="HelveticaNeue-Light,Helvetica Neue" font-size="36.0" fill="#000000" transform="matrix(1.00, 0.00, -0.00, -1.00, 552.1, 603.7)">n</text><text xml:space="preserve" font-family="HelveticaNeue-Light,Helvetica Neue" font-size="36.0" fill="#000000" transform="matrix(1.00, 0.00, -0.00, -1.00, 571.4, 603.7)">e</text><text xml:space="preserve" font-family="HelveticaNeue-Light,Helvetica Neue" font-size="36.0" fill="#000000" transform="matrix(1.00, 0.00, -0.00, -1.00, 590.1, 603.7)">s</text><text xml:space="preserve" font-family="HelveticaNeue,Helvetica Neue" font-size="22.0" fill="#747474" transform="matrix(1.00, 0.00, -0.00, -1.00, 84.0, 523.3)">•</text><text xml:space="preserve" font-family="HelveticaNeue,Helvetica Neue" font-size="22.0" fill="#747474" transform="matrix(1.00, 0.00, -0.00, -1.00, 104.0, 523.3)">F</text><text xml:space="preserve" font-family="HelveticaNeue,Helvetica Neue" font-size="22.0" fill="#747474" transform="matrix(1.00, 0.00, -0.00, -1.00, 116.6, 523.3)">o</text><text xml:space="preserve" font-family="HelveticaNeue,Helvetica Neue" font-size="22.0" fill="#747474" transform="matrix(1.00, 0.00, -0.00, -1.00, 129.3, 523.3)">r</text><text xml:space="preserve" font-family="HelveticaNeue,Helvetica Neue" font-size="22.0" fill="#747474" transform="matrix(1.00, 0.00, -0.00, -1.00, 136.6, 523.3)"> </text><text xml:space="preserve" font-family="HelveticaNeue,Helvetica Neue" font-size="22.0" fill="#747474" transform="matrix(1.00, 0.00, -0.00, -1.00, 142.7, 523.3)">M</text><text xml:space="preserve" font-family="HelveticaNeue,Helvetica Neue" font-size="22.0" fill="#747474" transform="matrix(1.00, 0.00, -0.00, -1.00, 161.9, 523.3)">a</text><text xml:space="preserve" font-family="HelveticaNeue,Helvetica Neue" font-size="22.0" fill="#747474" transform="matrix(1.00, 0.00, -0.00, -1.00, 173.7, 523.3)">c</text><text xml:space="preserve" font-family="HelveticaNeue,Helvetica Neue" font-size="22.0" fill="#747474" transform="matrix(1.00, 0.00, -0.00, -1.00, 185.5, 523.3)"> </text><text xml:space="preserve" font-family="HelveticaNeue,Helvetica Neue" font-size="22.0" fill="#747474" transform="matrix(1.00, 0.00, -0.00, -1.00, 191.6, 523.3)">O</text><text xml:space="preserve" font-family="HelveticaNeue,Helvetica Neue" font-size="22.0" fill="#747474" transform="matrix(1.00, 0.00, -0.00, -1.00, 208.3, 523.3)">S</text><text xml:space="preserve" font-family="HelveticaNeue,Helvetica Neue" font-size="22.0" fill="#747474" transform="matrix(1.00, 0.00, -0.00, -1.00, 222.6, 523.3)"> </text><text xml:space="preserve" font-family="HelveticaNeue,Helvetica Neue" font-size="22.0" fill="#747474" transform="matrix(1.00, 0.00, -0.00, -1.00, 228.7, 523.3)">X</text><text xml:space="preserve" font-family="HelveticaNeue,Helvetica Neue" font-size="22.0" fill="#747474" transform="matrix(1.00, 0.00, -0.00, -1.00, 242.1, 523.3)">
</text><g><clipPath id="clip0x7f97473d6680"><path d="M 103.0 519.6 L 242.1 519.6 L 242.1 522.7 L 103.0 522.7 Z M 103.0 519.6 "></path></clipPath><g clip-path="url(#clip0x7f97473d6680)"><path d="M 24.0 27.9 L 162.1 27.9 " fill="none" stroke="#747474" stroke-width="1.10" transform="matrix(1.00, 0.00, 0.00, -1.00, 80.0, 549.0)"></path></g></g><text xml:space="preserve" font-family="HelveticaNeue,Helvetica Neue" font-size="22.0" fill="#747474" transform="matrix(1.00, 0.00, -0.00, -1.00, 84.0, 455.3)">•</text><text xml:space="preserve" font-family="HelveticaNeue,Helvetica Neue" font-size="22.0" fill="#747474" transform="matrix(1.00, 0.00, -0.00, -1.00, 104.0, 455.3)">F</text><text xml:space="preserve" font-family="HelveticaNeue,Helvetica Neue" font-size="22.0" fill="#747474" transform="matrix(1.00, 0.00, -0.00, -1.00, 116.6, 455.3)">o</text><text xml:space="preserve" font-family="HelveticaNeue,Helvetica Neue" font-size="22.0" fill="#747474" transform="matrix(1.00, 0.00, -0.00, -1.00, 129.3, 455.3)">r</text><text xml:space="preserve" font-family="HelveticaNeue,Helvetica Neue" font-size="22.0" fill="#747474" transform="matrix(1.00, 0.00, -0.00, -1.00, 136.6, 455.3)"> </text><text xml:space="preserve" font-family="HelveticaNeue,Helvetica Neue" font-size="22.0" fill="#747474" transform="matrix(1.00, 0.00, -0.00, -1.00, 142.7, 455.3)">i</text><text xml:space="preserve" font-family="HelveticaNeue,Helvetica Neue" font-size="22.0" fill="#747474" transform="matrix(1.00, 0.00, -0.00, -1.00, 147.6, 455.3)">O</text><text xml:space="preserve" font-family="HelveticaNeue,Helvetica Neue" font-size="22.0" fill="#747474" transform="matrix(1.00, 0.00, -0.00, -1.00, 164.3, 455.3)">S</text><g><clipPath id="clip0x7f97473db6b0"><path d="M 103.0 451.6 L 178.6 451.6 L 178.6 454.7 L 103.0 454.7 Z M 103.0 451.6 "></path></clipPath><g clip-path="url(#clip0x7f97473db6b0)"><path d="M 24.0 95.9 L 98.6 95.9 " fill="none" stroke="#747474" stroke-width="1.10" transform="matrix(1.00, 0.00, 0.00, -1.00, 80.0, 549.0)"></path></g></g></g></svg>