<?xml version="1.0" encoding="UTF-8" standalone="no"?><svg xmlns="http://www.w3.org/2000/svg" xmlns:xlink="http://www.w3.org/1999/xlink" clip-rule="evenodd" stroke-miterlimit="10" viewBox="0 0 1280 720"><desc>SVG generated by Keynote</desc><defs></defs><g transform="matrix(1.00, 0.00, -0.00, -1.00, 0.0, 720.0)"><path d="M 0.0 720.0 L 1280.0 720.0 L 1280.0 0.0 L 0.0 0.0 Z M 0.0 720.0 " fill="#FFFFFF"></path><path d="M 0.0 0.5 L 1114.0 0.5 " fill="none" stroke="#9A9A9A" stroke-width="1.00" transform="matrix(1.00, 0.00, 0.00, -1.00, 83.0, 575.0)"></path><text xml:space="preserve" font-family="HelveticaNeue-Light,Helvetica Neue" font-size="72.0" fill="#000000" transform="matrix(1.00, 0.00, -0.00, -1.00, 84.0, 611.4)">P</text><text xml:space="preserve" font-family="HelveticaNeue-Light,Helvetica Neue" font-size="72.0" fill="#000000" transform="matrix(1.00, 0.00, -0.00, -1.00, 129.4, 611.4)">r</text><text xml:space="preserve" font-family="HelveticaNeue-Light,Helvetica Neue" font-size="72.0" fill="#000000" transform="matrix(1.00, 0.00, -0.00, -1.00, 152.0, 611.4)">i</text><text xml:space="preserve" font-family="HelveticaNeue-Light,Helvetica Neue" font-size="72.0" fill="#000000" transform="matrix(1.00, 0.00, -0.00, -1.00, 165.4, 611.4)">v</text><text xml:space="preserve" font-family="HelveticaNeue-Light,Helvetica Neue" font-size="72.0" fill="#000000" transform="matrix(1.00, 0.00, -0.00, -1.00, 198.7, 611.4)">a</text><text xml:space="preserve" font-family="HelveticaNeue-Light,Helvetica Neue" font-size="72.0" fill="#000000" transform="matrix(1.00, 0.00, -0.00, -1.00, 236.1, 611.4)">c</text><text xml:space="preserve" font-family="HelveticaNeue-Light,Helvetica Neue" font-size="72.0" fill="#000000" transform="matrix(1.00, 0.00, -0.00, -1.00, 273.4, 611.4)">y</text><text xml:space="preserve" font-family="HelveticaNeue-Light,Helvetica Neue" font-size="72.0" fill="#000000" transform="matrix(1.00, 0.00, -0.00, -1.00, 306.8, 611.4)"> </text><text xml:space="preserve" font-family="HelveticaNeue-Light,Helvetica Neue" font-size="72.0" fill="#000000" transform="matrix(1.00, 0.00, -0.00, -1.00, 326.8, 611.4)">A</text><text xml:space="preserve" font-family="HelveticaNeue-Light,Helvetica Neue" font-size="72.0" fill="#000000" transform="matrix(1.00, 0.00, -0.00, -1.00, 372.1, 611.4)">c</text><text xml:space="preserve" font-family="HelveticaNeue-Light,Helvetica Neue" font-size="72.0" fill="#000000" transform="matrix(1.00, 0.00, -0.00, -1.00, 409.5, 611.4)">t</text><text xml:space="preserve" font-family="HelveticaNeue-Light,Helvetica Neue" font-size="72.0" fill="#000000" transform="matrix(1.00, 0.00, -0.00, -1.00, 430.8, 611.4)"> </text><text xml:space="preserve" font-family="HelveticaNeue-Light,Helvetica Neue" font-size="72.0" fill="#000000" transform="matrix(1.00, 0.00, -0.00, -1.00, 450.8, 611.4)">(</text><text xml:space="preserve" font-family="HelveticaNeue-Light,Helvetica Neue" font-size="72.0" fill="#000000" transform="matrix(1.00, 0.00, -0.00, -1.00, 468.2, 611.4)">C</text><text xml:space="preserve" font-family="HelveticaNeue-Light,Helvetica Neue" font-size="72.0" fill="#000000" transform="matrix(1.00, 0.00, -0.00, -1.00, 518.9, 611.4)">a</text><text xml:space="preserve" font-family="HelveticaNeue-Light,Helvetica Neue" font-size="72.0" fill="#000000" transform="matrix(1.00, 0.00, -0.00, -1.00, 556.2, 611.4)">n</text><text xml:space="preserve" font-family="HelveticaNeue-Light,Helvetica Neue" font-size="72.0" fill="#000000" transform="matrix(1.00, 0.00, -0.00, -1.00, 594.9, 611.4)">a</text><text xml:space="preserve" font-family="HelveticaNeue-Light,Helvetica Neue" font-size="72.0" fill="#000000" transform="matrix(1.00, 0.00, -0.00, -1.00, 632.3, 611.4)">d</text><text xml:space="preserve" font-family="HelveticaNeue-Light,Helvetica Neue" font-size="72.0" fill="#000000" transform="matrix(1.00, 0.00, -0.00, -1.00, 673.6, 611.4)">a</text><text xml:space="preserve" font-family="HelveticaNeue-Light,Helvetica Neue" font-size="72.0" fill="#000000" transform="matrix(1.00, 0.00, -0.00, -1.00, 711.0, 611.4)">)</text><g><clipPath id="clip0x7f9747e1b570"><path d="M 83.0 601.4 L 728.3 601.4 L 728.3 607.0 L 83.0 607.0 Z M 83.0 601.4 "></path></clipPath><g clip-path="url(#clip0x7f9747e1b570)"><path d="M 4.0 90.8 L 648.3 90.8 " fill="none" stroke="#000000" stroke-width="3.60" transform="matrix(1.00, 0.00, 0.00, -1.00, 80.0, 695.0)"></path></g></g><text xml:space="preserve" font-family="HelveticaNeue,Helvetica Neue" font-size="48.0" fill="#747474" transform="matrix(1.00, 0.00, -0.00, -1.00, 84.0, 499.6)">C</text><text xml:space="preserve" font-family="HelveticaNeue,Helvetica Neue" font-size="48.0" fill="#747474" transform="matrix(1.00, 0.00, -0.00, -1.00, 118.7, 499.6)">o</text><text xml:space="preserve" font-family="HelveticaNeue,Helvetica Neue" font-size="48.0" fill="#747474" transform="matrix(1.00, 0.00, -0.00, -1.00, 146.2, 499.6)">v</text><text xml:space="preserve" font-family="HelveticaNeue,Helvetica Neue" font-size="48.0" fill="#747474" transform="matrix(1.00, 0.00, -0.00, -1.00, 170.2, 499.6)">e</text><text xml:space="preserve" font-family="HelveticaNeue,Helvetica Neue" font-size="48.0" fill="#747474" transform="matrix(1.00, 0.00, -0.00, -1.00, 196.0, 499.6)">r</text><text xml:space="preserve" font-family="HelveticaNeue,Helvetica Neue" font-size="48.0" fill="#747474" transform="matrix(1.00, 0.00, -0.00, -1.00, 212.0, 499.6)">s</text><text xml:space="preserve" font-family="HelveticaNeue,Helvetica Neue" font-size="48.0" fill="#747474" transform="matrix(1.00, 0.00, -0.00, -1.00, 236.0, 499.6)"> </text><text xml:space="preserve" font-family="HelveticaNeue,Helvetica Neue" font-size="48.0" fill="#747474" transform="matrix(1.00, 0.00, -0.00, -1.00, 249.3, 499.6)">f</text><text xml:space="preserve" font-family="HelveticaNeue,Helvetica Neue" font-size="48.0" fill="#747474" transform="matrix(1.00, 0.00, -0.00, -1.00, 263.5, 499.6)">e</text><text xml:space="preserve" font-family="HelveticaNeue,Helvetica Neue" font-size="48.0" fill="#747474" transform="matrix(1.00, 0.00, -0.00, -1.00, 289.3, 499.6)">d</text><text xml:space="preserve" font-family="HelveticaNeue,Helvetica Neue" font-size="48.0" fill="#747474" transform="matrix(1.00, 0.00, -0.00, -1.00, 317.8, 499.6)">e</text><text xml:space="preserve" font-family="HelveticaNeue,Helvetica Neue" font-size="48.0" fill="#747474" transform="matrix(1.00, 0.00, -0.00, -1.00, 343.5, 499.6)">r</text><text xml:space="preserve" font-family="HelveticaNeue,Helvetica Neue" font-size="48.0" fill="#747474" transform="matrix(1.00, 0.00, -0.00, -1.00, 359.5, 499.6)">a</text><text xml:space="preserve" font-family="HelveticaNeue,Helvetica Neue" font-size="48.0" fill="#747474" transform="matrix(1.00, 0.00, -0.00, -1.00, 385.3, 499.6)">l</text><text xml:space="preserve" font-family="HelveticaNeue,Helvetica Neue" font-size="48.0" fill="#747474" transform="matrix(1.00, 0.00, -0.00, -1.00, 396.0, 499.6)"> </text><text xml:space="preserve" font-family="HelveticaNeue,Helvetica Neue" font-size="48.0" fill="#747474" transform="matrix(1.00, 0.00, -0.00, -1.00, 409.3, 499.6)">g</text><text xml:space="preserve" font-family="HelveticaNeue,Helvetica Neue" font-size="48.0" fill="#747474" transform="matrix(1.00, 0.00, -0.00, -1.00, 436.8, 499.6)">o</text><text xml:space="preserve" font-family="HelveticaNeue,Helvetica Neue" font-size="48.0" fill="#747474" transform="matrix(1.00, 0.00, -0.00, -1.00, 464.4, 499.6)">v</text><text xml:space="preserve" font-family="HelveticaNeue,Helvetica Neue" font-size="48.0" fill="#747474" transform="matrix(1.00, 0.00, -0.00, -1.00, 488.4, 499.6)">e</text><text xml:space="preserve" font-family="HelveticaNeue,Helvetica Neue" font-size="48.0" fill="#747474" transform="matrix(1.00, 0.00, -0.00, -1.00, 514.2, 499.6)">r</text><text xml:space="preserve" font-family="HelveticaNeue,Helvetica Neue" font-size="48.0" fill="#747474" transform="matrix(1.00, 0.00, -0.00, -1.00, 531.0, 499.6)">n</text><text xml:space="preserve" font-family="HelveticaNeue,Helvetica Neue" font-size="48.0" fill="#747474" transform="matrix(1.00, 0.00, -0.00, -1.00, 557.7, 499.6)">m</text><text xml:space="preserve" font-family="HelveticaNeue,Helvetica Neue" font-size="48.0" fill="#747474" transform="matrix(1.00, 0.00, -0.00, -1.00, 598.7, 499.6)">e</text><text xml:space="preserve" font-family="HelveticaNeue,Helvetica Neue" font-size="48.0" fill="#747474" transform="matrix(1.00, 0.00, -0.00, -1.00, 624.4, 499.6)">n</text><text xml:space="preserve" font-family="HelveticaNeue,Helvetica Neue" font-size="48.0" fill="#747474" transform="matrix(1.00, 0.00, -0.00, -1.00, 651.1, 499.6)">t</text><text xml:space="preserve" font-family="HelveticaNeue,Helvetica Neue" font-size="48.0" fill="#747474" transform="matrix(1.00, 0.00, -0.00, -1.00, 666.2, 499.6)"> </text><text xml:space="preserve" font-family="HelveticaNeue,Helvetica Neue" font-size="48.0" fill="#747474" transform="matrix(1.00, 0.00, -0.00, -1.00, 679.6, 499.6)">i</text><text xml:space="preserve" font-family="HelveticaNeue,Helvetica Neue" font-size="48.0" fill="#747474" transform="matrix(1.00, 0.00, -0.00, -1.00, 690.2, 499.6)">n</text><text xml:space="preserve" font-family="HelveticaNeue,Helvetica Neue" font-size="48.0" fill="#747474" transform="matrix(1.00, 0.00, -0.00, -1.00, 716.9, 499.6)">s</text><text xml:space="preserve" font-family="HelveticaNeue,Helvetica Neue" font-size="48.0" fill="#747474" transform="matrix(1.00, 0.00, -0.00, -1.00, 740.9, 499.6)">t</text><text xml:space="preserve" font-family="HelveticaNeue,Helvetica Neue" font-size="48.0" fill="#747474" transform="matrix(1.00, 0.00, -0.00, -1.00, 756.0, 499.6)">i</text><text xml:space="preserve" font-family="HelveticaNeue,Helvetica Neue" font-size="48.0" fill="#747474" transform="matrix(1.00, 0.00, -0.00, -1.00, 766.7, 499.6)">t</text><text xml:space="preserve" font-family="HelveticaNeue,Helvetica Neue" font-size="48.0" fill="#747474" transform="matrix(1.00, 0.00, -0.00, -1.00, 781.8, 499.6)">u</text><text xml:space="preserve" font-family="HelveticaNeue,Helvetica Neue" font-size="48.0" fill="#747474" transform="matrix(1.00, 0.00, -0.00, -1.00, 808.5, 499.6)">t</text><text xml:space="preserve" font-family="HelveticaNeue,Helvetica Neue" font-size="48.0" fill="#747474" transform="matrix(1.00, 0.00, -0.00, -1.00, 823.6, 499.6)">i</text><text xml:space="preserve" font-family="HelveticaNeue,Helvetica Neue" font-size="48.0" fill="#747474" transform="matrix(1.00, 0.00, -0.00, -1.00, 834.3, 499.6)">o</text><text xml:space="preserve" font-family="HelveticaNeue,Helvetica Neue" font-size="48.0" fill="#747474" transform="matrix(1.00, 0.00, -0.00, -1.00, 861.8, 499.6)">n</text><text xml:space="preserve" font-family="HelveticaNeue,Helvetica Neue" font-size="48.0" fill="#747474" transform="matrix(1.00, 0.00, -0.00, -1.00, 888.5, 499.6)">s</text><text xml:space="preserve" font-family="HelveticaNeue,Helvetica Neue" font-size="48.0" fill="#747474" transform="matrix(1.00, 0.00, -0.00, -1.00, 912.5, 499.6)">
</text><text xml:space="preserve" font-family="HelveticaNeue-Italic,Helvetica Neue" font-style="italic" font-size="48.0" fill="#747474" transform="matrix(1.00, 0.00, -0.00, -1.00, 84.0, 303.6)">R</text><text xml:space="preserve" font-family="HelveticaNeue-Italic,Helvetica Neue" font-style="italic" font-size="48.0" fill="#747474" transform="matrix(1.00, 0.00, -0.00, -1.00, 116.9, 303.6)">e</text><text xml:space="preserve" font-family="HelveticaNeue-Italic,Helvetica Neue" font-style="italic" font-size="48.0" fill="#747474" transform="matrix(1.00, 0.00, -0.00, -1.00, 142.7, 303.6)">v</text><text xml:space="preserve" font-family="HelveticaNeue-Italic,Helvetica Neue" font-style="italic" font-size="48.0" fill="#747474" transform="matrix(1.00, 0.00, -0.00, -1.00, 165.7, 303.6)">e</text><text xml:space="preserve" font-family="HelveticaNeue-Italic,Helvetica Neue" font-style="italic" font-size="48.0" fill="#747474" transform="matrix(1.00, 0.00, -0.00, -1.00, 191.5, 303.6)">n</text><text xml:space="preserve" font-family="HelveticaNeue-Italic,Helvetica Neue" font-style="italic" font-size="48.0" fill="#747474" transform="matrix(1.00, 0.00, -0.00, -1.00, 218.2, 303.6)">u</text><text xml:space="preserve" font-family="HelveticaNeue-Italic,Helvetica Neue" font-style="italic" font-size="48.0" fill="#747474" transform="matrix(1.00, 0.00, -0.00, -1.00, 244.9, 303.6)">e</text><text xml:space="preserve" font-family="HelveticaNeue-Italic,Helvetica Neue" font-style="italic" font-size="48.0" fill="#747474" transform="matrix(1.00, 0.00, -0.00, -1.00, 270.7, 303.6)"> </text><text xml:space="preserve" font-family="HelveticaNeue-Italic,Helvetica Neue" font-style="italic" font-size="48.0" fill="#747474" transform="matrix(1.00, 0.00, -0.00, -1.00, 284.0, 303.6)">C</text><text xml:space="preserve" font-family="HelveticaNeue-Italic,Helvetica Neue" font-style="italic" font-size="48.0" fill="#747474" transform="matrix(1.00, 0.00, -0.00, -1.00, 318.7, 303.6)">a</text><text xml:space="preserve" font-family="HelveticaNeue-Italic,Helvetica Neue" font-style="italic" font-size="48.0" fill="#747474" transform="matrix(1.00, 0.00, -0.00, -1.00, 343.6, 303.6)">n</text><text xml:space="preserve" font-family="HelveticaNeue-Italic,Helvetica Neue" font-style="italic" font-size="48.0" fill="#747474" transform="matrix(1.00, 0.00, -0.00, -1.00, 370.3, 303.6)">a</text><text xml:space="preserve" font-family="HelveticaNeue-Italic,Helvetica Neue" font-style="italic" font-size="48.0" fill="#747474" transform="matrix(1.00, 0.00, -0.00, -1.00, 395.2, 303.6)">d</text><text xml:space="preserve" font-family="HelveticaNeue-Italic,Helvetica Neue" font-style="italic" font-size="48.0" fill="#747474" transform="matrix(1.00, 0.00, -0.00, -1.00, 423.6, 303.6)">a</text><text xml:space="preserve" font-family="HelveticaNeue-Italic,Helvetica Neue" font-style="italic" font-size="48.0" fill="#747474" transform="matrix(1.00, 0.00, -0.00, -1.00, 448.6, 303.6)"> </text><text xml:space="preserve" font-family="HelveticaNeue-Italic,Helvetica Neue" font-style="italic" font-size="48.0" fill="#747474" transform="matrix(1.00, 0.00, -0.00, -1.00, 461.9, 303.6)">o</text><text xml:space="preserve" font-family="HelveticaNeue-Italic,Helvetica Neue" font-style="italic" font-size="48.0" fill="#747474" transform="matrix(1.00, 0.00, -0.00, -1.00, 489.5, 303.6)">r</text><text xml:space="preserve" font-family="HelveticaNeue-Italic,Helvetica Neue" font-style="italic" font-size="48.0" fill="#747474" transform="matrix(1.00, 0.00, -0.00, -1.00, 505.4, 303.6)"> </text><text xml:space="preserve" font-family="HelveticaNeue-Italic,Helvetica Neue" font-style="italic" font-size="48.0" fill="#747474" transform="matrix(1.00, 0.00, -0.00, -1.00, 518.8, 303.6)">C</text><text xml:space="preserve" font-family="HelveticaNeue-Italic,Helvetica Neue" font-style="italic" font-size="48.0" fill="#747474" transform="matrix(1.00, 0.00, -0.00, -1.00, 553.4, 303.6)">i</text><text xml:space="preserve" font-family="HelveticaNeue-Italic,Helvetica Neue" font-style="italic" font-size="48.0" fill="#747474" transform="matrix(1.00, 0.00, -0.00, -1.00, 564.1, 303.6)">t</text><text xml:space="preserve" font-family="HelveticaNeue-Italic,Helvetica Neue" font-style="italic" font-size="48.0" fill="#747474" transform="matrix(1.00, 0.00, -0.00, -1.00, 579.2, 303.6)">i</text><text xml:space="preserve" font-family="HelveticaNeue-Italic,Helvetica Neue" font-style="italic" font-size="48.0" fill="#747474" transform="matrix(1.00, 0.00, -0.00, -1.00, 589.9, 303.6)">z</text><text xml:space="preserve" font-family="HelveticaNeue-Italic,Helvetica Neue" font-style="italic" font-size="48.0" fill="#747474" transform="matrix(1.00, 0.00, -0.00, -1.00, 611.2, 303.6)">e</text><text xml:space="preserve" font-family="HelveticaNeue-Italic,Helvetica Neue" font-style="italic" font-size="48.0" fill="#747474" transform="matrix(1.00, 0.00, -0.00, -1.00, 637.0, 303.6)">n</text><text xml:space="preserve" font-family="HelveticaNeue-Italic,Helvetica Neue" font-style="italic" font-size="48.0" fill="#747474" transform="matrix(1.00, 0.00, -0.00, -1.00, 663.6, 303.6)">s</text><text xml:space="preserve" font-family="HelveticaNeue-Italic,Helvetica Neue" font-style="italic" font-size="48.0" fill="#747474" transform="matrix(1.00, 0.00, -0.00, -1.00, 686.7, 303.6)">h</text><text xml:space="preserve" font-family="HelveticaNeue-Italic,Helvetica Neue" font-style="italic" font-size="48.0" fill="#747474" transform="matrix(1.00, 0.00, -0.00, -1.00, 713.4, 303.6)">i</text><text xml:space="preserve" font-family="HelveticaNeue-Italic,Helvetica Neue" font-style="italic" font-size="48.0" fill="#747474" transform="matrix(1.00, 0.00, -0.00, -1.00, 724.1, 303.6)">p</text><text xml:space="preserve" font-family="HelveticaNeue-Italic,Helvetica Neue" font-style="italic" font-size="48.0" fill="#747474" transform="matrix(1.00, 0.00, -0.00, -1.00, 752.5, 303.6)"> </text><text xml:space="preserve" font-family="HelveticaNeue-Italic,Helvetica Neue" font-style="italic" font-size="48.0" fill="#747474" transform="matrix(1.00, 0.00, -0.00, -1.00, 765.9, 303.6)">&amp;</text><text xml:space="preserve" font-family="HelveticaNeue-Italic,Helvetica Neue" font-style="italic" font-size="48.0" fill="#747474" transform="matrix(1.00, 0.00, -0.00, -1.00, 796.1, 303.6)"> </text><text xml:space="preserve" font-family="HelveticaNeue-Italic,Helvetica Neue" font-style="italic" font-size="48.0" fill="#747474" transform="matrix(1.00, 0.00, -0.00, -1.00, 809.5, 303.6)">I</text><text xml:space="preserve" font-family="HelveticaNeue-Italic,Helvetica Neue" font-style="italic" font-size="48.0" fill="#747474" transform="matrix(1.00, 0.00, -0.00, -1.00, 821.9, 303.6)">m</text><text xml:space="preserve" font-family="HelveticaNeue-Italic,Helvetica Neue" font-style="italic" font-size="48.0" fill="#747474" transform="matrix(1.00, 0.00, -0.00, -1.00, 862.8, 303.6)">m</text><text xml:space="preserve" font-family="HelveticaNeue-Italic,Helvetica Neue" font-style="italic" font-size="48.0" fill="#747474" transform="matrix(1.00, 0.00, -0.00, -1.00, 903.7, 303.6)">i</text><text xml:space="preserve" font-family="HelveticaNeue-Italic,Helvetica Neue" font-style="italic" font-size="48.0" fill="#747474" transform="matrix(1.00, 0.00, -0.00, -1.00, 914.4, 303.6)">g</text><text xml:space="preserve" font-family="HelveticaNeue-Italic,Helvetica Neue" font-style="italic" font-size="48.0" fill="#747474" transform="matrix(1.00, 0.00, -0.00, -1.00, 941.9, 303.6)">r</text><text xml:space="preserve" font-family="HelveticaNeue-Italic,Helvetica Neue" font-style="italic" font-size="48.0" fill="#747474" transform="matrix(1.00, 0.00, -0.00, -1.00, 957.9, 303.6)">a</text><text xml:space="preserve" font-family="HelveticaNeue-Italic,Helvetica Neue" font-style="italic" font-size="48.0" fill="#747474" transform="matrix(1.00, 0.00, -0.00, -1.00, 982.8, 303.6)">t</text><text xml:space="preserve" font-family="HelveticaNeue-Italic,Helvetica Neue" font-style="italic" font-size="48.0" fill="#747474" transform="matrix(1.00, 0.00, -0.00, -1.00, 997.9, 303.6)">i</text><text xml:space="preserve" font-family="HelveticaNeue-Italic,Helvetica Neue" font-style="italic" font-size="48.0" fill="#747474" transform="matrix(1.00, 0.00, -0.00, -1.00, 1008.6, 303.6)">o</text><text xml:space="preserve" font-family="HelveticaNeue-Italic,Helvetica Neue" font-style="italic" font-size="48.0" fill="#747474" transform="matrix(1.00, 0.00, -0.00, -1.00, 1036.1, 303.6)">n</text><text xml:space="preserve" font-family="HelveticaNeue-Italic,Helvetica Neue" font-style="italic" font-size="48.0" fill="#747474" transform="matrix(1.00, 0.00, -0.00, -1.00, 1062.8, 303.6)"> </text><text xml:space="preserve" font-family="HelveticaNeue-Italic,Helvetica Neue" font-style="italic" font-size="48.0" fill="#747474" transform="matrix(1.00, 0.00, -0.00, -1.00, 1076.2, 303.6)">-</text><text xml:space="preserve" font-family="HelveticaNeue-Italic,Helvetica Neue" font-style="italic" font-size="48.0" fill="#747474" transform="matrix(1.00, 0.00, -0.00, -1.00, 1094.8, 303.6)"> </text><text xml:space="preserve" font-family="HelveticaNeue-Italic,Helvetica Neue" font-style="italic" font-size="48.0" fill="#747474" transform="matrix(1.00, 0.00, -0.00, -1.00, 1108.2, 303.6)">y</text><text xml:space="preserve" font-family="HelveticaNeue-Italic,Helvetica Neue" font-style="italic" font-size="48.0" fill="#747474" transform="matrix(1.00, 0.00, -0.00, -1.00, 1131.3, 303.6)">e</text><text xml:space="preserve" font-family="HelveticaNeue-Italic,Helvetica Neue" font-style="italic" font-size="48.0" fill="#747474" transform="matrix(1.00, 0.00, -0.00, -1.00, 1157.0, 303.6)">s</text><text xml:space="preserve" font-family="HelveticaNeue-Italic,Helvetica Neue" font-style="italic" font-size="48.0" fill="#747474" transform="matrix(1.00, 0.00, -0.00, -1.00, 1180.1, 303.6)"> </text><text xml:space="preserve" font-family="HelveticaNeue-Italic,Helvetica Neue" font-style="italic" font-size="48.0" fill="#747474" transform="matrix(1.00, 0.00, -0.00, -1.00, 84.0, 205.6)">A</text><text xml:space="preserve" font-family="HelveticaNeue-Italic,Helvetica Neue" font-style="italic" font-size="48.0" fill="#747474" transform="matrix(1.00, 0.00, -0.00, -1.00, 116.0, 205.6)">i</text><text xml:space="preserve" font-family="HelveticaNeue-Italic,Helvetica Neue" font-style="italic" font-size="48.0" fill="#747474" transform="matrix(1.00, 0.00, -0.00, -1.00, 126.7, 205.6)">r</text><text xml:space="preserve" font-family="HelveticaNeue-Italic,Helvetica Neue" font-style="italic" font-size="48.0" fill="#747474" transform="matrix(1.00, 0.00, -0.00, -1.00, 142.7, 205.6)"> </text><text xml:space="preserve" font-family="HelveticaNeue-Italic,Helvetica Neue" font-style="italic" font-size="48.0" fill="#747474" transform="matrix(1.00, 0.00, -0.00, -1.00, 156.0, 205.6)">C</text><text xml:space="preserve" font-family="HelveticaNeue-Italic,Helvetica Neue" font-style="italic" font-size="48.0" fill="#747474" transform="matrix(1.00, 0.00, -0.00, -1.00, 190.7, 205.6)">a</text><text xml:space="preserve" font-family="HelveticaNeue-Italic,Helvetica Neue" font-style="italic" font-size="48.0" fill="#747474" transform="matrix(1.00, 0.00, -0.00, -1.00, 215.6, 205.6)">n</text><text xml:space="preserve" font-family="HelveticaNeue-Italic,Helvetica Neue" font-style="italic" font-size="48.0" fill="#747474" transform="matrix(1.00, 0.00, -0.00, -1.00, 242.3, 205.6)">a</text><text xml:space="preserve" font-family="HelveticaNeue-Italic,Helvetica Neue" font-style="italic" font-size="48.0" fill="#747474" transform="matrix(1.00, 0.00, -0.00, -1.00, 267.2, 205.6)">d</text><text xml:space="preserve" font-family="HelveticaNeue-Italic,Helvetica Neue" font-style="italic" font-size="48.0" fill="#747474" transform="matrix(1.00, 0.00, -0.00, -1.00, 295.6, 205.6)">a</text><text xml:space="preserve" font-family="HelveticaNeue-Italic,Helvetica Neue" font-style="italic" font-size="48.0" fill="#747474" transform="matrix(1.00, 0.00, -0.00, -1.00, 320.5, 205.6)"> </text><text xml:space="preserve" font-family="HelveticaNeue-Italic,Helvetica Neue" font-style="italic" font-size="48.0" fill="#747474" transform="matrix(1.00, 0.00, -0.00, -1.00, 333.9, 205.6)">o</text><text xml:space="preserve" font-family="HelveticaNeue-Italic,Helvetica Neue" font-style="italic" font-size="48.0" fill="#747474" transform="matrix(1.00, 0.00, -0.00, -1.00, 361.4, 205.6)">r</text><text xml:space="preserve" font-family="HelveticaNeue-Italic,Helvetica Neue" font-style="italic" font-size="48.0" fill="#747474" transform="matrix(1.00, 0.00, -0.00, -1.00, 377.4, 205.6)"> </text><text xml:space="preserve" font-family="HelveticaNeue-Italic,Helvetica Neue" font-style="italic" font-size="48.0" fill="#747474" transform="matrix(1.00, 0.00, -0.00, -1.00, 390.8, 205.6)">R</text><text xml:space="preserve" font-family="HelveticaNeue-Italic,Helvetica Neue" font-style="italic" font-size="48.0" fill="#747474" transform="matrix(1.00, 0.00, -0.00, -1.00, 423.6, 205.6)">o</text><text xml:space="preserve" font-family="HelveticaNeue-Italic,Helvetica Neue" font-style="italic" font-size="48.0" fill="#747474" transform="matrix(1.00, 0.00, -0.00, -1.00, 451.2, 205.6)">y</text><text xml:space="preserve" font-family="HelveticaNeue-Italic,Helvetica Neue" font-style="italic" font-size="48.0" fill="#747474" transform="matrix(1.00, 0.00, -0.00, -1.00, 474.3, 205.6)">a</text><text xml:space="preserve" font-family="HelveticaNeue-Italic,Helvetica Neue" font-style="italic" font-size="48.0" fill="#747474" transform="matrix(1.00, 0.00, -0.00, -1.00, 499.2, 205.6)">l</text><text xml:space="preserve" font-family="HelveticaNeue-Italic,Helvetica Neue" font-style="italic" font-size="48.0" fill="#747474" transform="matrix(1.00, 0.00, -0.00, -1.00, 509.9, 205.6)"> </text><text xml:space="preserve" font-family="HelveticaNeue-Italic,Helvetica Neue" font-style="italic" font-size="48.0" fill="#747474" transform="matrix(1.00, 0.00, -0.00, -1.00, 523.2, 205.6)">B</text><text xml:space="preserve" font-family="HelveticaNeue-Italic,Helvetica Neue" font-style="italic" font-size="48.0" fill="#747474" transform="matrix(1.00, 0.00, -0.00, -1.00, 556.1, 205.6)">a</text><text xml:space="preserve" font-family="HelveticaNeue-Italic,Helvetica Neue" font-style="italic" font-size="48.0" fill="#747474" transform="matrix(1.00, 0.00, -0.00, -1.00, 581.0, 205.6)">n</text><text xml:space="preserve" font-family="HelveticaNeue-Italic,Helvetica Neue" font-style="italic" font-size="48.0" fill="#747474" transform="matrix(1.00, 0.00, -0.00, -1.00, 607.7, 205.6)">k</text><text xml:space="preserve" font-family="HelveticaNeue-Italic,Helvetica Neue" font-style="italic" font-size="48.0" fill="#747474" transform="matrix(1.00, 0.00, -0.00, -1.00, 630.8, 205.6)"> </text><text xml:space="preserve" font-family="HelveticaNeue-Italic,Helvetica Neue" font-style="italic" font-size="48.0" fill="#747474" transform="matrix(1.00, 0.00, -0.00, -1.00, 644.1, 205.6)">o</text><text xml:space="preserve" font-family="HelveticaNeue-Italic,Helvetica Neue" font-style="italic" font-size="48.0" fill="#747474" transform="matrix(1.00, 0.00, -0.00, -1.00, 671.7, 205.6)">r</text><text xml:space="preserve" font-family="HelveticaNeue-Italic,Helvetica Neue" font-style="italic" font-size="48.0" fill="#747474" transform="matrix(1.00, 0.00, -0.00, -1.00, 687.6, 205.6)"> </text><text xml:space="preserve" font-family="HelveticaNeue-Italic,Helvetica Neue" font-style="italic" font-size="48.0" fill="#747474" transform="matrix(1.00, 0.00, -0.00, -1.00, 701.0, 205.6)">T</text><text xml:space="preserve" font-family="HelveticaNeue-Italic,Helvetica Neue" font-style="italic" font-size="48.0" fill="#747474" transform="matrix(1.00, 0.00, -0.00, -1.00, 728.5, 205.6)">i</text><text xml:space="preserve" font-family="HelveticaNeue-Italic,Helvetica Neue" font-style="italic" font-size="48.0" fill="#747474" transform="matrix(1.00, 0.00, -0.00, -1.00, 739.2, 205.6)">m</text><text xml:space="preserve" font-family="HelveticaNeue-Italic,Helvetica Neue" font-style="italic" font-size="48.0" fill="#747474" transform="matrix(1.00, 0.00, -0.00, -1.00, 780.1, 205.6)"> </text><text xml:space="preserve" font-family="HelveticaNeue-Italic,Helvetica Neue" font-style="italic" font-size="48.0" fill="#747474" transform="matrix(1.00, 0.00, -0.00, -1.00, 793.4, 205.6)">H</text><text xml:space="preserve" font-family="HelveticaNeue-Italic,Helvetica Neue" font-style="italic" font-size="48.0" fill="#747474" transform="matrix(1.00, 0.00, -0.00, -1.00, 828.1, 205.6)">o</text><text xml:space="preserve" font-family="HelveticaNeue-Italic,Helvetica Neue" font-style="italic" font-size="48.0" fill="#747474" transform="matrix(1.00, 0.00, -0.00, -1.00, 855.6, 205.6)">r</text><text xml:space="preserve" font-family="HelveticaNeue-Italic,Helvetica Neue" font-style="italic" font-size="48.0" fill="#747474" transform="matrix(1.00, 0.00, -0.00, -1.00, 871.6, 205.6)">t</text><text xml:space="preserve" font-family="HelveticaNeue-Italic,Helvetica Neue" font-style="italic" font-size="48.0" fill="#747474" transform="matrix(1.00, 0.00, -0.00, -1.00, 886.8, 205.6)">o</text><text xml:space="preserve" font-family="HelveticaNeue-Italic,Helvetica Neue" font-style="italic" font-size="48.0" fill="#747474" transform="matrix(1.00, 0.00, -0.00, -1.00, 914.3, 205.6)">n</text><text xml:space="preserve" font-family="HelveticaNeue-Italic,Helvetica Neue" font-style="italic" font-size="48.0" fill="#747474" transform="matrix(1.00, 0.00, -0.00, -1.00, 941.0, 205.6)">’</text><text xml:space="preserve" font-family="HelveticaNeue-Italic,Helvetica Neue" font-style="italic" font-size="48.0" fill="#747474" transform="matrix(1.00, 0.00, -0.00, -1.00, 950.8, 205.6)">s</text><text xml:space="preserve" font-family="HelveticaNeue-Italic,Helvetica Neue" font-style="italic" font-size="48.0" fill="#747474" transform="matrix(1.00, 0.00, -0.00, -1.00, 973.9, 205.6)"> </text><text xml:space="preserve" font-family="HelveticaNeue-Italic,Helvetica Neue" font-style="italic" font-size="48.0" fill="#747474" transform="matrix(1.00, 0.00, -0.00, -1.00, 987.2, 205.6)">-</text><text xml:space="preserve" font-family="HelveticaNeue-Italic,Helvetica Neue" font-style="italic" font-size="48.0" fill="#747474" transform="matrix(1.00, 0.00, -0.00, -1.00, 1005.9, 205.6)"> </text><text xml:space="preserve" font-family="HelveticaNeue-Italic,Helvetica Neue" font-style="italic" font-size="48.0" fill="#747474" transform="matrix(1.00, 0.00, -0.00, -1.00, 1019.2, 205.6)">n</text><text xml:space="preserve" font-family="HelveticaNeue-Italic,Helvetica Neue" font-style="italic" font-size="48.0" fill="#747474" transform="matrix(1.00, 0.00, -0.00, -1.00, 1045.9, 205.6)">o</text></g></svg>