<?xml version="1.0" encoding="UTF-8" standalone="no"?><svg xmlns="http://www.w3.org/2000/svg" xmlns:xlink="http://www.w3.org/1999/xlink" clip-rule="evenodd" stroke-miterlimit="10" viewBox="0 0 1280 720"><desc>SVG generated by Keynote</desc><defs></defs><g transform="matrix(1.00, 0.00, -0.00, -1.00, 0.0, 720.0)"><path d="M 0.0 720.0 L 1280.0 720.0 L 1280.0 0.0 L 0.0 0.0 Z M 0.0 720.0 " fill="#FFFFFF"></path><text xml:space="preserve" font-family="HelveticaNeue-Light,Helvetica Neue" font-size="96.0" fill="#000000" transform="matrix(1.00, 0.00, -0.00, -1.00, 84.0, 324.2)">N</text><text xml:space="preserve" font-family="HelveticaNeue-Light,Helvetica Neue" font-size="96.0" fill="#000000" transform="matrix(1.00, 0.00, -0.00, -1.00, 151.6, 324.2)">o</text><text xml:space="preserve" font-family="HelveticaNeue-Light,Helvetica Neue" font-size="96.0" fill="#000000" transform="matrix(1.00, 0.00, -0.00, -1.00, 205.0, 324.2)">w</text><text xml:space="preserve" font-family="HelveticaNeue-Light,Helvetica Neue" font-size="96.0" fill="#000000" transform="matrix(1.00, 0.00, -0.00, -1.00, 276.1, 324.2)"> </text><text xml:space="preserve" font-family="HelveticaNeue-Light,Helvetica Neue" font-size="96.0" fill="#000000" transform="matrix(1.00, 0.00, -0.00, -1.00, 302.8, 324.2)">f</text><text xml:space="preserve" font-family="HelveticaNeue-Light,Helvetica Neue" font-size="96.0" fill="#000000" transform="matrix(1.00, 0.00, -0.00, -1.00, 327.6, 324.2)">o</text><text xml:space="preserve" font-family="HelveticaNeue-Light,Helvetica Neue" font-size="96.0" fill="#000000" transform="matrix(1.00, 0.00, -0.00, -1.00, 381.0, 324.2)">r</text><text xml:space="preserve" font-family="HelveticaNeue-Light,Helvetica Neue" font-size="96.0" fill="#000000" transform="matrix(1.00, 0.00, -0.00, -1.00, 411.3, 324.2)"> </text><text xml:space="preserve" font-family="HelveticaNeue-Light,Helvetica Neue" font-size="96.0" fill="#000000" transform="matrix(1.00, 0.00, -0.00, -1.00, 438.0, 324.2)">c</text><text xml:space="preserve" font-family="HelveticaNeue-Light,Helvetica Neue" font-size="96.0" fill="#000000" transform="matrix(1.00, 0.00, -0.00, -1.00, 487.8, 324.2)">o</text><text xml:space="preserve" font-family="HelveticaNeue-Light,Helvetica Neue" font-size="96.0" fill="#000000" transform="matrix(1.00, 0.00, -0.00, -1.00, 541.2, 324.2)">p</text><text xml:space="preserve" font-family="HelveticaNeue-Light,Helvetica Neue" font-size="96.0" fill="#000000" transform="matrix(1.00, 0.00, -0.00, -1.00, 596.3, 324.2)">y</text><text xml:space="preserve" font-family="HelveticaNeue-Light,Helvetica Neue" font-size="96.0" fill="#000000" transform="matrix(1.00, 0.00, -0.00, -1.00, 640.7, 324.2)">r</text><text xml:space="preserve" font-family="HelveticaNeue-Light,Helvetica Neue" font-size="96.0" fill="#000000" transform="matrix(1.00, 0.00, -0.00, -1.00, 670.9, 324.2)">i</text><text xml:space="preserve" font-family="HelveticaNeue-Light,Helvetica Neue" font-size="96.0" fill="#000000" transform="matrix(1.00, 0.00, -0.00, -1.00, 688.7, 324.2)">g</text><text xml:space="preserve" font-family="HelveticaNeue-Light,Helvetica Neue" font-size="96.0" fill="#000000" transform="matrix(1.00, 0.00, -0.00, -1.00, 742.1, 324.2)">h</text><text xml:space="preserve" font-family="HelveticaNeue-Light,Helvetica Neue" font-size="96.0" fill="#000000" transform="matrix(1.00, 0.00, -0.00, -1.00, 793.6, 324.2)">t</text></g></svg>