<?xml version="1.0" encoding="UTF-8" standalone="no"?><svg xmlns="http://www.w3.org/2000/svg" xmlns:xlink="http://www.w3.org/1999/xlink" clip-rule="evenodd" stroke-miterlimit="10" viewBox="0 0 1280 720"><desc>SVG generated by Keynote</desc><defs></defs><g transform="matrix(1.00, 0.00, -0.00, -1.00, 0.0, 720.0)"><path d="M 0.0 720.0 L 1280.0 720.0 L 1280.0 0.0 L 0.0 0.0 Z M 0.0 720.0 " fill="#FFFFFF"></path><path d="M 0.0 0.5 L 1153.0 0.5 " fill="none" stroke="#9A9A9A" stroke-width="1.00" transform="matrix(1.00, 0.00, 0.00, -1.00, 64.0, 575.0)"></path><text xml:space="preserve" font-family="HelveticaNeue-Light,Helvetica Neue" font-size="38.0" fill="#000000" transform="matrix(1.00, 0.00, -0.00, -1.00, 60.0, 605.2)">T</text><text xml:space="preserve" font-family="HelveticaNeue-Light,Helvetica Neue" font-size="38.0" fill="#000000" transform="matrix(1.00, 0.00, -0.00, -1.00, 81.1, 605.2)">h</text><text xml:space="preserve" font-family="HelveticaNeue-Light,Helvetica Neue" font-size="38.0" fill="#000000" transform="matrix(1.00, 0.00, -0.00, -1.00, 101.5, 605.2)">r</text><text xml:space="preserve" font-family="HelveticaNeue-Light,Helvetica Neue" font-size="38.0" fill="#000000" transform="matrix(1.00, 0.00, -0.00, -1.00, 112.8, 605.2)">e</text><text xml:space="preserve" font-family="HelveticaNeue-Light,Helvetica Neue" font-size="38.0" fill="#000000" transform="matrix(1.00, 0.00, -0.00, -1.00, 132.5, 605.2)">a</text><text xml:space="preserve" font-family="HelveticaNeue-Light,Helvetica Neue" font-size="38.0" fill="#000000" transform="matrix(1.00, 0.00, -0.00, -1.00, 152.3, 605.2)">d</text><text xml:space="preserve" font-family="HelveticaNeue-Light,Helvetica Neue" font-size="38.0" fill="#000000" transform="matrix(1.00, 0.00, -0.00, -1.00, 174.1, 605.2)">l</text><text xml:space="preserve" font-family="HelveticaNeue-Light,Helvetica Neue" font-size="38.0" fill="#000000" transform="matrix(1.00, 0.00, -0.00, -1.00, 181.1, 605.2)">e</text><text xml:space="preserve" font-family="HelveticaNeue-Light,Helvetica Neue" font-size="38.0" fill="#000000" transform="matrix(1.00, 0.00, -0.00, -1.00, 200.8, 605.2)">s</text><text xml:space="preserve" font-family="HelveticaNeue-Light,Helvetica Neue" font-size="38.0" fill="#000000" transform="matrix(1.00, 0.00, -0.00, -1.00, 219.1, 605.2)">s</text><text xml:space="preserve" font-family="HelveticaNeue,Helvetica Neue" font-size="24.0" fill="#747474" transform="matrix(1.00, 0.00, -0.00, -1.00, 60.0, 520.8)">•</text><text xml:space="preserve" font-family="HelveticaNeue,Helvetica Neue" font-size="24.0" fill="#747474" transform="matrix(1.00, 0.00, -0.00, -1.00, 81.0, 520.8)">C</text><text xml:space="preserve" font-family="HelveticaNeue,Helvetica Neue" font-size="24.0" fill="#747474" transform="matrix(1.00, 0.00, -0.00, -1.00, 98.3, 520.8)">o</text><text xml:space="preserve" font-family="HelveticaNeue,Helvetica Neue" font-size="24.0" fill="#747474" transform="matrix(1.00, 0.00, -0.00, -1.00, 112.1, 520.8)">m</text><text xml:space="preserve" font-family="HelveticaNeue,Helvetica Neue" font-size="24.0" fill="#747474" transform="matrix(1.00, 0.00, -0.00, -1.00, 132.6, 520.8)">m</text><text xml:space="preserve" font-family="HelveticaNeue,Helvetica Neue" font-size="24.0" fill="#747474" transform="matrix(1.00, 0.00, -0.00, -1.00, 153.0, 520.8)">u</text><text xml:space="preserve" font-family="HelveticaNeue,Helvetica Neue" font-size="24.0" fill="#747474" transform="matrix(1.00, 0.00, -0.00, -1.00, 166.4, 520.8)">n</text><text xml:space="preserve" font-family="HelveticaNeue,Helvetica Neue" font-size="24.0" fill="#747474" transform="matrix(1.00, 0.00, -0.00, -1.00, 179.7, 520.8)">i</text><text xml:space="preserve" font-family="HelveticaNeue,Helvetica Neue" font-size="24.0" fill="#747474" transform="matrix(1.00, 0.00, -0.00, -1.00, 185.1, 520.8)">t</text><text xml:space="preserve" font-family="HelveticaNeue,Helvetica Neue" font-size="24.0" fill="#747474" transform="matrix(1.00, 0.00, -0.00, -1.00, 192.6, 520.8)">y</text></g></svg>