<?xml version="1.0" encoding="UTF-8" standalone="no"?><svg xmlns="http://www.w3.org/2000/svg" xmlns:xlink="http://www.w3.org/1999/xlink" clip-rule="evenodd" stroke-miterlimit="10" viewBox="0 0 1280 720"><desc>SVG generated by Keynote</desc><defs></defs><g transform="matrix(1.00, 0.00, -0.00, -1.00, 0.0, 720.0)"><path d="M 0.0 720.0 L 1280.0 720.0 L 1280.0 0.0 L 0.0 0.0 Z M 0.0 720.0 " fill="#FFFFFF"></path><path d="M 0.0 0.5 L 1153.0 0.5 " fill="none" stroke="#9A9A9A" stroke-width="1.00" transform="matrix(1.00, 0.00, 0.00, -1.00, 64.0, 575.0)"></path><text xml:space="preserve" font-family="HelveticaNeue-Light,Helvetica Neue" font-size="38.0" fill="#000000" transform="matrix(1.00, 0.00, -0.00, -1.00, 60.0, 605.2)">H</text><text xml:space="preserve" font-family="HelveticaNeue-Light,Helvetica Neue" font-size="38.0" fill="#000000" transform="matrix(1.00, 0.00, -0.00, -1.00, 86.8, 605.2)">o</text><text xml:space="preserve" font-family="HelveticaNeue-Light,Helvetica Neue" font-size="38.0" fill="#000000" transform="matrix(1.00, 0.00, -0.00, -1.00, 107.9, 605.2)">w</text><text xml:space="preserve" font-family="HelveticaNeue-Light,Helvetica Neue" font-size="38.0" fill="#000000" transform="matrix(1.00, 0.00, -0.00, -1.00, 136.0, 605.2)"> </text><text xml:space="preserve" font-family="HelveticaNeue-Light,Helvetica Neue" font-size="38.0" fill="#000000" transform="matrix(1.00, 0.00, -0.00, -1.00, 146.6, 605.2)">d</text><text xml:space="preserve" font-family="HelveticaNeue-Light,Helvetica Neue" font-size="38.0" fill="#000000" transform="matrix(1.00, 0.00, -0.00, -1.00, 168.4, 605.2)">o</text><text xml:space="preserve" font-family="HelveticaNeue-Light,Helvetica Neue" font-size="38.0" fill="#000000" transform="matrix(1.00, 0.00, -0.00, -1.00, 189.5, 605.2)"> </text><text xml:space="preserve" font-family="HelveticaNeue-Light,Helvetica Neue" font-size="38.0" fill="#000000" transform="matrix(1.00, 0.00, -0.00, -1.00, 200.1, 605.2)">G</text><text xml:space="preserve" font-family="HelveticaNeue-Light,Helvetica Neue" font-size="38.0" fill="#000000" transform="matrix(1.00, 0.00, -0.00, -1.00, 228.3, 605.2)">o</text><text xml:space="preserve" font-family="HelveticaNeue-Light,Helvetica Neue" font-size="38.0" fill="#000000" transform="matrix(1.00, 0.00, -0.00, -1.00, 249.4, 605.2)">o</text><text xml:space="preserve" font-family="HelveticaNeue-Light,Helvetica Neue" font-size="38.0" fill="#000000" transform="matrix(1.00, 0.00, -0.00, -1.00, 270.5, 605.2)">g</text><text xml:space="preserve" font-family="HelveticaNeue-Light,Helvetica Neue" font-size="38.0" fill="#000000" transform="matrix(1.00, 0.00, -0.00, -1.00, 291.6, 605.2)">l</text><text xml:space="preserve" font-family="HelveticaNeue-Light,Helvetica Neue" font-size="38.0" fill="#000000" transform="matrix(1.00, 0.00, -0.00, -1.00, 298.7, 605.2)">e</text><text xml:space="preserve" font-family="HelveticaNeue-Light,Helvetica Neue" font-size="38.0" fill="#000000" transform="matrix(1.00, 0.00, -0.00, -1.00, 318.4, 605.2)"> </text><text xml:space="preserve" font-family="HelveticaNeue-Light,Helvetica Neue" font-size="38.0" fill="#000000" transform="matrix(1.00, 0.00, -0.00, -1.00, 329.0, 605.2)">S</text><text xml:space="preserve" font-family="HelveticaNeue-Light,Helvetica Neue" font-size="38.0" fill="#000000" transform="matrix(1.00, 0.00, -0.00, -1.00, 352.9, 605.2)">e</text><text xml:space="preserve" font-family="HelveticaNeue-Light,Helvetica Neue" font-size="38.0" fill="#000000" transform="matrix(1.00, 0.00, -0.00, -1.00, 372.6, 605.2)">a</text><text xml:space="preserve" font-family="HelveticaNeue-Light,Helvetica Neue" font-size="38.0" fill="#000000" transform="matrix(1.00, 0.00, -0.00, -1.00, 392.3, 605.2)">r</text><text xml:space="preserve" font-family="HelveticaNeue-Light,Helvetica Neue" font-size="38.0" fill="#000000" transform="matrix(1.00, 0.00, -0.00, -1.00, 403.6, 605.2)">c</text><text xml:space="preserve" font-family="HelveticaNeue-Light,Helvetica Neue" font-size="38.0" fill="#000000" transform="matrix(1.00, 0.00, -0.00, -1.00, 423.4, 605.2)">h</text><text xml:space="preserve" font-family="HelveticaNeue-Light,Helvetica Neue" font-size="38.0" fill="#000000" transform="matrix(1.00, 0.00, -0.00, -1.00, 443.8, 605.2)"> </text><text xml:space="preserve" font-family="HelveticaNeue-Light,Helvetica Neue" font-size="38.0" fill="#000000" transform="matrix(1.00, 0.00, -0.00, -1.00, 454.3, 605.2)">R</text><text xml:space="preserve" font-family="HelveticaNeue-Light,Helvetica Neue" font-size="38.0" fill="#000000" transform="matrix(1.00, 0.00, -0.00, -1.00, 479.7, 605.2)">e</text><text xml:space="preserve" font-family="HelveticaNeue-Light,Helvetica Neue" font-size="38.0" fill="#000000" transform="matrix(1.00, 0.00, -0.00, -1.00, 499.4, 605.2)">s</text><text xml:space="preserve" font-family="HelveticaNeue-Light,Helvetica Neue" font-size="38.0" fill="#000000" transform="matrix(1.00, 0.00, -0.00, -1.00, 517.7, 605.2)">u</text><text xml:space="preserve" font-family="HelveticaNeue-Light,Helvetica Neue" font-size="38.0" fill="#000000" transform="matrix(1.00, 0.00, -0.00, -1.00, 538.1, 605.2)">l</text><text xml:space="preserve" font-family="HelveticaNeue-Light,Helvetica Neue" font-size="38.0" fill="#000000" transform="matrix(1.00, 0.00, -0.00, -1.00, 545.1, 605.2)">t</text><text xml:space="preserve" font-family="HelveticaNeue-Light,Helvetica Neue" font-size="38.0" fill="#000000" transform="matrix(1.00, 0.00, -0.00, -1.00, 556.4, 605.2)">s</text><text xml:space="preserve" font-family="HelveticaNeue-Light,Helvetica Neue" font-size="38.0" fill="#000000" transform="matrix(1.00, 0.00, -0.00, -1.00, 574.6, 605.2)"> </text><text xml:space="preserve" font-family="HelveticaNeue-Light,Helvetica Neue" font-size="38.0" fill="#000000" transform="matrix(1.00, 0.00, -0.00, -1.00, 585.2, 605.2)">a</text><text xml:space="preserve" font-family="HelveticaNeue-Light,Helvetica Neue" font-size="38.0" fill="#000000" transform="matrix(1.00, 0.00, -0.00, -1.00, 604.9, 605.2)">f</text><text xml:space="preserve" font-family="HelveticaNeue-Light,Helvetica Neue" font-size="38.0" fill="#000000" transform="matrix(1.00, 0.00, -0.00, -1.00, 614.1, 605.2)">f</text><text xml:space="preserve" font-family="HelveticaNeue-Light,Helvetica Neue" font-size="38.0" fill="#000000" transform="matrix(1.00, 0.00, -0.00, -1.00, 623.9, 605.2)">e</text><text xml:space="preserve" font-family="HelveticaNeue-Light,Helvetica Neue" font-size="38.0" fill="#000000" transform="matrix(1.00, 0.00, -0.00, -1.00, 643.6, 605.2)">c</text><text xml:space="preserve" font-family="HelveticaNeue-Light,Helvetica Neue" font-size="38.0" fill="#000000" transform="matrix(1.00, 0.00, -0.00, -1.00, 663.4, 605.2)">t</text><text xml:space="preserve" font-family="HelveticaNeue-Light,Helvetica Neue" font-size="38.0" fill="#000000" transform="matrix(1.00, 0.00, -0.00, -1.00, 674.6, 605.2)"> </text><text xml:space="preserve" font-family="HelveticaNeue-Light,Helvetica Neue" font-size="38.0" fill="#000000" transform="matrix(1.00, 0.00, -0.00, -1.00, 685.2, 605.2)">y</text><text xml:space="preserve" font-family="HelveticaNeue-Light,Helvetica Neue" font-size="38.0" fill="#000000" transform="matrix(1.00, 0.00, -0.00, -1.00, 702.8, 605.2)">o</text><text xml:space="preserve" font-family="HelveticaNeue-Light,Helvetica Neue" font-size="38.0" fill="#000000" transform="matrix(1.00, 0.00, -0.00, -1.00, 723.9, 605.2)">u</text><text xml:space="preserve" font-family="HelveticaNeue-Light,Helvetica Neue" font-size="38.0" fill="#000000" transform="matrix(1.00, 0.00, -0.00, -1.00, 744.3, 605.2)">r</text><text xml:space="preserve" font-family="HelveticaNeue-Light,Helvetica Neue" font-size="38.0" fill="#000000" transform="matrix(1.00, 0.00, -0.00, -1.00, 756.3, 605.2)"> </text><text xml:space="preserve" font-family="HelveticaNeue-Light,Helvetica Neue" font-size="38.0" fill="#000000" transform="matrix(1.00, 0.00, -0.00, -1.00, 766.8, 605.2)">s</text><text xml:space="preserve" font-family="HelveticaNeue-Light,Helvetica Neue" font-size="38.0" fill="#000000" transform="matrix(1.00, 0.00, -0.00, -1.00, 785.1, 605.2)">i</text><text xml:space="preserve" font-family="HelveticaNeue-Light,Helvetica Neue" font-size="38.0" fill="#000000" transform="matrix(1.00, 0.00, -0.00, -1.00, 792.1, 605.2)">t</text><text xml:space="preserve" font-family="HelveticaNeue-Light,Helvetica Neue" font-size="38.0" fill="#000000" transform="matrix(1.00, 0.00, -0.00, -1.00, 803.4, 605.2)">e</text><text xml:space="preserve" font-family="HelveticaNeue-Light,Helvetica Neue" font-size="38.0" fill="#000000" transform="matrix(1.00, 0.00, -0.00, -1.00, 823.1, 605.2)">?</text><text xml:space="preserve" font-family="HelveticaNeue,Helvetica Neue" font-size="24.0" fill="#747474" transform="matrix(1.00, 0.00, -0.00, -1.00, 60.0, 520.8)">•</text><text xml:space="preserve" font-family="HelveticaNeue,Helvetica Neue" font-size="24.0" fill="#747474" transform="matrix(1.00, 0.00, -0.00, -1.00, 81.0, 520.8)">S</text><text xml:space="preserve" font-family="HelveticaNeue,Helvetica Neue" font-size="24.0" fill="#747474" transform="matrix(1.00, 0.00, -0.00, -1.00, 96.6, 520.8)">e</text><text xml:space="preserve" font-family="HelveticaNeue,Helvetica Neue" font-size="24.0" fill="#747474" transform="matrix(1.00, 0.00, -0.00, -1.00, 109.4, 520.8)">e</text><text xml:space="preserve" font-family="HelveticaNeue,Helvetica Neue" font-size="24.0" fill="#747474" transform="matrix(1.00, 0.00, -0.00, -1.00, 122.3, 520.8)"> </text><text xml:space="preserve" font-family="HelveticaNeue,Helvetica Neue" font-size="24.0" fill="#747474" transform="matrix(1.00, 0.00, -0.00, -1.00, 129.0, 520.8)">t</text><text xml:space="preserve" font-family="HelveticaNeue,Helvetica Neue" font-size="24.0" fill="#747474" transform="matrix(1.00, 0.00, -0.00, -1.00, 136.6, 520.8)">h</text><text xml:space="preserve" font-family="HelveticaNeue,Helvetica Neue" font-size="24.0" fill="#747474" transform="matrix(1.00, 0.00, -0.00, -1.00, 149.9, 520.8)">e</text><text xml:space="preserve" font-family="HelveticaNeue,Helvetica Neue" font-size="24.0" fill="#747474" transform="matrix(1.00, 0.00, -0.00, -1.00, 162.8, 520.8)"> </text><text xml:space="preserve" font-family="HelveticaNeue,Helvetica Neue" font-size="24.0" fill="#747474" transform="matrix(1.00, 0.00, -0.00, -1.00, 169.5, 520.8)">l</text><text xml:space="preserve" font-family="HelveticaNeue,Helvetica Neue" font-size="24.0" fill="#747474" transform="matrix(1.00, 0.00, -0.00, -1.00, 174.8, 520.8)">i</text><text xml:space="preserve" font-family="HelveticaNeue,Helvetica Neue" font-size="24.0" fill="#747474" transform="matrix(1.00, 0.00, -0.00, -1.00, 180.1, 520.8)">n</text><text xml:space="preserve" font-family="HelveticaNeue,Helvetica Neue" font-size="24.0" fill="#747474" transform="matrix(1.00, 0.00, -0.00, -1.00, 193.5, 520.8)">k</text><text xml:space="preserve" font-family="HelveticaNeue,Helvetica Neue" font-size="24.0" fill="#747474" transform="matrix(1.00, 0.00, -0.00, -1.00, 205.9, 520.8)">s</text><text xml:space="preserve" font-family="HelveticaNeue,Helvetica Neue" font-size="24.0" fill="#747474" transform="matrix(1.00, 0.00, -0.00, -1.00, 217.9, 520.8)"> </text><text xml:space="preserve" font-family="HelveticaNeue,Helvetica Neue" font-size="24.0" fill="#747474" transform="matrix(1.00, 0.00, -0.00, -1.00, 224.6, 520.8)">t</text><text xml:space="preserve" font-family="HelveticaNeue,Helvetica Neue" font-size="24.0" fill="#747474" transform="matrix(1.00, 0.00, -0.00, -1.00, 232.2, 520.8)">o</text><text xml:space="preserve" font-family="HelveticaNeue,Helvetica Neue" font-size="24.0" fill="#747474" transform="matrix(1.00, 0.00, -0.00, -1.00, 245.9, 520.8)"> </text><text xml:space="preserve" font-family="HelveticaNeue,Helvetica Neue" font-size="24.0" fill="#747474" transform="matrix(1.00, 0.00, -0.00, -1.00, 252.6, 520.8)">i</text><text xml:space="preserve" font-family="HelveticaNeue,Helvetica Neue" font-size="24.0" fill="#747474" transform="matrix(1.00, 0.00, -0.00, -1.00, 257.9, 520.8)">n</text><text xml:space="preserve" font-family="HelveticaNeue,Helvetica Neue" font-size="24.0" fill="#747474" transform="matrix(1.00, 0.00, -0.00, -1.00, 271.3, 520.8)">t</text><text xml:space="preserve" font-family="HelveticaNeue,Helvetica Neue" font-size="24.0" fill="#747474" transform="matrix(1.00, 0.00, -0.00, -1.00, 278.8, 520.8)">e</text><text xml:space="preserve" font-family="HelveticaNeue,Helvetica Neue" font-size="24.0" fill="#747474" transform="matrix(1.00, 0.00, -0.00, -1.00, 291.7, 520.8)">r</text><text xml:space="preserve" font-family="HelveticaNeue,Helvetica Neue" font-size="24.0" fill="#747474" transform="matrix(1.00, 0.00, -0.00, -1.00, 300.1, 520.8)">n</text><text xml:space="preserve" font-family="HelveticaNeue,Helvetica Neue" font-size="24.0" fill="#747474" transform="matrix(1.00, 0.00, -0.00, -1.00, 313.5, 520.8)">a</text><text xml:space="preserve" font-family="HelveticaNeue,Helvetica Neue" font-size="24.0" fill="#747474" transform="matrix(1.00, 0.00, -0.00, -1.00, 326.4, 520.8)">l</text><text xml:space="preserve" font-family="HelveticaNeue,Helvetica Neue" font-size="24.0" fill="#747474" transform="matrix(1.00, 0.00, -0.00, -1.00, 331.7, 520.8)"> </text><text xml:space="preserve" font-family="HelveticaNeue,Helvetica Neue" font-size="24.0" fill="#747474" transform="matrix(1.00, 0.00, -0.00, -1.00, 338.4, 520.8)">p</text><text xml:space="preserve" font-family="HelveticaNeue,Helvetica Neue" font-size="24.0" fill="#747474" transform="matrix(1.00, 0.00, -0.00, -1.00, 352.6, 520.8)">a</text><text xml:space="preserve" font-family="HelveticaNeue,Helvetica Neue" font-size="24.0" fill="#747474" transform="matrix(1.00, 0.00, -0.00, -1.00, 365.5, 520.8)">g</text><text xml:space="preserve" font-family="HelveticaNeue,Helvetica Neue" font-size="24.0" fill="#747474" transform="matrix(1.00, 0.00, -0.00, -1.00, 379.3, 520.8)">e</text><text xml:space="preserve" font-family="HelveticaNeue,Helvetica Neue" font-size="24.0" fill="#747474" transform="matrix(1.00, 0.00, -0.00, -1.00, 392.2, 520.8)">s</text><text xml:space="preserve" font-family="HelveticaNeue,Helvetica Neue" font-size="24.0" fill="#747474" transform="matrix(1.00, 0.00, -0.00, -1.00, 404.2, 520.8)"> </text><text xml:space="preserve" font-family="HelveticaNeue,Helvetica Neue" font-size="24.0" fill="#747474" transform="matrix(1.00, 0.00, -0.00, -1.00, 410.8, 520.8)">i</text><text xml:space="preserve" font-family="HelveticaNeue,Helvetica Neue" font-size="24.0" fill="#747474" transform="matrix(1.00, 0.00, -0.00, -1.00, 416.2, 520.8)">n</text><text xml:space="preserve" font-family="HelveticaNeue,Helvetica Neue" font-size="24.0" fill="#747474" transform="matrix(1.00, 0.00, -0.00, -1.00, 429.5, 520.8)"> </text><text xml:space="preserve" font-family="HelveticaNeue,Helvetica Neue" font-size="24.0" fill="#747474" transform="matrix(1.00, 0.00, -0.00, -1.00, 436.2, 520.8)">a</text><text xml:space="preserve" font-family="HelveticaNeue,Helvetica Neue" font-size="24.0" fill="#747474" transform="matrix(1.00, 0.00, -0.00, -1.00, 449.1, 520.8)"> </text><text xml:space="preserve" font-family="HelveticaNeue,Helvetica Neue" font-size="24.0" fill="#747474" transform="matrix(1.00, 0.00, -0.00, -1.00, 455.7, 520.8)">g</text><text xml:space="preserve" font-family="HelveticaNeue,Helvetica Neue" font-size="24.0" fill="#747474" transform="matrix(1.00, 0.00, -0.00, -1.00, 469.5, 520.8)">o</text><text xml:space="preserve" font-family="HelveticaNeue,Helvetica Neue" font-size="24.0" fill="#747474" transform="matrix(1.00, 0.00, -0.00, -1.00, 483.3, 520.8)">o</text><text xml:space="preserve" font-family="HelveticaNeue,Helvetica Neue" font-size="24.0" fill="#747474" transform="matrix(1.00, 0.00, -0.00, -1.00, 497.1, 520.8)">g</text><text xml:space="preserve" font-family="HelveticaNeue,Helvetica Neue" font-size="24.0" fill="#747474" transform="matrix(1.00, 0.00, -0.00, -1.00, 510.8, 520.8)">l</text><text xml:space="preserve" font-family="HelveticaNeue,Helvetica Neue" font-size="24.0" fill="#747474" transform="matrix(1.00, 0.00, -0.00, -1.00, 516.2, 520.8)">e</text><text xml:space="preserve" font-family="HelveticaNeue,Helvetica Neue" font-size="24.0" fill="#747474" transform="matrix(1.00, 0.00, -0.00, -1.00, 529.1, 520.8)"> </text><text xml:space="preserve" font-family="HelveticaNeue,Helvetica Neue" font-size="24.0" fill="#747474" transform="matrix(1.00, 0.00, -0.00, -1.00, 535.7, 520.8)">s</text><text xml:space="preserve" font-family="HelveticaNeue,Helvetica Neue" font-size="24.0" fill="#747474" transform="matrix(1.00, 0.00, -0.00, -1.00, 547.7, 520.8)">e</text><text xml:space="preserve" font-family="HelveticaNeue,Helvetica Neue" font-size="24.0" fill="#747474" transform="matrix(1.00, 0.00, -0.00, -1.00, 560.6, 520.8)">a</text><text xml:space="preserve" font-family="HelveticaNeue,Helvetica Neue" font-size="24.0" fill="#747474" transform="matrix(1.00, 0.00, -0.00, -1.00, 573.5, 520.8)">r</text><text xml:space="preserve" font-family="HelveticaNeue,Helvetica Neue" font-size="24.0" fill="#747474" transform="matrix(1.00, 0.00, -0.00, -1.00, 581.1, 520.8)">c</text><text xml:space="preserve" font-family="HelveticaNeue,Helvetica Neue" font-size="24.0" fill="#747474" transform="matrix(1.00, 0.00, -0.00, -1.00, 594.0, 520.8)">h</text><text xml:space="preserve" font-family="HelveticaNeue,Helvetica Neue" font-size="24.0" fill="#747474" transform="matrix(1.00, 0.00, -0.00, -1.00, 607.3, 520.8)"> </text><text xml:space="preserve" font-family="HelveticaNeue,Helvetica Neue" font-size="24.0" fill="#747474" transform="matrix(1.00, 0.00, -0.00, -1.00, 614.0, 520.8)">r</text><text xml:space="preserve" font-family="HelveticaNeue,Helvetica Neue" font-size="24.0" fill="#747474" transform="matrix(1.00, 0.00, -0.00, -1.00, 621.5, 520.8)">e</text><text xml:space="preserve" font-family="HelveticaNeue,Helvetica Neue" font-size="24.0" fill="#747474" transform="matrix(1.00, 0.00, -0.00, -1.00, 634.4, 520.8)">s</text><text xml:space="preserve" font-family="HelveticaNeue,Helvetica Neue" font-size="24.0" fill="#747474" transform="matrix(1.00, 0.00, -0.00, -1.00, 646.4, 520.8)">u</text><text xml:space="preserve" font-family="HelveticaNeue,Helvetica Neue" font-size="24.0" fill="#747474" transform="matrix(1.00, 0.00, -0.00, -1.00, 659.8, 520.8)">l</text><text xml:space="preserve" font-family="HelveticaNeue,Helvetica Neue" font-size="24.0" fill="#747474" transform="matrix(1.00, 0.00, -0.00, -1.00, 665.1, 520.8)">t</text><text xml:space="preserve" font-family="HelveticaNeue,Helvetica Neue" font-size="24.0" fill="#747474" transform="matrix(1.00, 0.00, -0.00, -1.00, 672.6, 520.8)">,</text><text xml:space="preserve" font-family="HelveticaNeue,Helvetica Neue" font-size="24.0" fill="#747474" transform="matrix(1.00, 0.00, -0.00, -1.00, 679.3, 520.8)"> </text><text xml:space="preserve" font-family="HelveticaNeue,Helvetica Neue" font-size="24.0" fill="#747474" transform="matrix(1.00, 0.00, -0.00, -1.00, 686.0, 520.8)">n</text><text xml:space="preserve" font-family="HelveticaNeue,Helvetica Neue" font-size="24.0" fill="#747474" transform="matrix(1.00, 0.00, -0.00, -1.00, 699.3, 520.8)">o</text><text xml:space="preserve" font-family="HelveticaNeue,Helvetica Neue" font-size="24.0" fill="#747474" transform="matrix(1.00, 0.00, -0.00, -1.00, 713.1, 520.8)">t</text><text xml:space="preserve" font-family="HelveticaNeue,Helvetica Neue" font-size="24.0" fill="#747474" transform="matrix(1.00, 0.00, -0.00, -1.00, 720.7, 520.8)"> </text><text xml:space="preserve" font-family="HelveticaNeue,Helvetica Neue" font-size="24.0" fill="#747474" transform="matrix(1.00, 0.00, -0.00, -1.00, 727.3, 520.8)">e</text><text xml:space="preserve" font-family="HelveticaNeue,Helvetica Neue" font-size="24.0" fill="#747474" transform="matrix(1.00, 0.00, -0.00, -1.00, 740.2, 520.8)">v</text><text xml:space="preserve" font-family="HelveticaNeue,Helvetica Neue" font-size="24.0" fill="#747474" transform="matrix(1.00, 0.00, -0.00, -1.00, 752.2, 520.8)">e</text><text xml:space="preserve" font-family="HelveticaNeue,Helvetica Neue" font-size="24.0" fill="#747474" transform="matrix(1.00, 0.00, -0.00, -1.00, 765.1, 520.8)">r</text><text xml:space="preserve" font-family="HelveticaNeue,Helvetica Neue" font-size="24.0" fill="#747474" transform="matrix(1.00, 0.00, -0.00, -1.00, 773.1, 520.8)">y</text><text xml:space="preserve" font-family="HelveticaNeue,Helvetica Neue" font-size="24.0" fill="#747474" transform="matrix(1.00, 0.00, -0.00, -1.00, 785.1, 520.8)">b</text><text xml:space="preserve" font-family="HelveticaNeue,Helvetica Neue" font-size="24.0" fill="#747474" transform="matrix(1.00, 0.00, -0.00, -1.00, 799.3, 520.8)">o</text><text xml:space="preserve" font-family="HelveticaNeue,Helvetica Neue" font-size="24.0" fill="#747474" transform="matrix(1.00, 0.00, -0.00, -1.00, 813.1, 520.8)">d</text><text xml:space="preserve" font-family="HelveticaNeue,Helvetica Neue" font-size="24.0" fill="#747474" transform="matrix(1.00, 0.00, -0.00, -1.00, 827.4, 520.8)">y</text><text xml:space="preserve" font-family="HelveticaNeue,Helvetica Neue" font-size="24.0" fill="#747474" transform="matrix(1.00, 0.00, -0.00, -1.00, 839.4, 520.8)"> </text><text xml:space="preserve" font-family="HelveticaNeue,Helvetica Neue" font-size="24.0" fill="#747474" transform="matrix(1.00, 0.00, -0.00, -1.00, 846.0, 520.8)">g</text><text xml:space="preserve" font-family="HelveticaNeue,Helvetica Neue" font-size="24.0" fill="#747474" transform="matrix(1.00, 0.00, -0.00, -1.00, 859.8, 520.8)">o</text><text xml:space="preserve" font-family="HelveticaNeue,Helvetica Neue" font-size="24.0" fill="#747474" transform="matrix(1.00, 0.00, -0.00, -1.00, 873.6, 520.8)">e</text><text xml:space="preserve" font-family="HelveticaNeue,Helvetica Neue" font-size="24.0" fill="#747474" transform="matrix(1.00, 0.00, -0.00, -1.00, 886.5, 520.8)">s</text><text xml:space="preserve" font-family="HelveticaNeue,Helvetica Neue" font-size="24.0" fill="#747474" transform="matrix(1.00, 0.00, -0.00, -1.00, 898.5, 520.8)"> </text><text xml:space="preserve" font-family="HelveticaNeue,Helvetica Neue" font-size="24.0" fill="#747474" transform="matrix(1.00, 0.00, -0.00, -1.00, 905.1, 520.8)">t</text><text xml:space="preserve" font-family="HelveticaNeue,Helvetica Neue" font-size="24.0" fill="#747474" transform="matrix(1.00, 0.00, -0.00, -1.00, 912.7, 520.8)">o</text><text xml:space="preserve" font-family="HelveticaNeue,Helvetica Neue" font-size="24.0" fill="#747474" transform="matrix(1.00, 0.00, -0.00, -1.00, 926.5, 520.8)"> </text><text xml:space="preserve" font-family="HelveticaNeue,Helvetica Neue" font-size="24.0" fill="#747474" transform="matrix(1.00, 0.00, -0.00, -1.00, 933.1, 520.8)">t</text><text xml:space="preserve" font-family="HelveticaNeue,Helvetica Neue" font-size="24.0" fill="#747474" transform="matrix(1.00, 0.00, -0.00, -1.00, 940.7, 520.8)">h</text><text xml:space="preserve" font-family="HelveticaNeue,Helvetica Neue" font-size="24.0" fill="#747474" transform="matrix(1.00, 0.00, -0.00, -1.00, 954.0, 520.8)">e</text><text xml:space="preserve" font-family="HelveticaNeue,Helvetica Neue" font-size="24.0" fill="#747474" transform="matrix(1.00, 0.00, -0.00, -1.00, 966.9, 520.8)"> </text><text xml:space="preserve" font-family="HelveticaNeue,Helvetica Neue" font-size="24.0" fill="#747474" transform="matrix(1.00, 0.00, -0.00, -1.00, 973.6, 520.8)">h</text><text xml:space="preserve" font-family="HelveticaNeue,Helvetica Neue" font-size="24.0" fill="#747474" transform="matrix(1.00, 0.00, -0.00, -1.00, 987.0, 520.8)">o</text><text xml:space="preserve" font-family="HelveticaNeue,Helvetica Neue" font-size="24.0" fill="#747474" transform="matrix(1.00, 0.00, -0.00, -1.00, 1000.7, 520.8)">m</text><text xml:space="preserve" font-family="HelveticaNeue,Helvetica Neue" font-size="24.0" fill="#747474" transform="matrix(1.00, 0.00, -0.00, -1.00, 1021.2, 520.8)">e</text><text xml:space="preserve" font-family="HelveticaNeue,Helvetica Neue" font-size="24.0" fill="#747474" transform="matrix(1.00, 0.00, -0.00, -1.00, 1034.1, 520.8)"> </text><text xml:space="preserve" font-family="HelveticaNeue,Helvetica Neue" font-size="24.0" fill="#747474" transform="matrix(1.00, 0.00, -0.00, -1.00, 1040.8, 520.8)">p</text><text xml:space="preserve" font-family="HelveticaNeue,Helvetica Neue" font-size="24.0" fill="#747474" transform="matrix(1.00, 0.00, -0.00, -1.00, 1055.0, 520.8)">a</text><text xml:space="preserve" font-family="HelveticaNeue,Helvetica Neue" font-size="24.0" fill="#747474" transform="matrix(1.00, 0.00, -0.00, -1.00, 1067.9, 520.8)">g</text><text xml:space="preserve" font-family="HelveticaNeue,Helvetica Neue" font-size="24.0" fill="#747474" transform="matrix(1.00, 0.00, -0.00, -1.00, 1081.7, 520.8)">e</text><text xml:space="preserve" font-family="HelveticaNeue,Helvetica Neue" font-size="24.0" fill="#747474" transform="matrix(1.00, 0.00, -0.00, -1.00, 1094.5, 520.8)">.</text><text xml:space="preserve" font-family="HelveticaNeue,Helvetica Neue" font-size="24.0" fill="#747474" transform="matrix(1.00, 0.00, -0.00, -1.00, 1101.2, 520.8)"> </text><text xml:space="preserve" font-family="HelveticaNeue,Helvetica Neue" font-size="24.0" fill="#747474" transform="matrix(1.00, 0.00, -0.00, -1.00, 1107.9, 520.8)">I</text><text xml:space="preserve" font-family="HelveticaNeue,Helvetica Neue" font-size="24.0" fill="#747474" transform="matrix(1.00, 0.00, -0.00, -1.00, 1114.1, 520.8)">n</text><text xml:space="preserve" font-family="HelveticaNeue,Helvetica Neue" font-size="24.0" fill="#747474" transform="matrix(1.00, 0.00, -0.00, -1.00, 1127.4, 520.8)"> </text><text xml:space="preserve" font-family="HelveticaNeue,Helvetica Neue" font-size="24.0" fill="#747474" transform="matrix(1.00, 0.00, -0.00, -1.00, 1134.1, 520.8)">f</text><text xml:space="preserve" font-family="HelveticaNeue,Helvetica Neue" font-size="24.0" fill="#747474" transform="matrix(1.00, 0.00, -0.00, -1.00, 1141.2, 520.8)">a</text><text xml:space="preserve" font-family="HelveticaNeue,Helvetica Neue" font-size="24.0" fill="#747474" transform="matrix(1.00, 0.00, -0.00, -1.00, 1154.1, 520.8)">c</text><text xml:space="preserve" font-family="HelveticaNeue,Helvetica Neue" font-size="24.0" fill="#747474" transform="matrix(1.00, 0.00, -0.00, -1.00, 1167.0, 520.8)">t</text><text xml:space="preserve" font-family="HelveticaNeue,Helvetica Neue" font-size="24.0" fill="#747474" transform="matrix(1.00, 0.00, -0.00, -1.00, 1174.6, 520.8)">,</text><text xml:space="preserve" font-family="HelveticaNeue,Helvetica Neue" font-size="24.0" fill="#747474" transform="matrix(1.00, 0.00, -0.00, -1.00, 1181.2, 520.8)"> </text><text xml:space="preserve" font-family="HelveticaNeue,Helvetica Neue" font-size="24.0" fill="#747474" transform="matrix(1.00, 0.00, -0.00, -1.00, 81.0, 491.8)">t</text><text xml:space="preserve" font-family="HelveticaNeue,Helvetica Neue" font-size="24.0" fill="#747474" transform="matrix(1.00, 0.00, -0.00, -1.00, 88.6, 491.8)">h</text><text xml:space="preserve" font-family="HelveticaNeue,Helvetica Neue" font-size="24.0" fill="#747474" transform="matrix(1.00, 0.00, -0.00, -1.00, 101.9, 491.8)">i</text><text xml:space="preserve" font-family="HelveticaNeue,Helvetica Neue" font-size="24.0" fill="#747474" transform="matrix(1.00, 0.00, -0.00, -1.00, 107.2, 491.8)">s</text><text xml:space="preserve" font-family="HelveticaNeue,Helvetica Neue" font-size="24.0" fill="#747474" transform="matrix(1.00, 0.00, -0.00, -1.00, 119.2, 491.8)"> </text><text xml:space="preserve" font-family="HelveticaNeue,Helvetica Neue" font-size="24.0" fill="#747474" transform="matrix(1.00, 0.00, -0.00, -1.00, 125.9, 491.8)">i</text><text xml:space="preserve" font-family="HelveticaNeue,Helvetica Neue" font-size="24.0" fill="#747474" transform="matrix(1.00, 0.00, -0.00, -1.00, 131.2, 491.8)">s</text><text xml:space="preserve" font-family="HelveticaNeue,Helvetica Neue" font-size="24.0" fill="#747474" transform="matrix(1.00, 0.00, -0.00, -1.00, 143.2, 491.8)"> </text><text xml:space="preserve" font-family="HelveticaNeue,Helvetica Neue" font-size="24.0" fill="#747474" transform="matrix(1.00, 0.00, -0.00, -1.00, 149.9, 491.8)">b</text><text xml:space="preserve" font-family="HelveticaNeue,Helvetica Neue" font-size="24.0" fill="#747474" transform="matrix(1.00, 0.00, -0.00, -1.00, 164.1, 491.8)">e</text><text xml:space="preserve" font-family="HelveticaNeue,Helvetica Neue" font-size="24.0" fill="#747474" transform="matrix(1.00, 0.00, -0.00, -1.00, 177.0, 491.8)">c</text><text xml:space="preserve" font-family="HelveticaNeue,Helvetica Neue" font-size="24.0" fill="#747474" transform="matrix(1.00, 0.00, -0.00, -1.00, 189.9, 491.8)">o</text><text xml:space="preserve" font-family="HelveticaNeue,Helvetica Neue" font-size="24.0" fill="#747474" transform="matrix(1.00, 0.00, -0.00, -1.00, 203.7, 491.8)">m</text><text xml:space="preserve" font-family="HelveticaNeue,Helvetica Neue" font-size="24.0" fill="#747474" transform="matrix(1.00, 0.00, -0.00, -1.00, 224.2, 491.8)">i</text><text xml:space="preserve" font-family="HelveticaNeue,Helvetica Neue" font-size="24.0" fill="#747474" transform="matrix(1.00, 0.00, -0.00, -1.00, 229.5, 491.8)">n</text><text xml:space="preserve" font-family="HelveticaNeue,Helvetica Neue" font-size="24.0" fill="#747474" transform="matrix(1.00, 0.00, -0.00, -1.00, 242.8, 491.8)">g</text><text xml:space="preserve" font-family="HelveticaNeue,Helvetica Neue" font-size="24.0" fill="#747474" transform="matrix(1.00, 0.00, -0.00, -1.00, 256.6, 491.8)"> </text><text xml:space="preserve" font-family="HelveticaNeue,Helvetica Neue" font-size="24.0" fill="#747474" transform="matrix(1.00, 0.00, -0.00, -1.00, 263.3, 491.8)">i</text><text xml:space="preserve" font-family="HelveticaNeue,Helvetica Neue" font-size="24.0" fill="#747474" transform="matrix(1.00, 0.00, -0.00, -1.00, 268.6, 491.8)">n</text><text xml:space="preserve" font-family="HelveticaNeue,Helvetica Neue" font-size="24.0" fill="#747474" transform="matrix(1.00, 0.00, -0.00, -1.00, 282.0, 491.8)">c</text><text xml:space="preserve" font-family="HelveticaNeue,Helvetica Neue" font-size="24.0" fill="#747474" transform="matrix(1.00, 0.00, -0.00, -1.00, 294.8, 491.8)">r</text><text xml:space="preserve" font-family="HelveticaNeue,Helvetica Neue" font-size="24.0" fill="#747474" transform="matrix(1.00, 0.00, -0.00, -1.00, 302.4, 491.8)">e</text><text xml:space="preserve" font-family="HelveticaNeue,Helvetica Neue" font-size="24.0" fill="#747474" transform="matrix(1.00, 0.00, -0.00, -1.00, 315.3, 491.8)">a</text><text xml:space="preserve" font-family="HelveticaNeue,Helvetica Neue" font-size="24.0" fill="#747474" transform="matrix(1.00, 0.00, -0.00, -1.00, 328.2, 491.8)">s</text><text xml:space="preserve" font-family="HelveticaNeue,Helvetica Neue" font-size="24.0" fill="#747474" transform="matrix(1.00, 0.00, -0.00, -1.00, 340.2, 491.8)">i</text><text xml:space="preserve" font-family="HelveticaNeue,Helvetica Neue" font-size="24.0" fill="#747474" transform="matrix(1.00, 0.00, -0.00, -1.00, 345.5, 491.8)">n</text><text xml:space="preserve" font-family="HelveticaNeue,Helvetica Neue" font-size="24.0" fill="#747474" transform="matrix(1.00, 0.00, -0.00, -1.00, 358.8, 491.8)">g</text><text xml:space="preserve" font-family="HelveticaNeue,Helvetica Neue" font-size="24.0" fill="#747474" transform="matrix(1.00, 0.00, -0.00, -1.00, 372.6, 491.8)">l</text><text xml:space="preserve" font-family="HelveticaNeue,Helvetica Neue" font-size="24.0" fill="#747474" transform="matrix(1.00, 0.00, -0.00, -1.00, 378.0, 491.8)">y</text><text xml:space="preserve" font-family="HelveticaNeue,Helvetica Neue" font-size="24.0" fill="#747474" transform="matrix(1.00, 0.00, -0.00, -1.00, 390.0, 491.8)"> </text><text xml:space="preserve" font-family="HelveticaNeue,Helvetica Neue" font-size="24.0" fill="#747474" transform="matrix(1.00, 0.00, -0.00, -1.00, 396.6, 491.8)">r</text><text xml:space="preserve" font-family="HelveticaNeue,Helvetica Neue" font-size="24.0" fill="#747474" transform="matrix(1.00, 0.00, -0.00, -1.00, 404.6, 491.8)">a</text><text xml:space="preserve" font-family="HelveticaNeue,Helvetica Neue" font-size="24.0" fill="#747474" transform="matrix(1.00, 0.00, -0.00, -1.00, 417.5, 491.8)">r</text><text xml:space="preserve" font-family="HelveticaNeue,Helvetica Neue" font-size="24.0" fill="#747474" transform="matrix(1.00, 0.00, -0.00, -1.00, 425.1, 491.8)">e</text><text xml:space="preserve" font-family="HelveticaNeue,Helvetica Neue" font-size="24.0" fill="#747474" transform="matrix(1.00, 0.00, -0.00, -1.00, 438.0, 491.8)"> </text><text xml:space="preserve" font-family="HelveticaNeue,Helvetica Neue" font-size="24.0" fill="#747474" transform="matrix(1.00, 0.00, -0.00, -1.00, 444.6, 491.8)">t</text><text xml:space="preserve" font-family="HelveticaNeue,Helvetica Neue" font-size="24.0" fill="#747474" transform="matrix(1.00, 0.00, -0.00, -1.00, 452.2, 491.8)">o</text><text xml:space="preserve" font-family="HelveticaNeue,Helvetica Neue" font-size="24.0" fill="#747474" transform="matrix(1.00, 0.00, -0.00, -1.00, 466.0, 491.8)"> </text><text xml:space="preserve" font-family="HelveticaNeue,Helvetica Neue" font-size="24.0" fill="#747474" transform="matrix(1.00, 0.00, -0.00, -1.00, 472.6, 491.8)">g</text><text xml:space="preserve" font-family="HelveticaNeue,Helvetica Neue" font-size="24.0" fill="#747474" transform="matrix(1.00, 0.00, -0.00, -1.00, 486.4, 491.8)">o</text><text xml:space="preserve" font-family="HelveticaNeue,Helvetica Neue" font-size="24.0" fill="#747474" transform="matrix(1.00, 0.00, -0.00, -1.00, 500.2, 491.8)"> </text><text xml:space="preserve" font-family="HelveticaNeue,Helvetica Neue" font-size="24.0" fill="#747474" transform="matrix(1.00, 0.00, -0.00, -1.00, 506.9, 491.8)">t</text><text xml:space="preserve" font-family="HelveticaNeue,Helvetica Neue" font-size="24.0" fill="#747474" transform="matrix(1.00, 0.00, -0.00, -1.00, 514.4, 491.8)">o</text><text xml:space="preserve" font-family="HelveticaNeue,Helvetica Neue" font-size="24.0" fill="#747474" transform="matrix(1.00, 0.00, -0.00, -1.00, 528.2, 491.8)"> </text><text xml:space="preserve" font-family="HelveticaNeue,Helvetica Neue" font-size="24.0" fill="#747474" transform="matrix(1.00, 0.00, -0.00, -1.00, 534.9, 491.8)">t</text><text xml:space="preserve" font-family="HelveticaNeue,Helvetica Neue" font-size="24.0" fill="#747474" transform="matrix(1.00, 0.00, -0.00, -1.00, 542.4, 491.8)">h</text><text xml:space="preserve" font-family="HelveticaNeue,Helvetica Neue" font-size="24.0" fill="#747474" transform="matrix(1.00, 0.00, -0.00, -1.00, 555.8, 491.8)">e</text><text xml:space="preserve" font-family="HelveticaNeue,Helvetica Neue" font-size="24.0" fill="#747474" transform="matrix(1.00, 0.00, -0.00, -1.00, 568.7, 491.8)"> </text><text xml:space="preserve" font-family="HelveticaNeue,Helvetica Neue" font-size="24.0" fill="#747474" transform="matrix(1.00, 0.00, -0.00, -1.00, 575.3, 491.8)">h</text><text xml:space="preserve" font-family="HelveticaNeue,Helvetica Neue" font-size="24.0" fill="#747474" transform="matrix(1.00, 0.00, -0.00, -1.00, 588.7, 491.8)">o</text><text xml:space="preserve" font-family="HelveticaNeue,Helvetica Neue" font-size="24.0" fill="#747474" transform="matrix(1.00, 0.00, -0.00, -1.00, 602.4, 491.8)">m</text><text xml:space="preserve" font-family="HelveticaNeue,Helvetica Neue" font-size="24.0" fill="#747474" transform="matrix(1.00, 0.00, -0.00, -1.00, 622.9, 491.8)">e</text><text xml:space="preserve" font-family="HelveticaNeue,Helvetica Neue" font-size="24.0" fill="#747474" transform="matrix(1.00, 0.00, -0.00, -1.00, 635.8, 491.8)"> </text><text xml:space="preserve" font-family="HelveticaNeue,Helvetica Neue" font-size="24.0" fill="#747474" transform="matrix(1.00, 0.00, -0.00, -1.00, 642.5, 491.8)">p</text><text xml:space="preserve" font-family="HelveticaNeue,Helvetica Neue" font-size="24.0" fill="#747474" transform="matrix(1.00, 0.00, -0.00, -1.00, 656.7, 491.8)">a</text><text xml:space="preserve" font-family="HelveticaNeue,Helvetica Neue" font-size="24.0" fill="#747474" transform="matrix(1.00, 0.00, -0.00, -1.00, 669.6, 491.8)">g</text><text xml:space="preserve" font-family="HelveticaNeue,Helvetica Neue" font-size="24.0" fill="#747474" transform="matrix(1.00, 0.00, -0.00, -1.00, 683.4, 491.8)">e</text><text xml:space="preserve" font-family="HelveticaNeue,Helvetica Neue" font-size="24.0" fill="#747474" transform="matrix(1.00, 0.00, -0.00, -1.00, 696.3, 491.8)">.</text></g></svg>